<svg xmlns="http://www.w3.org/2000/svg" fill="none" overflow="visible" viewBox="150.68 186.85 452.73 605.53">     <g filter="url(#a)">       <ellipse cx="364.5" cy="430" fill="#1F326C" rx="115.5" ry="146"/>     </g>     <path fill="#F1E0E0" d="M150.687 698.864h3.104v20.16h11.744V722h-14.848v-23.136Zm25.315 23.456c-1.515 0-2.816-.299-3.904-.896-1.088-.619-1.931-1.451-2.528-2.496-.576-1.067-.864-2.283-.864-3.648 0-1.301.33-2.485.992-3.552a7.443 7.443 0 0 1 2.656-2.56c1.109-.64 2.346-.96 3.712-.96 1.749 0 3.2.512 4.352 1.536 1.152 1.024 1.93 2.432 2.336 4.224l-10.912 3.84-.704-1.76 8.96-3.264-.64.416a4.323 4.323 0 0 0-1.28-1.824c-.598-.533-1.376-.8-2.336-.8-.811 0-1.536.203-2.176.608a4.022 4.022 0 0 0-1.504 1.6c-.363.683-.544 1.461-.544 2.336 0 .917.192 1.728.576 2.432a4.417 4.417 0 0 0 1.568 1.632c.682.384 1.45.576 2.304.576a4.45 4.45 0 0 0 1.664-.32 6.696 6.696 0 0 0 1.536-.832l1.376 2.208a9.1 9.1 0 0 1-2.24 1.088 7.394 7.394 0 0 1-2.4.416Zm15.985 0c-1.238 0-2.368-.267-3.392-.8-1.003-.533-1.803-1.312-2.4-2.336-.576-1.045-.864-2.315-.864-3.808 0-1.472.309-2.741.928-3.808.618-1.088 1.44-1.92 2.464-2.496a6.976 6.976 0 0 1 3.424-.864c1.237 0 2.282.288 3.136.864.853.555 1.504 1.216 1.952 1.984l-.192.512.288-2.816h2.752V722h-2.976v-3.456l.32.768c-.086.213-.278.491-.576.832-.278.32-.662.651-1.152.992a7 7 0 0 1-1.632.864c-.619.213-1.312.32-2.08.32Zm.8-2.464c.746 0 1.418-.139 2.016-.416a3.94 3.94 0 0 0 1.472-1.152c.405-.512.682-1.12.832-1.824v-2.592a3.953 3.953 0 0 0-.896-1.664 4.207 4.207 0 0 0-1.536-1.12 4.662 4.662 0 0 0-1.984-.416c-.79 0-1.515.192-2.176.576a4.414 4.414 0 0 0-1.6 1.6c-.384.683-.576 1.483-.576 2.4 0 .853.202 1.632.608 2.336a4.516 4.516 0 0 0 1.632 1.664 4.25 4.25 0 0 0 2.208.608Zm15.102-11.104.288 3.84-.16-.512a5.48 5.48 0 0 1 1.472-2.048c.661-.576 1.344-1.013 2.048-1.312.725-.32 1.354-.48 1.888-.48l-.16 2.944c-1.003-.064-1.888.128-2.656.576a5.142 5.142 0 0 0-1.792 1.792 4.758 4.758 0 0 0-.64 2.4V722h-2.944v-13.248h2.656Zm12.031 0 .256 3.232-.128-.512c.427-.981 1.12-1.76 2.08-2.336.96-.597 2.069-.896 3.328-.896s2.283.373 3.072 1.12c.811.725 1.227 1.675 1.248 2.848V722h-3.008v-8.736c-.021-.725-.235-1.312-.64-1.76-.384-.469-.992-.704-1.824-.704-.768 0-1.461.213-2.08.64-.619.427-1.109 1.013-1.472 1.76-.341.747-.512 1.611-.512 2.592V722h-2.976v-13.248h2.656Zm30.468 13.568a6.272 6.272 0 0 1-3.232-.864c-.981-.576-1.77-1.376-2.368-2.4-.576-1.045-.864-2.272-.864-3.68 0-1.451.31-2.709.928-3.776a6.912 6.912 0 0 1 2.528-2.496 7.025 7.025 0 0 1 3.488-.896c1.195 0 2.251.267 3.168.8a6.275 6.275 0 0 1 2.208 2.016l-.352.928v-3.392h2.976v19.808h-2.944v-9.76l.128 1.248c-.512.725-1.269 1.323-2.272 1.792-1.002.448-2.133.672-3.392.672Zm.992-2.368c.768 0 1.472-.149 2.112-.448a4.259 4.259 0 0 0 1.568-1.216 4.07 4.07 0 0 0 .832-1.824v-2.24a4.651 4.651 0 0 0-.864-1.792 4.184 4.184 0 0 0-1.536-1.248c-.618-.299-1.322-.448-2.112-.448-.789 0-1.525.203-2.208.608a4.532 4.532 0 0 0-1.632 1.664c-.405.704-.608 1.493-.608 2.368 0 .875.203 1.653.608 2.336.406.683.95 1.227 1.632 1.632a4.255 4.255 0 0 0 2.208.608Zm16.857 2.56c-1.195 0-2.187-.363-2.976-1.088-.768-.747-1.173-1.707-1.216-2.88v-9.792h2.976v8.736c.043.725.245 1.312.608 1.76.384.448.981.683 1.792.704.747 0 1.408-.213 1.984-.64.597-.448 1.077-1.045 1.44-1.792.363-.768.544-1.632.544-2.592v-6.176h2.976V722h-2.72l-.256-3.264.16.576a4.69 4.69 0 0 1-1.184 1.664 5.83 5.83 0 0 1-1.824 1.12 6.238 6.238 0 0 1-2.304.416Zm18.781-.192c-1.237 0-2.368-.267-3.392-.8-1.003-.533-1.803-1.312-2.4-2.336-.576-1.045-.864-2.315-.864-3.808 0-1.472.309-2.741.928-3.808.619-1.088 1.44-1.92 2.464-2.496a6.978 6.978 0 0 1 3.424-.864c1.237 0 2.283.288 3.136.864.853.555 1.504 1.216 1.952 1.984l-.192.512.288-2.816h2.752V722h-2.976v-3.456l.32.768c-.085.213-.277.491-.576.832-.277.32-.661.651-1.152.992a6.96 6.96 0 0 1-1.632.864c-.619.213-1.312.32-2.08.32Zm.8-2.464c.747 0 1.419-.139 2.016-.416a3.94 3.94 0 0 0 1.472-1.152c.405-.512.683-1.12.832-1.824v-2.592a3.942 3.942 0 0 0-.896-1.664 4.207 4.207 0 0 0-1.536-1.12 4.66 4.66 0 0 0-1.984-.416c-.789 0-1.515.192-2.176.576a4.422 4.422 0 0 0-1.6 1.6c-.384.683-.576 1.483-.576 2.4 0 .853.203 1.632.608 2.336a4.516 4.516 0 0 0 1.632 1.664 4.255 4.255 0 0 0 2.208.608Zm15.102-11.104.256 3.232-.128-.512c.427-.981 1.12-1.76 2.08-2.336.96-.597 2.069-.896 3.328-.896s2.283.373 3.072 1.12c.811.725 1.227 1.675 1.248 2.848V722h-3.008v-8.736c-.021-.725-.235-1.312-.64-1.76-.384-.469-.992-.704-1.824-.704-.768 0-1.461.213-2.08.64-.619.427-1.109 1.013-1.472 1.76-.341.747-.512 1.611-.512 2.592V722h-2.976v-13.248h2.656Zm16.311-5.824h2.976v5.888h3.648v2.336h-3.648V722h-2.976v-10.848h-2.432v-2.336h2.432v-5.888Zm14.412 19.584c-1.194 0-2.186-.363-2.976-1.088-.768-.747-1.173-1.707-1.216-2.88v-9.792h2.976v8.736c.043.725.246 1.312.608 1.76.384.448.982.683 1.792.704.747 0 1.408-.213 1.984-.64.598-.448 1.078-1.045 1.44-1.792.363-.768.544-1.632.544-2.592v-6.176h2.976V722h-2.72l-.256-3.264.16.576a4.677 4.677 0 0 1-1.184 1.664 5.83 5.83 0 0 1-1.824 1.12 6.238 6.238 0 0 1-2.304.416Zm15.933-13.76.256 2.976-.128-.256c.491-1.003 1.184-1.792 2.08-2.368.917-.576 1.963-.864 3.136-.864.747 0 1.408.117 1.984.352a3.45 3.45 0 0 1 1.408 1.024c.384.427.629.96.736 1.6l-.16.096c.512-.96 1.216-1.707 2.112-2.24.917-.555 1.877-.832 2.88-.832 1.301 0 2.325.373 3.072 1.12.768.725 1.163 1.675 1.184 2.848V722h-2.976v-8.736c-.021-.683-.192-1.248-.512-1.696-.299-.469-.832-.725-1.6-.768a3.36 3.36 0 0 0-2.08.704 4.819 4.819 0 0 0-1.408 1.824 5.84 5.84 0 0 0-.544 2.368V722h-2.976v-8.736c-.021-.683-.203-1.248-.544-1.696-.32-.469-.864-.725-1.632-.768-.789 0-1.483.235-2.08.704a4.819 4.819 0 0 0-1.408 1.824 6.03 6.03 0 0 0-.48 2.4V722h-2.976v-13.248h2.656Zm44.627 12.032c-.597.469-1.312.843-2.144 1.12a7.861 7.861 0 0 1-2.496.416c-1.45 0-2.72-.288-3.808-.864a6.46 6.46 0 0 1-2.56-2.4c-.597-1.045-.896-2.272-.896-3.68 0-1.408.32-2.635.96-3.68.662-1.045 1.515-1.845 2.56-2.4a7.098 7.098 0 0 1 3.424-.864c1.067 0 2.016.149 2.848.448.854.299 1.579.704 2.176 1.216l-1.472 1.92a6.247 6.247 0 0 0-1.408-.8c-.554-.235-1.184-.352-1.888-.352-.768 0-1.482.203-2.144.608a4.259 4.259 0 0 0-1.536 1.6c-.362.683-.544 1.451-.544 2.304 0 .811.192 1.568.576 2.272a4.35 4.35 0 0 0 1.6 1.632c.683.384 1.462.576 2.336.576.576 0 1.099-.085 1.568-.256a4.552 4.552 0 0 0 1.312-.704l1.536 1.888Zm2.69-5.536c0-1.323.309-2.517.928-3.584a6.95 6.95 0 0 1 2.624-2.528c1.109-.619 2.368-.928 3.776-.928 1.451 0 2.72.309 3.808.928a6.541 6.541 0 0 1 2.528 2.528c.597 1.067.896 2.261.896 3.584s-.299 2.528-.896 3.616c-.597 1.067-1.451 1.909-2.56 2.528-1.088.619-2.357.928-3.808.928-1.408 0-2.667-.288-3.776-.864a6.85 6.85 0 0 1-2.592-2.464c-.619-1.067-.928-2.315-.928-3.744Zm2.976.032c0 .853.192 1.632.576 2.336a4.512 4.512 0 0 0 1.536 1.632 4.088 4.088 0 0 0 2.176.608c.832 0 1.568-.203 2.208-.608a4.185 4.185 0 0 0 1.536-1.632c.363-.704.544-1.483.544-2.336 0-.853-.181-1.621-.544-2.304a4.132 4.132 0 0 0-1.536-1.664c-.64-.427-1.376-.64-2.208-.64-.811 0-1.547.213-2.208.64a4.715 4.715 0 0 0-1.536 1.696c-.363.683-.544 1.44-.544 2.272Zm18.27-6.528.256 2.976-.128-.256c.49-1.003 1.184-1.792 2.08-2.368.917-.576 1.962-.864 3.136-.864.746 0 1.408.117 1.984.352a3.45 3.45 0 0 1 1.408 1.024c.384.427.629.96.736 1.6l-.16.096c.512-.96 1.216-1.707 2.112-2.24.917-.555 1.877-.832 2.88-.832 1.301 0 2.325.373 3.072 1.12.768.725 1.162 1.675 1.184 2.848V722h-2.976v-8.736c-.022-.683-.192-1.248-.512-1.696-.299-.469-.832-.725-1.6-.768-.768 0-1.462.235-2.08.704-.598.469-1.067 1.077-1.408 1.824a5.825 5.825 0 0 0-.544 2.368V722h-2.976v-8.736c-.022-.683-.203-1.248-.544-1.696-.32-.469-.864-.725-1.632-.768-.79 0-1.483.235-2.08.704-.598.469-1.067 1.077-1.408 1.824a6.03 6.03 0 0 0-.48 2.4V722h-2.976v-13.248h2.656Zm31.558 13.568a6.44 6.44 0 0 1-2.912-.704c-.917-.469-1.632-1.099-2.144-1.888l.192-.928v9.568h-2.944V708.56h2.56l.416 3.392-.32-.928c.64-.811 1.451-1.483 2.432-2.016.981-.533 2.08-.8 3.296-.8 1.237 0 2.347.299 3.328.896 1.003.597 1.792 1.429 2.368 2.496.576 1.067.864 2.315.864 3.744 0 1.429-.309 2.667-.928 3.712a6.392 6.392 0 0 1-2.56 2.432c-1.067.555-2.283.832-3.648.832Zm-.576-2.368c.853 0 1.632-.192 2.336-.576a4.706 4.706 0 0 0 1.728-1.632c.427-.704.64-1.493.64-2.368 0-.896-.203-1.685-.608-2.368a4.516 4.516 0 0 0-1.632-1.664c-.661-.405-1.408-.608-2.24-.608-.768 0-1.461.149-2.08.448a4.184 4.184 0 0 0-1.536 1.248 4.68 4.68 0 0 0-.864 1.792v2.208c.107.683.363 1.291.768 1.824.405.533.907.949 1.504 1.248a4.5 4.5 0 0 0 1.984.448Zm15.929 2.56c-1.195 0-2.187-.363-2.976-1.088-.768-.747-1.174-1.707-1.216-2.88v-9.792h2.976v8.736c.042.725.245 1.312.608 1.76.384.448.981.683 1.792.704.746 0 1.408-.213 1.984-.64.597-.448 1.077-1.045 1.44-1.792.362-.768.544-1.632.544-2.592v-6.176h2.976V722h-2.72l-.256-3.264.16.576a4.69 4.69 0 0 1-1.184 1.664 5.83 5.83 0 0 1-1.824 1.12 6.238 6.238 0 0 1-2.304.416Zm14.556-19.584h2.976v5.888h3.648v2.336h-3.648V722h-2.976v-10.848h-2.432v-2.336h2.432v-5.888Zm10.22 5.824h2.976V722h-2.976v-13.248Zm-.224-4.8c0-.469.182-.864.544-1.184.384-.32.8-.48 1.248-.48.448 0 .843.16 1.184.48.363.32.544.715.544 1.184 0 .491-.181.896-.544 1.216a1.742 1.742 0 0 1-1.184.448c-.448 0-.864-.16-1.248-.48a1.52 1.52 0 0 1-.544-1.184Zm11.005 4.8.256 3.232-.128-.512c.427-.981 1.12-1.76 2.08-2.336.96-.597 2.07-.896 3.328-.896 1.259 0 2.283.373 3.072 1.12.811.725 1.227 1.675 1.248 2.848V722h-3.008v-8.736c-.021-.725-.234-1.312-.64-1.76-.384-.469-.992-.704-1.824-.704-.768 0-1.461.213-2.08.64-.618.427-1.109 1.013-1.472 1.76-.341.747-.512 1.611-.512 2.592V722h-2.976v-13.248h2.656Zm21.4 19.808c-.981 0-1.845-.117-2.592-.352a7.442 7.442 0 0 1-2.048-.928 14.823 14.823 0 0 1-1.728-1.376l1.728-2.016c.704.661 1.419 1.173 2.144 1.536.725.363 1.536.544 2.432.544 1.003 0 1.845-.171 2.528-.512.704-.32 1.237-.779 1.6-1.376.363-.576.544-1.248.544-2.016l.032-3.584.256.576c-.384.917-1.077 1.696-2.08 2.336-1.003.619-2.219.928-3.648.928a6.374 6.374 0 0 1-3.36-.928 7.18 7.18 0 0 1-2.432-2.496c-.597-1.067-.896-2.261-.896-3.584 0-1.387.32-2.603.96-3.648a7.176 7.176 0 0 1 2.528-2.528 6.598 6.598 0 0 1 3.424-.928c1.173 0 2.24.245 3.2.736.981.469 1.696 1.077 2.144 1.824l-.16.544.32-2.56h2.72v13.344a5.992 5.992 0 0 1-.928 3.264c-.619.981-1.493 1.76-2.624 2.336-1.131.576-2.485.864-4.064.864Zm-4.544-13.312c0 .853.203 1.632.608 2.336a4.516 4.516 0 0 0 1.632 1.664 4.602 4.602 0 0 0 2.336.608c.789 0 1.493-.139 2.112-.416a4.75 4.75 0 0 0 1.6-1.184 4.452 4.452 0 0 0 .896-1.76v-2.624a4.062 4.062 0 0 0-.96-1.664 4.43 4.43 0 0 0-1.6-1.12 4.955 4.955 0 0 0-2.048-.416c-.853 0-1.632.192-2.336.576a4.278 4.278 0 0 0-1.632 1.632c-.405.683-.608 1.472-.608 2.368Zm28.546 13.12 8.736-19.616h2.752l-8.544 19.616h-2.944Zm3.264-6.272-6.368-13.344h3.36l5.344 11.84-2.336 1.504Zm9.87-6.848c0-1.323.309-2.517.928-3.584a6.95 6.95 0 0 1 2.624-2.528c1.109-.619 2.368-.928 3.776-.928 1.451 0 2.72.309 3.808.928a6.541 6.541 0 0 1 2.528 2.528c.597 1.067.896 2.261.896 3.584s-.299 2.528-.896 3.616c-.597 1.067-1.451 1.909-2.56 2.528-1.088.619-2.357.928-3.808.928-1.408 0-2.667-.288-3.776-.864a6.85 6.85 0 0 1-2.592-2.464c-.619-1.067-.928-2.315-.928-3.744Zm2.976.032c0 .853.192 1.632.576 2.336a4.512 4.512 0 0 0 1.536 1.632 4.088 4.088 0 0 0 2.176.608c.832 0 1.568-.203 2.208-.608a4.185 4.185 0 0 0 1.536-1.632c.363-.704.544-1.483.544-2.336 0-.853-.181-1.621-.544-2.304a4.132 4.132 0 0 0-1.536-1.664c-.64-.427-1.376-.64-2.208-.64-.811 0-1.547.213-2.208.64a4.715 4.715 0 0 0-1.536 1.696c-.363.683-.544 1.44-.544 2.272Zm19.806 7.232c-1.195 0-2.187-.363-2.976-1.088-.768-.747-1.174-1.707-1.216-2.88v-9.792h2.976v8.736c.042.725.245 1.312.608 1.76.384.448.981.683 1.792.704.746 0 1.408-.213 1.984-.64.597-.448 1.077-1.045 1.44-1.792.362-.768.544-1.632.544-2.592v-6.176h2.976V722h-2.72l-.256-3.264.16.576a4.69 4.69 0 0 1-1.184 1.664 5.83 5.83 0 0 1-1.824 1.12 6.238 6.238 0 0 1-2.304.416Zm15.932-13.76.288 3.84-.16-.512a5.49 5.49 0 0 1 1.472-2.048c.662-.576 1.344-1.013 2.048-1.312.726-.32 1.355-.48 1.888-.48l-.16 2.944c-1.002-.064-1.888.128-2.656.576a5.15 5.15 0 0 0-1.792 1.792 4.768 4.768 0 0 0-.64 2.4V722h-2.944v-13.248h2.656Zm-421.332 32 3.904 8.928-.576.064 3.648-8.992h2.912l-6.08 14.048-4.256-9.088-3.872 9.088-6.144-14.048h2.912l4.128 9.344-1.024-.192 2.944-6.848-1.056-2.304h2.56Zm18.149 13.568c-1.237 0-2.368-.267-3.392-.8-1.003-.533-1.803-1.312-2.4-2.336-.576-1.045-.864-2.315-.864-3.808 0-1.472.309-2.741.928-3.808.619-1.088 1.44-1.92 2.464-2.496a6.978 6.978 0 0 1 3.424-.864c1.237 0 2.283.288 3.136.864.853.555 1.504 1.216 1.952 1.984l-.192.512.288-2.816h2.752V754h-2.976v-3.456l.32.768c-.085.213-.277.491-.576.832-.277.32-.661.651-1.152.992a6.96 6.96 0 0 1-1.632.864c-.619.213-1.312.32-2.08.32Zm.8-2.464c.747 0 1.419-.139 2.016-.416a3.94 3.94 0 0 0 1.472-1.152c.405-.512.683-1.12.832-1.824v-2.592a3.942 3.942 0 0 0-.896-1.664 4.207 4.207 0 0 0-1.536-1.12 4.66 4.66 0 0 0-1.984-.416c-.789 0-1.515.192-2.176.576a4.422 4.422 0 0 0-1.6 1.6c-.384.683-.576 1.483-.576 2.4 0 .853.203 1.632.608 2.336a4.516 4.516 0 0 0 1.632 1.664 4.255 4.255 0 0 0 2.208.608Zm13.566 8.512 8.736-19.616h2.752l-8.544 19.616h-2.944Zm3.264-6.272-6.368-13.344h3.36l5.344 11.84-2.336 1.504Zm9.925-10.496c0-.469.17-.864.512-1.184.362-.341.746-.512 1.152-.512.405 0 .778.16 1.12.48.362.32.544.725.544 1.216 0 .512-.182.928-.544 1.248-.342.299-.715.448-1.12.448-.406 0-.79-.149-1.152-.448-.342-.32-.512-.736-.512-1.248Zm0 8.704c0-.469.17-.864.512-1.184.362-.341.746-.512 1.152-.512.405 0 .778.171 1.12.512.362.32.544.715.544 1.184 0 .512-.182.928-.544 1.248-.342.299-.715.448-1.12.448-.406 0-.79-.149-1.152-.448-.342-.32-.512-.736-.512-1.248Zm20.997 1.952c-.939 0-1.856-.16-2.752-.48-.875-.341-1.6-.843-2.176-1.504l1.248-1.728c.555.533 1.12.939 1.696 1.216a4.445 4.445 0 0 0 1.76.384 4.17 4.17 0 0 0 1.184-.16c.363-.107.651-.277.864-.512.235-.256.352-.597.352-1.024 0-.469-.16-.843-.48-1.12-.299-.277-.693-.501-1.184-.672a20.55 20.55 0 0 0-1.504-.48c-1.088-.363-1.92-.864-2.496-1.504-.576-.64-.864-1.419-.864-2.336 0-.704.171-1.355.512-1.952.363-.619.885-1.12 1.568-1.504.704-.384 1.568-.576 2.592-.576.917 0 1.739.117 2.464.352a5.953 5.953 0 0 1 2.048 1.088l-1.184 1.856a3.508 3.508 0 0 0-1.376-.896c-.533-.192-1.013-.299-1.44-.32a2.553 2.553 0 0 0-1.056.16c-.32.128-.587.309-.8.544-.213.235-.32.512-.32.832 0 .448.149.811.448 1.088.299.277.683.501 1.152.672.491.149.971.309 1.44.48a6.973 6.973 0 0 1 1.76.768c.512.32.917.715 1.216 1.184.32.469.48 1.056.48 1.76 0 .789-.192 1.525-.576 2.208-.363.661-.928 1.195-1.696 1.6-.747.384-1.707.576-2.88.576Zm9.319-13.504h2.976V754h-2.976v-13.248Zm-.224-4.8c0-.469.181-.864.544-1.184.384-.32.8-.48 1.248-.48.448 0 .843.16 1.184.48.363.32.544.715.544 1.184 0 .491-.181.896-.544 1.216a1.742 1.742 0 0 1-1.184.448c-.448 0-.864-.16-1.248-.48a1.517 1.517 0 0 1-.544-1.184Zm11.005 4.8.256 2.976-.128-.256c.491-1.003 1.184-1.792 2.08-2.368.917-.576 1.963-.864 3.136-.864.747 0 1.408.117 1.984.352a3.45 3.45 0 0 1 1.408 1.024c.384.427.629.96.736 1.6l-.16.096c.512-.96 1.216-1.707 2.112-2.24.917-.555 1.877-.832 2.88-.832 1.301 0 2.325.373 3.072 1.12.768.725 1.163 1.675 1.184 2.848V754h-2.976v-8.736c-.021-.683-.192-1.248-.512-1.696-.299-.469-.832-.725-1.6-.768a3.36 3.36 0 0 0-2.08.704 4.819 4.819 0 0 0-1.408 1.824 5.84 5.84 0 0 0-.544 2.368V754h-2.976v-8.736c-.021-.683-.203-1.248-.544-1.696-.32-.469-.864-.725-1.632-.768-.789 0-1.483.235-2.08.704a4.819 4.819 0 0 0-1.408 1.824 6.03 6.03 0 0 0-.48 2.4V754h-2.976v-13.248h2.656Zm31.558 13.568a6.444 6.444 0 0 1-2.912-.704c-.917-.469-1.632-1.099-2.144-1.888l.192-.928v9.568h-2.944V740.56h2.56l.416 3.392-.32-.928c.64-.811 1.451-1.483 2.432-2.016.982-.533 2.08-.8 3.296-.8 1.238 0 2.347.299 3.328.896 1.003.597 1.792 1.429 2.368 2.496.576 1.067.864 2.315.864 3.744 0 1.429-.309 2.667-.928 3.712a6.386 6.386 0 0 1-2.56 2.432c-1.066.555-2.282.832-3.648.832Zm-.576-2.368c.854 0 1.632-.192 2.336-.576a4.69 4.69 0 0 0 1.728-1.632c.427-.704.64-1.493.64-2.368 0-.896-.202-1.685-.608-2.368a4.516 4.516 0 0 0-1.632-1.664c-.661-.405-1.408-.608-2.24-.608-.768 0-1.461.149-2.08.448a4.2 4.2 0 0 0-1.536 1.248 4.68 4.68 0 0 0-.864 1.792v2.208c.107.683.363 1.291.768 1.824.406.533.907.949 1.504 1.248a4.5 4.5 0 0 0 1.984.448Zm11.737-22.72h2.976V754h-2.976v-24.768Zm14.269 25.088c-1.515 0-2.816-.299-3.904-.896-1.088-.619-1.931-1.451-2.528-2.496-.576-1.067-.864-2.283-.864-3.648 0-1.301.331-2.485.992-3.552a7.451 7.451 0 0 1 2.656-2.56c1.109-.64 2.347-.96 3.712-.96 1.749 0 3.2.512 4.352 1.536 1.152 1.024 1.931 2.432 2.336 4.224l-10.912 3.84-.704-1.76 8.96-3.264-.64.416a4.323 4.323 0 0 0-1.28-1.824c-.597-.533-1.376-.8-2.336-.8-.811 0-1.536.203-2.176.608a4.029 4.029 0 0 0-1.504 1.6c-.363.683-.544 1.461-.544 2.336 0 .917.192 1.728.576 2.432a4.425 4.425 0 0 0 1.568 1.632c.683.384 1.451.576 2.304.576.576 0 1.131-.107 1.664-.32a6.655 6.655 0 0 0 1.536-.832l1.376 2.208a9.083 9.083 0 0 1-2.24 1.088 7.394 7.394 0 0 1-2.4.416Zm13.169-3.104a519.047 519.047 0 0 1-1.408 3.296 396.014 396.014 0 0 1-1.376 3.36h-2.4c.427-1.131.843-2.251 1.248-3.36a315.13 315.13 0 0 1 1.248-3.296h2.688ZM348.508 754v-10.592h-2.272v-2.656h2.272v-5.6c0-1.92.427-3.392 1.28-4.416.875-1.024 2.155-1.536 3.84-1.536.448 0 .939.064 1.472.192a3.848 3.848 0 0 1 1.44.64l-1.248 2.144a1.432 1.432 0 0 0-.64-.384 2.056 2.056 0 0 0-.704-.128c-.789 0-1.397.267-1.824.8-.427.533-.64 1.44-.64 2.72v5.568h4.192v2.656h-4.192V754h-2.976Zm13.693-13.248.288 3.84-.16-.512a5.48 5.48 0 0 1 1.472-2.048c.661-.576 1.344-1.013 2.048-1.312.725-.32 1.355-.48 1.888-.48l-.16 2.944c-1.003-.064-1.888.128-2.656.576a5.142 5.142 0 0 0-1.792 1.792 4.758 4.758 0 0 0-.64 2.4V754h-2.944v-13.248h2.656Zm14.957 13.568c-1.515 0-2.816-.299-3.904-.896-1.088-.619-1.931-1.451-2.528-2.496-.576-1.067-.864-2.283-.864-3.648 0-1.301.331-2.485.992-3.552a7.451 7.451 0 0 1 2.656-2.56c1.109-.64 2.347-.96 3.712-.96 1.749 0 3.2.512 4.352 1.536 1.152 1.024 1.931 2.432 2.336 4.224l-10.912 3.84-.704-1.76 8.96-3.264-.64.416a4.323 4.323 0 0 0-1.28-1.824c-.597-.533-1.376-.8-2.336-.8-.811 0-1.536.203-2.176.608a4.029 4.029 0 0 0-1.504 1.6c-.363.683-.544 1.461-.544 2.336 0 .917.192 1.728.576 2.432a4.425 4.425 0 0 0 1.568 1.632c.683.384 1.451.576 2.304.576.576 0 1.131-.107 1.664-.32a6.655 6.655 0 0 0 1.536-.832l1.376 2.208a9.083 9.083 0 0 1-2.24 1.088 7.394 7.394 0 0 1-2.4.416Zm16.625 0c-1.515 0-2.816-.299-3.904-.896-1.088-.619-1.931-1.451-2.528-2.496-.576-1.067-.864-2.283-.864-3.648 0-1.301.331-2.485.992-3.552a7.451 7.451 0 0 1 2.656-2.56c1.109-.64 2.347-.96 3.712-.96 1.749 0 3.2.512 4.352 1.536 1.152 1.024 1.931 2.432 2.336 4.224l-10.912 3.84-.704-1.76 8.96-3.264-.64.416a4.323 4.323 0 0 0-1.28-1.824c-.597-.533-1.376-.8-2.336-.8-.811 0-1.536.203-2.176.608a4.029 4.029 0 0 0-1.504 1.6c-.363.683-.544 1.461-.544 2.336 0 .917.192 1.728.576 2.432a4.425 4.425 0 0 0 1.568 1.632c.683.384 1.451.576 2.304.576.576 0 1.131-.107 1.664-.32a6.655 6.655 0 0 0 1.536-.832l1.376 2.208a9.083 9.083 0 0 1-2.24 1.088 7.394 7.394 0 0 1-2.4.416Zm13.169-3.104a519.047 519.047 0 0 1-1.408 3.296 396.014 396.014 0 0 1-1.376 3.36h-2.4c.427-1.131.843-2.251 1.248-3.36a315.13 315.13 0 0 1 1.248-3.296h2.688Zm19.441 3.104c-1.237 0-2.368-.267-3.392-.8-1.003-.533-1.803-1.312-2.4-2.336-.576-1.045-.864-2.315-.864-3.808 0-1.472.309-2.741.928-3.808.619-1.088 1.44-1.92 2.464-2.496a6.978 6.978 0 0 1 3.424-.864c1.237 0 2.283.288 3.136.864.853.555 1.504 1.216 1.952 1.984l-.192.512.288-2.816h2.752V754h-2.976v-3.456l.32.768c-.085.213-.277.491-.576.832-.277.32-.661.651-1.152.992a6.96 6.96 0 0 1-1.632.864c-.619.213-1.312.32-2.08.32Zm.8-2.464c.747 0 1.419-.139 2.016-.416a3.94 3.94 0 0 0 1.472-1.152c.405-.512.683-1.12.832-1.824v-2.592a3.942 3.942 0 0 0-.896-1.664 4.207 4.207 0 0 0-1.536-1.12 4.66 4.66 0 0 0-1.984-.416c-.789 0-1.515.192-2.176.576a4.422 4.422 0 0 0-1.6 1.6c-.384.683-.576 1.483-.576 2.4 0 .853.203 1.632.608 2.336a4.516 4.516 0 0 0 1.632 1.664 4.255 4.255 0 0 0 2.208.608Zm15.102-11.104.256 3.232-.128-.512c.427-.981 1.12-1.76 2.08-2.336.96-.597 2.069-.896 3.328-.896s2.283.373 3.072 1.12c.811.725 1.227 1.675 1.248 2.848V754h-3.008v-8.736c-.021-.725-.235-1.312-.64-1.76-.384-.469-.992-.704-1.824-.704-.768 0-1.461.213-2.08.64-.619.427-1.109 1.013-1.472 1.76-.341.747-.512 1.611-.512 2.592V754h-2.976v-13.248h2.656Zm20.407 13.568c-1.216 0-2.325-.288-3.328-.864-.981-.597-1.76-1.429-2.336-2.496-.576-1.088-.864-2.336-.864-3.744 0-1.472.299-2.731.896-3.776a6.285 6.285 0 0 1 2.496-2.4c1.046-.555 2.219-.832 3.52-.832a6.82 6.82 0 0 1 2.976.672c.96.448 1.707 1.067 2.24 1.856l-.128 1.056v-14.56h2.944V754h-2.976v-3.296l.32.832c-.618.811-1.418 1.483-2.4 2.016-.981.512-2.101.768-3.36.768Zm.928-2.528c.79 0 1.494-.139 2.112-.416a4.322 4.322 0 0 0 1.536-1.216c.406-.512.694-1.12.864-1.824v-2.496a3.772 3.772 0 0 0-.928-1.664 4.454 4.454 0 0 0-1.568-1.152c-.597-.299-1.269-.448-2.016-.448-.81 0-1.557.203-2.24.608a4.43 4.43 0 0 0-1.6 1.6c-.405.683-.608 1.472-.608 2.368 0 .875.203 1.664.608 2.368.406.683.95 1.237 1.632 1.664a4.255 4.255 0 0 0 2.208.608Zm28.294 2.528c-1.237 0-2.368-.267-3.392-.8-1.003-.533-1.803-1.312-2.4-2.336-.576-1.045-.864-2.315-.864-3.808 0-1.472.309-2.741.928-3.808.619-1.088 1.44-1.92 2.464-2.496a6.978 6.978 0 0 1 3.424-.864c1.237 0 2.283.288 3.136.864.853.555 1.504 1.216 1.952 1.984l-.192.512.288-2.816h2.752V754h-2.976v-3.456l.32.768c-.085.213-.277.491-.576.832-.277.32-.661.651-1.152.992a6.96 6.96 0 0 1-1.632.864c-.619.213-1.312.32-2.08.32Zm.8-2.464c.747 0 1.419-.139 2.016-.416a3.94 3.94 0 0 0 1.472-1.152c.405-.512.683-1.12.832-1.824v-2.592a3.942 3.942 0 0 0-.896-1.664 4.207 4.207 0 0 0-1.536-1.12 4.66 4.66 0 0 0-1.984-.416c-.789 0-1.515.192-2.176.576a4.422 4.422 0 0 0-1.6 1.6c-.384.683-.576 1.483-.576 2.4 0 .853.203 1.632.608 2.336a4.516 4.516 0 0 0 1.632 1.664 4.255 4.255 0 0 0 2.208.608Zm13.726-16.928h2.976v5.888h3.648v2.336h-3.648V754h-2.976v-10.848h-2.432v-2.336h2.432v-5.888Zm21.465 25.44 8.736-19.616h2.752l-8.544 19.616h-2.944Zm3.264-6.272-6.368-13.344h3.36l5.344 11.84-2.336 1.504Zm9.87-6.848c0-1.323.31-2.517.928-3.584a6.95 6.95 0 0 1 2.624-2.528c1.11-.619 2.368-.928 3.776-.928 1.451 0 2.72.309 3.808.928a6.541 6.541 0 0 1 2.528 2.528c.598 1.067.896 2.261.896 3.584s-.298 2.528-.896 3.616c-.597 1.067-1.45 1.909-2.56 2.528-1.088.619-2.357.928-3.808.928-1.408 0-2.666-.288-3.776-.864a6.85 6.85 0 0 1-2.592-2.464c-.618-1.067-.928-2.315-.928-3.744Zm2.976.032c0 .853.192 1.632.576 2.336a4.512 4.512 0 0 0 1.536 1.632 4.09 4.09 0 0 0 2.176.608c.832 0 1.568-.203 2.208-.608a4.17 4.17 0 0 0 1.536-1.632c.363-.704.544-1.483.544-2.336 0-.853-.181-1.621-.544-2.304a4.118 4.118 0 0 0-1.536-1.664c-.64-.427-1.376-.64-2.208-.64-.81 0-1.546.213-2.208.64a4.715 4.715 0 0 0-1.536 1.696 4.775 4.775 0 0 0-.544 2.272Zm19.806 7.232c-1.195 0-2.187-.363-2.976-1.088-.768-.747-1.173-1.707-1.216-2.88v-9.792h2.976v8.736c.043.725.245 1.312.608 1.76.384.448.981.683 1.792.704.747 0 1.408-.213 1.984-.64.597-.448 1.077-1.045 1.44-1.792.363-.768.544-1.632.544-2.592v-6.176h2.976V754h-2.72l-.256-3.264.16.576a4.69 4.69 0 0 1-1.184 1.664 5.83 5.83 0 0 1-1.824 1.12 6.238 6.238 0 0 1-2.304.416Zm15.933-13.76.288 3.84-.16-.512a5.48 5.48 0 0 1 1.472-2.048c.661-.576 1.344-1.013 2.048-1.312.725-.32 1.354-.48 1.888-.48l-.16 2.944c-1.003-.064-1.888.128-2.656.576a5.142 5.142 0 0 0-1.792 1.792 4.758 4.758 0 0 0-.64 2.4V754h-2.944v-13.248h2.656Zm-272.683 38.496c0-1.323.309-2.517.928-3.584a6.943 6.943 0 0 1 2.624-2.528c1.109-.619 2.368-.928 3.776-.928 1.45 0 2.72.309 3.808.928a6.548 6.548 0 0 1 2.528 2.528c.597 1.067.896 2.261.896 3.584s-.299 2.528-.896 3.616c-.598 1.067-1.451 1.909-2.56 2.528-1.088.619-2.358.928-3.808.928-1.408 0-2.667-.288-3.776-.864a6.85 6.85 0 0 1-2.592-2.464c-.619-1.067-.928-2.315-.928-3.744Zm2.976.032c0 .853.192 1.632.576 2.336a4.512 4.512 0 0 0 1.536 1.632 4.085 4.085 0 0 0 2.176.608c.832 0 1.568-.203 2.208-.608a4.185 4.185 0 0 0 1.536-1.632 5.034 5.034 0 0 0 .544-2.336c0-.853-.182-1.621-.544-2.304a4.132 4.132 0 0 0-1.536-1.664c-.64-.427-1.376-.64-2.208-.64-.811 0-1.547.213-2.208.64a4.715 4.715 0 0 0-1.536 1.696c-.363.683-.544 1.44-.544 2.272Zm23.687-6.528 3.904 8.928-.576.064 3.648-8.992h2.912l-6.08 14.048-4.256-9.088-3.872 9.088-6.144-14.048h2.912l4.128 9.344-1.024-.192 2.944-6.848-1.056-2.304h2.56Zm15.738 0 .256 3.232-.128-.512c.427-.981 1.12-1.76 2.08-2.336.96-.597 2.07-.896 3.328-.896 1.259 0 2.283.373 3.072 1.12.811.725 1.227 1.675 1.248 2.848V786h-3.008v-8.736c-.021-.725-.234-1.312-.64-1.76-.384-.469-.992-.704-1.824-.704-.768 0-1.461.213-2.08.64-.618.427-1.109 1.013-1.472 1.76-.341.747-.512 1.611-.512 2.592V786h-2.976v-13.248h2.656Zm32.965 13.568a6.44 6.44 0 0 1-2.912-.704c-.917-.469-1.632-1.099-2.144-1.888l.192-.928v9.568h-2.944V772.56h2.56l.416 3.392-.32-.928c.64-.811 1.451-1.483 2.432-2.016.981-.533 2.08-.8 3.296-.8 1.237 0 2.347.299 3.328.896 1.003.597 1.792 1.429 2.368 2.496.576 1.067.864 2.315.864 3.744 0 1.429-.309 2.667-.928 3.712a6.392 6.392 0 0 1-2.56 2.432c-1.067.555-2.283.832-3.648.832Zm-.576-2.368c.853 0 1.632-.192 2.336-.576a4.706 4.706 0 0 0 1.728-1.632c.427-.704.64-1.493.64-2.368 0-.896-.203-1.685-.608-2.368a4.516 4.516 0 0 0-1.632-1.664c-.661-.405-1.408-.608-2.24-.608-.768 0-1.461.149-2.08.448a4.184 4.184 0 0 0-1.536 1.248 4.68 4.68 0 0 0-.864 1.792v2.208c.107.683.363 1.291.768 1.824.405.533.907.949 1.504 1.248a4.5 4.5 0 0 0 1.984.448Zm17.241 2.368c-1.238 0-2.368-.267-3.392-.8-1.003-.533-1.803-1.312-2.4-2.336-.576-1.045-.864-2.315-.864-3.808 0-1.472.309-2.741.928-3.808.618-1.088 1.44-1.92 2.464-2.496a6.976 6.976 0 0 1 3.424-.864c1.237 0 2.282.288 3.136.864.853.555 1.504 1.216 1.952 1.984l-.192.512.288-2.816h2.752V786h-2.976v-3.456l.32.768c-.086.213-.278.491-.576.832-.278.32-.662.651-1.152.992a7 7 0 0 1-1.632.864c-.619.213-1.312.32-2.08.32Zm.8-2.464c.746 0 1.418-.139 2.016-.416a3.94 3.94 0 0 0 1.472-1.152c.405-.512.682-1.12.832-1.824v-2.592a3.953 3.953 0 0 0-.896-1.664 4.207 4.207 0 0 0-1.536-1.12 4.662 4.662 0 0 0-1.984-.416c-.79 0-1.515.192-2.176.576a4.414 4.414 0 0 0-1.6 1.6c-.384.683-.576 1.483-.576 2.4 0 .853.202 1.632.608 2.336a4.516 4.516 0 0 0 1.632 1.664 4.25 4.25 0 0 0 2.208.608Zm23.198.928c-.598.469-1.312.843-2.144 1.12a7.861 7.861 0 0 1-2.496.416c-1.451 0-2.72-.288-3.808-.864a6.453 6.453 0 0 1-2.56-2.4c-.598-1.045-.896-2.272-.896-3.68 0-1.408.32-2.635.96-3.68.661-1.045 1.514-1.845 2.56-2.4a7.095 7.095 0 0 1 3.424-.864c1.066 0 2.016.149 2.848.448.853.299 1.578.704 2.176 1.216l-1.472 1.92a6.269 6.269 0 0 0-1.408-.8c-.555-.235-1.184-.352-1.888-.352-.768 0-1.483.203-2.144.608a4.259 4.259 0 0 0-1.536 1.6c-.363.683-.544 1.451-.544 2.304 0 .811.192 1.568.576 2.272a4.343 4.343 0 0 0 1.6 1.632c.682.384 1.461.576 2.336.576.576 0 1.098-.085 1.568-.256.49-.171.928-.405 1.312-.704l1.536 1.888Zm9.985 1.536c-1.514 0-2.816-.299-3.904-.896-1.088-.619-1.93-1.451-2.528-2.496-.576-1.067-.864-2.283-.864-3.648 0-1.301.331-2.485.992-3.552a7.46 7.46 0 0 1 2.656-2.56c1.11-.64 2.347-.96 3.712-.96 1.75 0 3.2.512 4.352 1.536 1.152 1.024 1.931 2.432 2.336 4.224l-10.912 3.84-.704-1.76 8.96-3.264-.64.416a4.314 4.314 0 0 0-1.28-1.824c-.597-.533-1.376-.8-2.336-.8-.81 0-1.536.203-2.176.608a4.029 4.029 0 0 0-1.504 1.6c-.362.683-.544 1.461-.544 2.336 0 .917.192 1.728.576 2.432a4.425 4.425 0 0 0 1.568 1.632c.683.384 1.451.576 2.304.576.576 0 1.131-.107 1.664-.32a6.655 6.655 0 0 0 1.536-.832l1.376 2.208a9.083 9.083 0 0 1-2.24 1.088c-.81.277-1.61.416-2.4.416Zm8.977-2.016c0-.469.171-.864.512-1.184.363-.341.758-.512 1.184-.512.384 0 .747.171 1.088.512.363.32.544.715.544 1.184 0 .512-.181.928-.544 1.248-.341.299-.704.448-1.088.448-.426 0-.821-.149-1.184-.448-.341-.32-.512-.736-.512-1.248Z"/>     <path fill="#882AA8" d="m416 298.775.895-2.99 13.689 4.094-.894 2.99-13.69-4.094Zm14.714-6.927 3.238.968-5.743 19.204-3.237-.968 5.742-19.204Zm-12.894-3.856 3.238.968-5.743 19.204-3.237-.968 5.742-19.204Z"/>     <path fill="#882AA8" d="m402.673 311.856 30.292 9.058 10.426-34.864-30.292-9.058-10.426 34.864Zm32.782 13.227-.011.029a.296.296 0 0 1-.331.179l-.03-.007-36.579-10.939-.028-.01a.297.297 0 0 1-.179-.331l.007-.03 12.306-41.151a.298.298 0 0 1 .341-.208l.03.008 36.579 10.938.029.01c.14.058.216.213.171.361l-12.305 41.151Z"/>     <g filter="url(#b)">       <path fill="url(#c)" fill-opacity="0.8" d="M371.459 402.062c0-16.099 13.051-29.15 29.15-29.15 16.098 0 29.149 13.051 29.149 29.15 0 16.098-13.051 29.149-29.149 29.149-16.099 0-29.15-13.051-29.15-29.149Z"/>     </g>     <path fill="url(#d)" d="M373.291 402.085c0-15.226 12.343-27.57 27.569-27.57 15.226 0 27.57 12.344 27.57 27.57s-12.344 27.569-27.57 27.569-27.569-12.343-27.569-27.569Z"/>     <path fill="#94BD1C" fill-rule="evenodd" d="M409.852 428.151c-1.94 14.551-5.468 24.298-9.483 24.29-6.06-.011-10.932-22.246-10.883-49.663.05-27.418 5.003-49.636 11.063-49.625 3.875.007 7.265 9.103 9.193 22.832-.37-.126-.743-.245-1.119-.355-1.835-10.921-4.767-17.983-8.083-17.989-5.612-.01-10.198 20.199-10.243 45.138-.045 24.939 4.468 45.165 10.08 45.175 3.465.006 6.538-7.694 8.394-19.455a28.35 28.35 0 0 0 1.081-.348Z" clip-rule="evenodd"/>     <path fill="url(#e)" d="M403.752 353.393a4.163 4.163 0 0 1-5.649 6.113 4.162 4.162 0 1 1 5.649-6.113Z"/>     <path fill="#94BD1C" fill-rule="evenodd" d="M394.687 410.466c-23.618-13.926-40.269-29.447-37.19-34.668 2.076-3.521 12.597-1.456 26.475 4.535-.3.233-.595.472-.885.718-11.423-4.624-19.928-6.021-21.725-2.973-2.85 4.834 12.254 19.022 33.737 31.689 21.483 12.667 41.209 19.016 44.06 14.182 1.68-2.85-2.88-8.951-11.308-16.074.083-.39.157-.783.224-1.178 10.822 8.648 16.917 16.194 14.949 19.532-3.078 5.22-24.719-1.838-48.337-15.763Z" clip-rule="evenodd"/>     <path fill="url(#f)" d="M441.03 428.345a4.161 4.161 0 1 1-2.412-7.965 4.161 4.161 0 0 1 2.412 7.965Z"/>     <path fill="#94BD1C" fill-rule="evenodd" d="M419.875 382.134c13.682-5.237 23.906-6.79 25.816-3.265 2.888 5.328-14.311 20.238-38.416 33.303-24.105 13.066-45.986 19.338-48.874 14.01-1.832-3.38 4.421-10.617 15.393-18.793.074.384.157.765.248 1.144-8.563 6.754-13.261 12.622-11.696 15.51 2.674 4.934 22.617-.7 44.542-12.584 21.926-11.884 37.532-25.518 34.858-30.452-1.65-3.043-9.87-2.065-21.072 1.92-.261-.27-.527-.534-.799-.793Z" clip-rule="evenodd"/>     <path fill="url(#g)" d="M357.957 423.581a4.162 4.162 0 1 1 8.07 2.04 4.162 4.162 0 0 1-8.07-2.04Z"/>     <g filter="url(#h)" overflow="visible">       <path stroke="url(#i)" stroke-dasharray="2 2" stroke-opacity="0.8" stroke-width="3" filterUnits="userSpaceOnUse" d="M268.132 335.926a40.317 40.317 0 0 1-.489-1.959l9.758-2.181a30.751 30.751 0 0 1-.298-1.504l-9.851 1.704a41.622 41.622 0 0 1-.297-1.998l9.922-1.233a31.472 31.472 0 0 1-.155-1.543l-9.967.766a42.326 42.326 0 0 1-.109-2.018l9.993-.303c-.016-.519-.02-1.04-.012-1.562l-9.996-.153c.01-.673.035-1.346.076-2.019l9.981.608c.031-.52.075-1.041.13-1.56l-9.942-1.061a43.68 43.68 0 0 1 .258-2.003l.001-.001 9.884 1.513c.079-.515.17-1.028.273-1.538l-9.805-1.963c.133-.66.281-1.317.443-1.971l9.703 2.413c.125-.503.261-1.003.409-1.499L268.463 312c.193-.645.401-1.286.624-1.922l9.433 3.313c.17-.485.352-.966.545-1.44l-9.263-3.762c.254-.623.523-1.241.806-1.851l9.067 4.21c.214-.461.439-.916.674-1.363l-8.845-4.657c.314-.596.642-1.184.986-1.764l8.597 5.103c.256-.431.522-.854.799-1.269l-.29-.192c.217-.169.43-.337.643-.501l-1.645-2.127 2.15 1.602c.148-.198.299-.395.452-.589l-4.653-3.667-2.42-3.13c.524-.405 1.04-.797 1.549-1.178l5.995 8.001c.486-.364.96-.713 1.424-1.048l-5.854-8.106a99.127 99.127 0 0 1 1.592-1.127l5.686 8.227c.485-.336.957-.655 1.417-.956l-5.482-8.361a70.953 70.953 0 0 1 1.646-1.047l5.239 8.516c.476-.293.936-.565 1.381-.818l-4.943-8.691c.579-.329 1.149-.64 1.71-.929l4.584 8.886c.459-.236.897-.449 1.316-.639l-4.141-9.101a33.254 33.254 0 0 1 1.8-.756l3.602 9.324a18.43 18.43 0 0 1 1.189-.414l-2.95-9.552a24.2 24.2 0 0 1 1.88-.502l2.176 9.759c.363-.081.705-.14 1.029-.182l-1.282-9.914a19.755 19.755 0 0 1 1.942-.155l.301 9.991c.313-.009.623-.002.932.02l.713-9.971c.647.046 1.291.125 1.935.236l-1.699 9.851c.32.055.655.129 1.007.224l2.597-9.654a23.57 23.57 0 0 1 1.857.581l-3.369 9.414c.369.132.758.286 1.169.466l4.014-9.156c.582.255 1.168.533 1.761.835l-4.538 8.909c.413.21.844.443 1.295.7l4.955-8.684c.552.315 1.109.648 1.675 1.001l-5.292 8.483c.443.276.901.572 1.374.888l5.555-8.312c.529.353 1.065.721 1.609 1.105l-5.768 8.167c.458.324.929.664 1.412 1.021l5.936-8.046c.512.378 1.032.769 1.559 1.171l-6.069 7.946c.467.357.946.728 1.435 1.112l6.174-7.862c.501.394 1.01.798 1.527 1.212l-6.258 7.795.733.591.648.535 6.44-7.647c.521.439 1.024.881 1.51 1.325l-6.734 7.388c.394.359.77.717 1.13 1.073l7.036-7.101c.488.483.956.969 1.405 1.457l-7.355 6.771c.346.375.673.748.982 1.118l7.673-6.409c.441.528.86 1.057 1.258 1.589l-8.002 5.993c.293.39.566.777.821 1.159l8.322-5.54c.379.57.734 1.142 1.067 1.715l-8.641 5.026c.233.401.447.798.643 1.191l8.942-4.47c.304.607.584 1.215.839 1.823l-9.225 3.858c.171.408.324.813.46 1.213l9.471-3.202c.215.636.403 1.272.567 1.908l-9.676 2.508c.107.413.197.823.27 1.23l9.84-1.778c.119.659.21 1.317.278 1.973l-9.943 1.032c.043.415.069.828.081 1.241l9.996-.276a26.65 26.65 0 0 1-.023 2l-9.985-.476c-.02.418-.056.837-.107 1.257l9.926 1.209a27.976 27.976 0 0 1-.315 1.975l-9.812-1.918c-.082.423-.181.848-.295 1.273l9.655 2.593a29.908 29.908 0 0 1-.583 1.914l-9.462-3.232c-.144.424-.305.848-.48 1.271l9.236 3.83a33.375 33.375 0 0 1-.822 1.824l-8.985-4.387a25.15 25.15 0 0 1-.659 1.254l8.713 4.905c-.326.578-.668 1.15-1.028 1.713l-8.425-5.385c-.261.408-.535.812-.823 1.213l8.123 5.83a38.938 38.938 0 0 1-1.206 1.593l-7.812-6.243c-.309.388-.632.772-.966 1.15l7.491 6.623a40.93 40.93 0 0 1-1.363 1.467l-7.161-6.978c-.353.362-.717.719-1.091 1.068l6.824 7.309c-.487.454-.985.898-1.495 1.331l-6.478-7.616a34.33 34.33 0 0 1-1.199.972l6.125 7.906v.001c-.526.408-1.064.802-1.609 1.187l-5.761-8.172c-.423.298-.852.587-1.288.866l5.388 8.423c-.561.359-1.132.706-1.709 1.04l-5.004-8.658c-.448.259-.9.507-1.357.745l4.606 8.874c-.592.307-1.191.602-1.795.882l-4.196-9.077c-.466.215-.936.419-1.408.611l3.769 9.262c-.619.251-1.242.488-1.87.71l-3.323-9.431c-.479.168-.959.325-1.439.468l2.858 9.582c-.64.191-1.283.365-1.93.523l-2.373-9.713c-.483.118-.965.223-1.446.314l1.865 9.824c-.657.125-1.315.23-1.975.319l-1.333-9.91c-.48.065-.957.116-1.431.153l.777 9.97c-.667.052-1.334.084-2 .097l-.196-9.997c-.469.009-.935.004-1.395-.015l-.408 9.992a31.652 31.652 0 0 1-1.994-.146l1.03-9.945a20.863 20.863 0 0 1-1.34-.182l-1.672 9.859v.001a29.35 29.35 0 0 1-1.96-.403l2.324-9.724a18.957 18.957 0 0 1-1.272-.35l-2.979 9.546a28.29 28.29 0 0 1-1.885-.662l3.632-9.315c-.404-.158-.805-.33-1.2-.517l-4.274 9.039a28.756 28.756 0 0 1-1.769-.913l4.889-8.722a18.895 18.895 0 0 1-1.124-.681l-5.478 8.362a29.195 29.195 0 0 1-1.631-1.148l6.03-7.976-.535-.418a19.655 19.655 0 0 1-.52-.436l-6.549 7.558a31.098 31.098 0 0 1-1.481-1.374l7.031-7.109a21.708 21.708 0 0 1-.944-.996l-7.474 6.639a31.79 31.79 0 0 1-1.293-1.551l7.879-6.154a23.245 23.245 0 0 1-.83-1.134l-8.244 5.659a34.266 34.266 0 0 1-1.092-1.698l8.567-5.157a24.216 24.216 0 0 1-.707-1.256l-8.85 4.651a36.629 36.629 0 0 1-.888-1.813l9.097-4.148a27.048 27.048 0 0 1-.576-1.36l-9.308 3.649a37.674 37.674 0 0 1-.688-1.9l9.488-3.152a30.536 30.536 0 0 1-.438-1.443l-9.638 2.663Zm5.433-34.871c.372-.56.759-1.111 1.162-1.651l2.992 2.231 3.589 4.579-7.743-5.159Z"/>     </g>     <path fill="#241E74" d="M277.584 351.371c-15.254-12.782-17.258-35.509-4.476-50.764 12.782-15.254 35.51-17.258 50.764-4.476 15.254 12.782 17.258 35.51 4.476 50.764-12.782 15.254-35.51 17.258-50.764 4.476Z"/>     <path fill="#627D3E" fill-rule="evenodd" d="m277.142 350.814.637-.338c.078.148.173.264.28.354.108.091.239.163.399.215l-.222.686a1.895 1.895 0 0 1-.639-.348 1.887 1.887 0 0 1-.455-.569Zm2.546.995-.099-.713c.376-.052.806-.16 1.288-.327l.236.68c-.515.18-.992.301-1.425.36Zm2.78-.921-.308-.651c.397-.189.815-.406 1.252-.651l.353.628c-.45.253-.883.478-1.297.674Zm2.562-1.428-.384-.61a36.43 36.43 0 0 0 1.2-.788l.407.595c-.418.286-.826.554-1.223.803Zm2.423-1.651-.425-.583c.38-.277.768-.568 1.163-.872l.439.572c-.399.307-.792.602-1.177.883Zm2.329-1.791-.452-.561c.369-.297.743-.604 1.122-.922l.463.553c-.383.32-.76.63-1.133.93Zm2.249-1.882-.472-.544c.361-.313.725-.634 1.093-.963l.481.537c-.371.331-.738.655-1.102.97Zm2.189-1.957-.489-.53c.353-.325.709-.656 1.067-.995l.495.524c-.36.34-.718.674-1.073 1.001Zm2.134-2.017-.502-.517c.346-.335.694-.676 1.043-1.023l.508.512c-.352.348-.701.691-1.049 1.028Zm2.085-2.068-.513-.506c.338-.343.678-.691 1.019-1.044l.518.501c-.342.355-.684.704-1.024 1.049Zm2.037-2.11-.523-.495c.331-.351.664-.706.998-1.066l.528.491c-.335.361-.669.718-1.003 1.07Zm1.996-2.152-.533-.485c.326-.358.652-.72.979-1.086l.538.48c-.329.368-.656.732-.984 1.091Zm1.957-2.192c.321-.365.641-.734.962-1.106l-.547-.47c-.319.37-.638.738-.957 1.101l.542.475Zm1.914-2.222-.551-.465.473-.562c.157-.187.314-.375.469-.563l.555.461-.472.565-.474.564Zm1.878-2.262-.559-.455c.31-.379.615-.758.918-1.135l.562.45c-.303.379-.611.76-.921 1.14Zm1.835-2.291-.567-.445c.303-.386.603-.771.898-1.154l.571.44c-.297.385-.598.771-.902 1.159Zm1.793-2.326-.575-.435c.295-.391.587-.781.874-1.169l.58.429c-.289.39-.582.781-.879 1.175Zm1.745-2.358-.583-.423c.288-.398.571-.793.849-1.186l.588.417c-.28.395-.564.792-.854 1.192Zm1.696-2.394-.592-.41c.28-.405.555-.807.824-1.206l.597.403c-.27.401-.547.806-.829 1.213Zm1.644-2.435-.603-.396c.271-.412.535-.82.794-1.224l.607.388c-.26.407-.526.817-.798 1.232Zm1.579-2.475-.613-.379c.26-.42.512-.835.757-1.245l.619.37c-.247.413-.501.831-.763 1.254Zm1.504-2.52-.625-.359c.246-.429.484-.851.711-1.266l.632.347c-.23.419-.469.845-.718 1.278Zm1.41-2.571-.639-.333c.23-.442.448-.875.655-1.297l.647.316c-.209.429-.43.867-.663 1.314Zm1.289-2.644-.657-.296c.204-.454.393-.894.566-1.319l.667.271c-.176.434-.368.883-.576 1.344Zm1.098-2.721-.681-.238c.165-.473.306-.923.422-1.347l.695.19c-.121.442-.266.907-.436 1.395Zm.752-2.827-.712-.114a6.85 6.85 0 0 0 .097-1.325l.72-.028c.017.437-.019.928-.105 1.467Zm-.227-2.882a1.887 1.887 0 0 0-.454-.569 1.891 1.891 0 0 0-.64-.348l-.221.686c.159.051.29.124.398.214.108.091.202.206.281.355l.636-.338Zm-2.546-.996.099.714a6.815 6.815 0 0 0-1.288.327l-.236-.681c.515-.179.992-.3 1.425-.36Zm-2.78.921.309.652c-.398.188-.816.405-1.253.651l-.353-.629c.45-.253.883-.477 1.297-.674Zm-2.562 1.428.384.61c-.389.245-.789.508-1.2.788l-.406-.595c.417-.285.825-.553 1.222-.803Zm-2.422 1.652.424.582c-.38.277-.768.568-1.162.872l-.44-.571c.4-.308.792-.602 1.178-.883Zm-2.33 1.79.452.561c-.369.297-.743.605-1.122.922l-.463-.552c.383-.321.761-.631 1.133-.931Zm-2.249 1.882.472.545c-.361.312-.725.633-1.093.963l-.48-.538c.37-.331.737-.655 1.101-.97Zm-2.188 1.957c-.356.327-.714.661-1.074 1.002l.495.523c.358-.338.714-.67 1.067-.995l-.488-.53Zm-2.135 2.017.502.518c-.346.335-.694.676-1.043 1.022l-.508-.511c.352-.349.701-.692 1.049-1.029Zm-2.085 2.068.513.506c-.338.343-.678.691-1.018 1.044l-.519-.5c.343-.355.684-.705 1.024-1.05Zm-2.037 2.11.524.495c-.332.351-.665.706-.999 1.066l-.528-.49c.335-.362.669-.719 1.003-1.071Zm-1.996 2.152.533.485c-.326.358-.652.72-.979 1.086l-.538-.48c.329-.367.657-.731.984-1.091Zm-1.957 2.192.542.475c-.319.364-.638.731-.957 1.102l-.547-.47c.321-.373.641-.742.962-1.107Zm-1.914 2.222.551.466a116.776 116.776 0 0 0-.942 1.124l-.555-.46.472-.566.474-.564Zm-1.878 2.262.559.456c-.309.379-.615.757-.918 1.135l-.562-.451c.304-.379.611-.759.921-1.14Zm-1.835 2.292.567.445c-.303.386-.602.77-.898 1.154l-.571-.44c.297-.385.598-.772.902-1.159Zm-1.792 2.326.575.434c-.296.392-.588.781-.875 1.169l-.579-.428c.288-.39.581-.782.879-1.175Zm-1.746 2.358.584.423c-.288.397-.572.792-.85 1.185l-.588-.417c.28-.395.565-.792.854-1.191Zm-1.696 2.394.592.41c-.28.405-.555.807-.824 1.205l-.597-.403c.271-.401.547-.805.829-1.212Zm-1.643 2.434a109.7 109.7 0 0 0-.799 1.233l.608.388c.258-.405.522-.813.793-1.225l-.602-.396Zm-1.58 2.476.613.379c-.26.419-.512.834-.757 1.244l-.618-.369c.246-.413.5-.832.762-1.254Zm-1.504 2.519.625.359a79.5 79.5 0 0 0-.711 1.266l-.632-.346c.23-.42.47-.846.718-1.279Zm-1.41 2.572.639.332c-.23.442-.448.875-.655 1.298l-.647-.317c.209-.428.43-.866.663-1.313Zm-1.288 2.643.657.297c-.205.453-.394.893-.567 1.319l-.667-.271c.176-.435.368-.883.577-1.345Zm-1.098 2.722.68.237c-.165.474-.306.923-.421 1.348l-.696-.19c.121-.442.267-.908.437-1.395Zm-.752 2.827.711.114a6.753 6.753 0 0 0-.096 1.324l-.721.028a7.545 7.545 0 0 1 .106-1.466Z" clip-rule="evenodd"/>     <path fill="#FF2BD8" fill-rule="evenodd" d="m276.529 308.877-2.852-7.818 8.197 1.44-2.21 2.637 22.096 18.515-.925 1.105-22.096-18.515-2.21 2.636Z" clip-rule="evenodd"/>     <g filter="url(#j)">       <path fill="#07C1FF" fill-opacity="0.7" fill-rule="evenodd" d="M274.765 301.996c-12.015 14.339-10.131 35.703 4.208 47.718s35.703 10.132 47.718-4.207c12.015-14.339 10.131-35.703-4.207-47.718-14.339-12.016-35.703-10.132-47.719 4.207Zm-1.657-1.389c-12.782 15.255-10.778 37.982 4.476 50.764 15.254 12.782 37.982 10.778 50.764-4.476 12.782-15.254 10.778-37.982-4.476-50.764-15.254-12.782-37.982-10.778-50.764 4.476Z" clip-rule="evenodd"/>     </g>     <path fill="#07C1FF" fill-rule="evenodd" d="M273.661 301.07c-12.527 14.949-10.563 37.223 4.386 49.749 14.949 12.526 37.222 10.563 49.749-4.386 12.526-14.95 10.562-37.223-4.387-49.749-14.949-12.527-37.222-10.563-49.748 4.386Zm-.553-.463c-12.782 15.255-10.778 37.982 4.476 50.764 15.254 12.782 37.982 10.778 50.764-4.476 12.782-15.254 10.778-37.982-4.476-50.764-15.254-12.782-37.982-10.778-50.764 4.476Z" clip-rule="evenodd"/>     <g filter="url(#k)">       <path fill="#172887" d="m190.409 583.866 31.471-63.317 291.863 3.934 29.785 59.383c1.049 5.545-2.435 6.369-4.871 6.369H398.348c-2.997.6-5.682 3.06-6.557 4.309-7.68 5.807-38.589 7.306-47.206.187-2.548-3.597-6.307-4.496-7.868-4.496H194.53c-4.12-.749-5.241-2.997-4.121-6.369Z"/>     </g>     <path fill="#344687" d="M352.819 591.933s-2.461.083-2.803-2.439c7.493-10.122 30.347-7.686 35.967 0 .062.941-.487 2.747-2.435 2.439-4.871-4.318-23.39-8.534-30.729 0Z"/>     <path fill="#5872C0" d="m213.082 548.088 16.86-28.922 277.996 4.77 13.862 25.651c-.449 11.239 9.179 24.914 12.177 34.281-36.529-5.433-116.706-10.116-147.99 5.432-5.995-8.692-29.973-9.554-36.155 0-15.548-12.363-98.347-14.611-149.488-5.432 3.184-7.119 12.738-26.039 12.738-35.78Z"/>     <path fill="#748ECB" d="M521.607 550.15c-37.466-5.057-92.728-8.43-139.373 21.731 35.218-28.475 86.921-36.905 134.503-31.473l4.87 9.742ZM213.073 548.46c37.466-2.809 94.04-4.683 140.31 24.971-29.598-27.78-85.797-35.461-133.753-36.21l-6.557 11.239Z"/>     <path fill="#748ECB" d="M216.445 519.053 261.404 440c55.262 7.68 95.913 22.479 109.4 56.386 21.356-42.711 99.472-44.584 108.464-46.27l38.964 73.245c-61.444 6.932-108.65 11.615-150.237 58.26-44.21-46.645-100.034-56.199-151.55-62.568Z"/>     <path fill="#5872C0" d="M365.374 485.459c2.6 3.325 3.691 5.236 5.432 8.818 2.652-4.105 4.281-6.127 7.494-9.132l1.498 84.485c-3.746 3.372-8.617 8.242-11.801 11.989-4.122-4.496-9.742-9.366-12.364-11.989l9.741-84.171Z"/>     <path fill="#4250AC" d="M370.834 494.512a.75.75 0 0 1 .724.774l-2.81 85.609a.749.749 0 0 1-1.498-.049l2.81-85.609a.75.75 0 0 1 .774-.725Z"/>     <path fill="#426EF2" d="M470.169 464.012a.749.749 0 0 1 0 1.49l-.077.004c-9.373 0-26.441 2.365-43.435 7.403-16.888 5.007-33.529 12.604-42.516 22.997l-.211.246a.75.75 0 0 1-1.142-.971l.218-.254c9.284-10.737 26.287-18.433 43.225-23.455 17.1-5.069 34.314-7.464 43.861-7.464l.077.004ZM475.144 473.904a.75.75 0 0 1 0 1.499c-9.376 0-27.29 2.366-45.13 7.405-8.915 2.519-17.79 5.699-25.557 9.572-7.653 3.817-14.189 8.286-18.637 13.423l-.21.245a.75.75 0 0 1-1.143-.97l.219-.255c4.629-5.345 11.358-9.921 19.102-13.784 7.875-3.927 16.843-7.137 25.818-9.673 17.94-5.068 35.993-7.462 45.538-7.462ZM480.662 484.211a.749.749 0 0 1 0 1.491l-.077.004c-9.37-.001-28.359 2.691-47.283 8.061-9.456 2.683-18.871 6.027-27.044 10.025-8.055 3.94-14.853 8.491-19.306 13.625l-.21.245a.75.75 0 0 1-1.142-.97l.219-.256c4.641-5.352 11.643-10.009 19.78-13.99 8.277-4.049 17.782-7.422 27.294-10.121 19.009-5.394 38.142-8.118 47.692-8.118l.077.004ZM485.119 494.322a.75.75 0 0 1 .077 1.489l-.076.008c-12.506.653-30.621 2.941-48.871 8.029-18.262 5.091-36.585 12.965-49.574 24.748a.75.75 0 0 1-1.007-1.11c13.237-12.008 31.817-19.963 50.178-25.082 18.373-5.122 36.6-7.423 49.196-8.081l.077-.001ZM490.888 505.938a.749.749 0 1 1 0 1.498c-9.377 0-28.37 2.375-48.579 7.865-20.219 5.493-41.536 14.074-55.644 26.418a.75.75 0 0 1-.987-1.127c14.365-12.571 35.947-21.225 56.238-26.737 20.3-5.516 39.429-7.918 48.972-7.917ZM269.327 454.799a.75.75 0 1 0-.108 1.495c9.347.674 26.944 4.447 44.279 10.884 17.231 6.398 34.012 15.359 42.236 26.369l.192.26a.75.75 0 1 0 1.209-.885l-.199-.27c-8.503-11.385-25.654-20.469-42.916-26.879-17.43-6.472-35.169-10.287-44.693-10.974ZM263.517 465.476a.75.75 0 0 0-.107 1.495c9.352.674 27.84 4.463 46.065 10.915 9.107 3.224 18.125 7.105 25.89 11.581 7.653 4.411 14.041 9.373 18.11 14.812l.192.26a.75.75 0 0 0 1.209-.886l-.2-.271c-4.242-5.67-10.826-10.754-18.562-15.213-7.868-4.535-16.976-8.452-26.139-11.696-18.315-6.484-36.938-10.311-46.458-10.997ZM258.65 476.903a.75.75 0 1 0-.108 1.495c9.348.673 29.004 4.819 48.403 11.631 9.693 3.404 19.297 7.465 27.502 12.077 8.088 4.546 14.759 9.596 18.833 15.031l.192.26a.748.748 0 1 0 1.209-.886l-.201-.271c-4.256-5.679-11.136-10.852-19.299-15.441-8.304-4.667-17.994-8.762-27.74-12.184-19.477-6.839-39.268-11.026-48.791-11.712ZM250.375 487.766a.75.75 0 0 0-.109 1.493l1.184.152c12.437 1.638 30.947 5.377 49.394 11.749 19.06 6.583 37.961 15.944 50.061 28.622a.75.75 0 0 0 1.084-1.035c-12.347-12.937-31.519-22.394-50.656-29.004-19.154-6.615-38.366-10.409-50.881-11.971l-.077-.006ZM244.409 500.507a.75.75 0 0 0-.108 1.495c9.36.675 29.461 4.412 50.549 11.343 21.103 6.937 43.057 17.031 56.231 30.348l.057.052a.75.75 0 0 0 1.009-1.106l-.317-.317c-13.465-13.422-35.522-23.5-56.512-30.4-21.173-6.96-41.397-10.729-50.909-11.415Z"/>     <path fill="#4250AC" d="M339.019 581.157c-55.465-19.192-92.396-17.16-128.087-12.617l-1.699.218-.075.014a.75.75 0 0 0 .191 1.478l.077-.006 1.692-.217c35.554-4.526 72.235-6.545 127.411 12.546a.75.75 0 0 0 .49-1.416Zm-40.466-5.097c-26.795-1.968-41.119-2.346-53.277-1.64-11.382.66-20.87 2.273-36.874 4.397l-3.29.432-.075.013a.75.75 0 0 0 .191 1.479l.076-.006 3.303-.433c16.057-2.131 25.44-3.729 36.757-4.386 12.054-.699 26.298-.328 53.079 1.639a.75.75 0 1 0 .11-1.495Zm43.306 1.924c-55.477-21.945-90.605-19.8-126.245-15.251l-1.698.218-.075.014a.748.748 0 0 0 .191 1.478l.077-.006 1.691-.217c35.492-4.53 70.345-6.664 125.508 15.157a.749.749 0 1 0 .551-1.393Zm4.457-2.832c-50.935-25.235-95.051-23.68-130.695-19.186l-1.705.218-.075.013a.75.75 0 0 0 .191 1.479l.077-.006 1.698-.217c35.507-4.477 79.284-6.007 129.845 19.043l1.215.606a.749.749 0 1 0 .673-1.339l-1.224-.611ZM451.021 555.596c25.403-2.681 50.643-1.222 68.546 1.601l.847.136.075.016a.75.75 0 0 1-.239 1.471l-.076-.008-.842-.135c-17.786-2.805-42.894-4.257-68.154-1.591-25.676 2.71-51.415 9.665-69.802 23.687l-.064.044a.751.751 0 0 1-.987-.185.751.751 0 0 1 .142-1.051l.439-.333c18.672-14.039 44.524-20.951 70.115-23.652Z"/>     <path fill="#4250AC" d="M384.623 580.732c50.256-24.793 100.551-20.49 136.266-15.972l3.438.441.075.013a.75.75 0 0 1-.191 1.479l-.077-.006-3.434-.44c-35.964-4.549-86.392-8.825-136.63 16.435l-.07.031a.75.75 0 0 1-.603-1.37l1.226-.611Z"/>     <path fill="#4250AC" d="M461.833 571.373a.75.75 0 0 1 .186 1.48l-.076.013c-7.651.958-30.303-.005-61.162 7.968a.75.75 0 0 1-.375-1.451c30.959-7.999 54.016-7.086 61.351-8.004l.076-.006ZM482.212 571.954c20.358.97 27.685 1.661 42.32 4.726l1.541.325.074.02a.75.75 0 0 1-.311 1.458l-.076-.012-1.53-.323c-14.528-3.043-21.769-3.729-42.093-4.697l-4.399-.205-.076-.007a.75.75 0 0 1 .145-1.49l4.405.205Z"/>     <path fill="#426EF2" d="M480.646 348.515c1.269.919-2.683 4.924-2.137 6.917.728 2.654 5.16 4.945 4.241 6.215-.919 1.27-4.348-2.403-6.916-2.136-2.221.231-4.946 5.16-6.216 4.241-1.269-.919 2.683-4.924 2.137-6.917-.728-2.654-5.16-4.945-4.241-6.215.919-1.27 4.168 2.275 6.916 2.136 2.064-.104 4.946-5.16 6.216-4.241ZM300.448 403.274c.984.712-1.303 3.816-.88 5.36.564 2.057 3.223 3.832 2.511 4.816-.712.984-3.369-1.087-5.359-.88-1.721.179-3.833 3.223-4.817 2.511-.983-.712 1.304-3.815.881-5.36-.564-2.056-3.224-3.832-2.511-4.816.712-.984 3.229.988 5.359.881 1.6-.081 3.833-3.224 4.816-2.512ZM356.913 246.932c.676.489-.894 2.618-.604 3.678.387 1.411 2.212 2.629 1.723 3.304-.488.675-2.312-.746-3.677-.604-1.181.123-2.629 2.212-3.305 1.723-.675-.489.895-2.618.605-3.677-.387-1.412-2.212-2.63-1.724-3.305.489-.675 2.217.678 3.678.604 1.097-.055 2.629-2.212 3.304-1.723Z"/>     <circle cx="375" cy="325" r="4" fill="#426EF2"/>     <defs>       <radialGradient id="c" cx="0" cy="0" r="1" gradientTransform="rotate(-20.556 1317.693 -863.13) scale(38.1124 45.4886)" gradientUnits="userSpaceOnUse">         <stop offset="0.03" stop-color="#BE11A4" stop-opacity="0.5"/>         <stop offset="0.636" stop-color="#5B1AB0" stop-opacity="0.736"/>         <stop offset="1" stop-color="#1E16A6"/>       </radialGradient>       <radialGradient id="d" cx="0" cy="0" r="1" gradientTransform="matrix(33.75177 -12.65688 15.1065 40.28408 387.954 407.433)" gradientUnits="userSpaceOnUse">         <stop offset="0.03" stop-color="#BE11A4" stop-opacity="0.5"/>         <stop offset="0.636" stop-color="#5B1AB0" stop-opacity="0.736"/>         <stop offset="1" stop-color="#1D159E"/>       </radialGradient>       <radialGradient id="e" cx="0" cy="0" r="1" gradientTransform="rotate(-56.31 534.118 -193.309) scale(5.53154)" gradientUnits="userSpaceOnUse">         <stop stop-color="#BF3FA3"/>         <stop offset="1" stop-color="#591D4C"/>       </radialGradient>       <radialGradient id="f" cx="0" cy="0" r="1" gradientTransform="rotate(-4.764 5334.11 -5064.103) scale(4.61847)" gradientUnits="userSpaceOnUse">         <stop stop-color="#BF3FA3"/>         <stop offset="1" stop-color="#591D4C"/>       </radialGradient>       <radialGradient id="g" cx="0" cy="0" r="1" gradientTransform="rotate(-55.008 588.94 -133.68) scale(4.68174)" gradientUnits="userSpaceOnUse">         <stop offset="0.123" stop-color="#BF3FA3"/>         <stop offset="1" stop-color="#591D4C"/>       </radialGradient>       <radialGradient id="i" cx="0" cy="0" r="1" gradientTransform="rotate(-141.569 219.443 110.067)" gradientUnits="userSpaceOnUse">         <stop offset="1" stop-color="#FFFB00" stop-opacity="0.5"/>       </radialGradient>       <filter id="a" width="431" height="492" x="149" y="184" color-interpolation-filters="sRGB" filterUnits="userSpaceOnUse">         <feFlood flood-opacity="0" result="BackgroundImageFix"/>         <feBlend in="SourceGraphic" in2="BackgroundImageFix" result="shape"/>         <feGaussianBlur result="effect1_foregroundBlur_438_2165" stdDeviation="50"/>         <feTurbulence baseFrequency="1.3333333730697632 1.3333333730697632" numOctaves="3" seed="1580" type="fractalNoise"/>         <feDisplacementMap width="100%" height="100%" in="effect1_foregroundBlur_438_2165" result="displacedImage" scale="2.6" xChannelSelector="R" yChannelSelector="G"/>         <feMerge result="effect2_texture_438_2165">           <feMergeNode in="displacedImage"/>         </feMerge>       </filter>       <filter id="b" width="70.097" height="70.099" x="365.561" y="367.012" color-interpolation-filters="sRGB" filterUnits="userSpaceOnUse">         <feFlood flood-opacity="0" result="BackgroundImageFix"/>         <feBlend in="SourceGraphic" in2="BackgroundImageFix" result="shape"/>         <feGaussianBlur result="effect1_foregroundBlur_438_2165" stdDeviation="2.95"/>       </filter>       <filter id="h" width="106.648" height="108.891" x="248.625" y="269.219" color-interpolation-filters="sRGB" filterUnits="userSpaceOnUse">         <feFlood flood-opacity="0" result="BackgroundImageFix"/>         <feBlend in="SourceGraphic" in2="BackgroundImageFix" result="shape"/>         <feGaussianBlur result="effect1_foregroundBlur_438_2165" stdDeviation="9"/>       </filter>       <filter id="j" width="96.67" height="96.672" x="252.395" y="275.415" color-interpolation-filters="sRGB" filterUnits="userSpaceOnUse">         <feFlood flood-opacity="0" result="BackgroundImageFix"/>         <feBlend in="SourceGraphic" in2="BackgroundImageFix" result="shape"/>         <feGaussianBlur result="effect1_foregroundBlur_438_2165" stdDeviation="6.15"/>       </filter>       <filter id="k" width="353.719" height="91.957" x="190" y="520.549" color-interpolation-filters="sRGB" filterUnits="userSpaceOnUse">         <feFlood flood-opacity="0" result="BackgroundImageFix"/>         <feColorMatrix in="SourceAlpha" result="hardAlpha" values="0 0 0 0 0 0 0 0 0 0 0 0 0 0 0 0 0 0 127 0"/>         <feOffset dy="13"/>         <feComposite in2="hardAlpha" operator="out"/>         <feColorMatrix values="0 0 0 0 0.166886 0 0 0 0 0.185821 0 0 0 0 0.545584 0 0 0 1 0"/>         <feBlend in2="BackgroundImageFix" result="effect1_dropShadow_438_2165"/>         <feColorMatrix in="SourceAlpha" result="hardAlpha" values="0 0 0 0 0 0 0 0 0 0 0 0 0 0 0 0 0 0 127 0"/>         <feOffset dy="5"/>         <feComposite in2="hardAlpha" operator="out"/>         <feColorMatrix values="0 0 0 0 0.0815775 0 0 0 0 0.0875676 0 0 0 0 0.440988 0 0 0 1 0"/>         <feBlend in2="effect1_dropShadow_438_2165" result="effect2_dropShadow_438_2165"/>         <feBlend in="SourceGraphic" in2="effect2_dropShadow_438_2165" result="shape"/>         <feColorMatrix in="SourceAlpha" result="hardAlpha" values="0 0 0 0 0 0 0 0 0 0 0 0 0 0 0 0 0 0 127 0"/>         <feOffset dy="-2"/>         <feComposite in2="hardAlpha" k2="-1" k3="1" operator="arithmetic"/>         <feColorMatrix values="0 0 0 0 0.250834 0 0 0 0 0.324163 0 0 0 0 0.739696 0 0 0 1 0"/>         <feBlend in2="shape" result="effect3_innerShadow_438_2165"/>       </filter>     </defs>   </svg>