<svg width="76" height="76" viewBox="0 0 76 76" fill="none" xmlns="http://www.w3.org/2000/svg">
<path d="M194.688 30.0982V35.7293H176.93V30.0982H194.688ZM181.314 22.6973H188.594V51.6976C188.594 52.6763 188.742 53.4271 189.037 53.95C189.345 54.4595 189.747 54.8081 190.243 54.9958C190.739 55.1835 191.289 55.2774 191.892 55.2774C192.348 55.2774 192.764 55.2439 193.139 55.1768C193.528 55.1098 193.823 55.0494 194.024 54.9958L195.251 60.6873C194.862 60.8213 194.306 60.9688 193.582 61.1297C192.871 61.2906 192 61.3845 190.967 61.4113C189.144 61.4649 187.501 61.1901 186.04 60.5867C184.579 59.97 183.419 59.018 182.561 57.7309C181.716 56.4438 181.301 54.8349 181.314 52.9043V22.6973Z" fill="#8CBAFF"/>
<path d="M152.061 42.8843V60.9844H144.781V30.0936H151.74V35.3426H152.102C152.812 33.6131 153.945 32.2388 155.501 31.2199C157.069 30.2009 159.007 29.6914 161.313 29.6914C163.444 29.6914 165.301 30.1473 166.883 31.059C168.479 31.9707 169.712 33.2913 170.584 35.0209C171.469 36.7504 171.905 38.8487 171.891 41.3157V60.9844H164.611V42.4419C164.611 40.3771 164.075 38.7615 163.002 37.5951C161.943 36.4286 160.475 35.8454 158.598 35.8454C157.324 35.8454 156.191 36.127 155.199 36.6901C154.22 37.2398 153.449 38.0375 152.886 39.0833C152.336 40.1291 152.061 41.3961 152.061 42.8843Z" fill="#8CBAFF"/>
<path d="M121.15 61.6078C119.192 61.6078 117.429 61.2592 115.86 60.5621C114.305 59.8515 113.072 58.8057 112.16 57.4247C111.262 56.0437 110.812 54.341 110.812 52.3165C110.812 50.5735 111.134 49.1322 111.778 47.9926C112.421 46.8529 113.3 45.9412 114.412 45.2575C115.525 44.5737 116.779 44.0575 118.173 43.7089C119.581 43.3469 121.036 43.0854 122.537 42.9246C124.347 42.7369 125.815 42.5693 126.942 42.4218C128.068 42.2609 128.886 42.0196 129.395 41.6978C129.918 41.3626 130.18 40.8464 130.18 40.1492V40.0285C130.18 38.5135 129.73 37.3404 128.832 36.5091C127.934 35.6778 126.64 35.2622 124.951 35.2622C123.167 35.2622 121.753 35.651 120.707 36.4286C119.675 37.2063 118.978 38.1247 118.616 39.1839L111.818 38.2185C112.354 36.3415 113.239 34.7728 114.473 33.5125C115.706 32.2388 117.215 31.2869 118.998 30.6567C120.781 30.0132 122.752 29.6914 124.91 29.6914C126.399 29.6914 127.88 29.8657 129.355 30.2143C130.83 30.5629 132.177 31.1394 133.397 31.9439C134.617 32.7349 135.596 33.8142 136.334 35.1818C137.084 36.5493 137.46 38.2588 137.46 40.3101V60.9844H130.461V56.7409H130.22C129.777 57.599 129.154 58.4035 128.349 59.1543C127.558 59.8917 126.56 60.4883 125.353 60.9442C124.16 61.3866 122.759 61.6078 121.15 61.6078ZM123.04 56.2583C124.502 56.2583 125.769 55.97 126.841 55.3935C127.914 54.8036 128.738 54.0259 129.315 53.0606C129.905 52.0952 130.2 51.0428 130.2 49.9031V46.263C129.972 46.4507 129.583 46.625 129.033 46.7859C128.497 46.9468 127.894 47.0876 127.223 47.2082C126.553 47.3289 125.889 47.4362 125.232 47.53C124.575 47.6239 124.005 47.7043 123.523 47.7713C122.437 47.9188 121.465 48.1602 120.607 48.4953C119.749 48.8305 119.071 49.2998 118.575 49.9031C118.079 50.4931 117.831 51.2573 117.831 52.1958C117.831 53.5366 118.321 54.5488 119.299 55.2326C120.278 55.9164 121.525 56.2583 123.04 56.2583Z" fill="#8CBAFF"/>
<path d="M97.4857 48.0005V30.1016H104.766V60.9923H97.7069V55.502H97.3852C96.688 57.2315 95.5416 58.646 93.9461 59.7454C92.3641 60.8448 90.4133 61.3946 88.0938 61.3946C86.0693 61.3946 84.2794 60.9454 82.7241 60.0471C81.1823 59.1354 79.9756 57.8148 79.1041 56.0852C78.2326 54.3422 77.7969 52.2373 77.7969 49.7703V30.1016H85.0771V48.6441C85.0771 50.6016 85.6134 52.1568 86.686 53.3099C87.7586 54.4629 89.1664 55.0394 90.9094 55.0394C91.982 55.0394 93.021 54.778 94.0266 54.2551C95.0322 53.7322 95.8567 52.9546 96.5003 51.9222C97.1572 50.8764 97.4857 49.5692 97.4857 48.0005Z" fill="#8CBAFF"/>
<path fill-rule="evenodd" clip-rule="evenodd" d="M34.8511 60.9895C49.2869 60.9895 60.9895 49.2869 60.9895 34.8511C60.9895 20.4153 49.2869 8.71278 34.8511 8.71278C20.4153 8.71278 8.71278 20.4153 8.71278 34.8511C8.71278 49.2869 20.4153 60.9895 34.8511 60.9895ZM34.8511 69.7022C54.0989 69.7022 69.7022 54.0989 69.7022 34.8511C69.7022 15.6034 54.0989 0 34.8511 0C15.6034 0 0 15.6034 0 34.8511C0 54.0989 15.6034 69.7022 34.8511 69.7022Z" fill="#8CBAFF"/>
<path d="M58.8195 56.6335L47.9285 63.1681L34.8594 34.8516L58.8195 56.6335Z" fill="#8CBAFF"/>
<path fill-rule="evenodd" clip-rule="evenodd" d="M58.8195 56.6335L34.8594 34.8516L47.9285 63.1681L58.8195 56.6335ZM51.5517 55.9139L47.8074 52.51L49.8497 56.935L51.5517 55.9139Z" fill="#8CBAFF"/>
<path d="M61.0276 63.2147L71.885 74.0594L54.4594 74.0594L52.8329 69.709L61.0276 63.2147Z" fill="#B3BE35"/>
</svg>
