<svg width="276" height="76" viewBox="0 0 276 76" fill="none" xmlns="http://www.w3.org/2000/svg">
<path d="M259.543 61.5334C257.116 61.5334 254.944 60.91 253.027 59.6631C251.11 58.4162 249.595 56.6062 248.482 54.2331C247.369 51.8599 246.812 48.9773 246.812 45.5853C246.812 42.153 247.376 39.2569 248.502 36.8972C249.641 34.5241 251.177 32.7342 253.107 31.5275C255.038 30.3075 257.19 29.6974 259.563 29.6974C261.373 29.6974 262.861 30.0058 264.028 30.6225C265.194 31.2259 266.119 31.9566 266.803 32.8147C267.487 33.6593 268.016 34.4571 268.392 35.2079H268.693V19.8027H275.994V60.9904H268.834V56.1235H268.392C268.016 56.8743 267.473 57.6721 266.763 58.5167C266.052 59.348 265.114 60.0586 263.947 60.6485C262.781 61.2385 261.313 61.5334 259.543 61.5334ZM261.574 55.5604C263.116 55.5604 264.43 55.1448 265.516 54.3135C266.602 53.4688 267.426 52.2957 267.99 50.7941C268.553 49.2924 268.834 47.5427 268.834 45.545C268.834 43.5473 268.553 41.8111 267.99 40.3362C267.44 38.8614 266.622 37.7151 265.536 36.8972C264.463 36.0794 263.143 35.6705 261.574 35.6705C259.952 35.6705 258.598 36.0928 257.512 36.9375C256.426 37.7821 255.608 38.9486 255.058 40.4368C254.508 41.925 254.234 43.6278 254.234 45.545C254.234 47.4757 254.508 49.1986 255.058 50.7136C255.621 52.2152 256.446 53.4018 257.532 54.2733C258.631 55.1314 259.979 55.5604 261.574 55.5604Z" fill="#8CBAFF"/>
<path d="M233.313 60.9931V30.1024H240.593V60.9931H233.313ZM236.973 25.7181C235.82 25.7181 234.828 25.336 233.997 24.5718C233.166 23.7942 232.75 22.8624 232.75 21.7764C232.75 20.6769 233.166 19.7451 233.997 18.9809C234.828 18.2033 235.82 17.8145 236.973 17.8145C238.14 17.8145 239.132 18.2033 239.95 18.9809C240.781 19.7451 241.197 20.6769 241.197 21.7764C241.197 22.8624 240.781 23.7942 239.95 24.5718C239.132 25.336 238.14 25.7181 236.973 25.7181Z" fill="#8CBAFF"/>
<path d="M209.673 61.6078C207.716 61.6078 205.953 61.2592 204.384 60.5621C202.829 59.8515 201.595 58.8057 200.683 57.4247C199.785 56.0437 199.336 54.341 199.336 52.3165C199.336 50.5735 199.658 49.1322 200.301 47.9926C200.945 46.8529 201.823 45.9412 202.936 45.2575C204.049 44.5737 205.302 44.0575 206.697 43.7089C208.104 43.3469 209.559 43.0854 211.061 42.9246C212.871 42.7369 214.339 42.5693 215.465 42.4218C216.591 42.2609 217.409 42.0196 217.919 41.6978C218.442 41.3626 218.703 40.8464 218.703 40.1492V40.0285C218.703 38.5135 218.254 37.3404 217.356 36.5091C216.457 35.6778 215.163 35.2622 213.474 35.2622C211.691 35.2622 210.276 35.651 209.231 36.4286C208.198 37.2063 207.501 38.1247 207.139 39.1839L200.342 38.2185C200.878 36.3415 201.763 34.7728 202.996 33.5125C204.23 32.2388 205.738 31.2869 207.521 30.6567C209.304 30.0132 211.275 29.6914 213.434 29.6914C214.922 29.6914 216.404 29.8657 217.878 30.2143C219.353 30.5629 220.701 31.1394 221.921 31.9439C223.141 32.7349 224.12 33.8142 224.857 35.1818C225.608 36.5493 225.983 38.2588 225.983 40.3101V60.9844H218.985V56.7409H218.743C218.301 57.599 217.677 58.4035 216.873 59.1543C216.082 59.8917 215.083 60.4883 213.876 60.9442C212.683 61.3866 211.282 61.6078 209.673 61.6078ZM211.564 56.2583C213.025 56.2583 214.292 55.97 215.365 55.3935C216.437 54.8036 217.262 54.0259 217.838 53.0606C218.428 52.0952 218.723 51.0428 218.723 49.9031V46.263C218.495 46.4507 218.106 46.625 217.557 46.7859C217.02 46.9468 216.417 47.0876 215.747 47.2082C215.076 47.3289 214.413 47.4362 213.756 47.53C213.099 47.6239 212.529 47.7043 212.046 47.7713C210.96 47.9188 209.988 48.1602 209.13 48.4953C208.272 48.8305 207.595 49.2998 207.099 49.9031C206.603 50.4931 206.355 51.2573 206.355 52.1958C206.355 53.5366 206.844 54.5488 207.823 55.2326C208.802 55.9164 210.048 56.2583 211.564 56.2583Z" fill="#8CBAFF"/>
<path d="M194.688 30.0982V35.7293H176.93V30.0982H194.688ZM181.314 22.6973H188.594V51.6976C188.594 52.6763 188.742 53.4271 189.037 53.95C189.345 54.4595 189.747 54.8081 190.243 54.9958C190.739 55.1835 191.289 55.2774 191.892 55.2774C192.348 55.2774 192.764 55.2439 193.139 55.1768C193.528 55.1098 193.823 55.0494 194.024 54.9958L195.251 60.6873C194.862 60.8213 194.306 60.9688 193.582 61.1297C192.871 61.2906 192 61.3845 190.967 61.4113C189.144 61.4649 187.501 61.1901 186.04 60.5867C184.579 59.97 183.419 59.018 182.561 57.7309C181.716 56.4438 181.301 54.8349 181.314 52.9043V22.6973Z" fill="#8CBAFF"/>
<path d="M152.061 42.8843V60.9844H144.781V30.0936H151.74V35.3426H152.102C152.812 33.6131 153.945 32.2388 155.501 31.2199C157.069 30.2009 159.007 29.6914 161.313 29.6914C163.444 29.6914 165.301 30.1473 166.883 31.059C168.479 31.9707 169.712 33.2913 170.584 35.0209C171.469 36.7504 171.905 38.8487 171.891 41.3157V60.9844H164.611V42.4419C164.611 40.3771 164.075 38.7615 163.002 37.5951C161.943 36.4286 160.475 35.8454 158.598 35.8454C157.324 35.8454 156.191 36.127 155.199 36.6901C154.22 37.2398 153.449 38.0375 152.886 39.0833C152.336 40.1291 152.061 41.3961 152.061 42.8843Z" fill="#8CBAFF"/>
<path d="M121.15 61.6078C119.192 61.6078 117.429 61.2592 115.86 60.5621C114.305 59.8515 113.072 58.8057 112.16 57.4247C111.262 56.0437 110.812 54.341 110.812 52.3165C110.812 50.5735 111.134 49.1322 111.778 47.9926C112.421 46.8529 113.3 45.9412 114.412 45.2575C115.525 44.5737 116.779 44.0575 118.173 43.7089C119.581 43.3469 121.036 43.0854 122.537 42.9246C124.347 42.7369 125.815 42.5693 126.942 42.4218C128.068 42.2609 128.886 42.0196 129.395 41.6978C129.918 41.3626 130.18 40.8464 130.18 40.1492V40.0285C130.18 38.5135 129.73 37.3404 128.832 36.5091C127.934 35.6778 126.64 35.2622 124.951 35.2622C123.167 35.2622 121.753 35.651 120.707 36.4286C119.675 37.2063 118.978 38.1247 118.616 39.1839L111.818 38.2185C112.354 36.3415 113.239 34.7728 114.473 33.5125C115.706 32.2388 117.215 31.2869 118.998 30.6567C120.781 30.0132 122.752 29.6914 124.91 29.6914C126.399 29.6914 127.88 29.8657 129.355 30.2143C130.83 30.5629 132.177 31.1394 133.397 31.9439C134.617 32.7349 135.596 33.8142 136.334 35.1818C137.084 36.5493 137.46 38.2588 137.46 40.3101V60.9844H130.461V56.7409H130.22C129.777 57.599 129.154 58.4035 128.349 59.1543C127.558 59.8917 126.56 60.4883 125.353 60.9442C124.16 61.3866 122.759 61.6078 121.15 61.6078ZM123.04 56.2583C124.502 56.2583 125.769 55.97 126.841 55.3935C127.914 54.8036 128.738 54.0259 129.315 53.0606C129.905 52.0952 130.2 51.0428 130.2 49.9031V46.263C129.972 46.4507 129.583 46.625 129.033 46.7859C128.497 46.9468 127.894 47.0876 127.223 47.2082C126.553 47.3289 125.889 47.4362 125.232 47.53C124.575 47.6239 124.005 47.7043 123.523 47.7713C122.437 47.9188 121.465 48.1602 120.607 48.4953C119.749 48.8305 119.071 49.2998 118.575 49.9031C118.079 50.4931 117.831 51.2573 117.831 52.1958C117.831 53.5366 118.321 54.5488 119.299 55.2326C120.278 55.9164 121.525 56.2583 123.04 56.2583Z" fill="#8CBAFF"/>
<path d="M97.4857 48.0005V30.1016H104.766V60.9923H97.7069V55.502H97.3852C96.688 57.2315 95.5416 58.646 93.9461 59.7454C92.3641 60.8448 90.4133 61.3946 88.0938 61.3946C86.0693 61.3946 84.2794 60.9454 82.7241 60.0471C81.1823 59.1354 79.9756 57.8148 79.1041 56.0852C78.2326 54.3422 77.7969 52.2373 77.7969 49.7703V30.1016H85.0771V48.6441C85.0771 50.6016 85.6134 52.1568 86.686 53.3099C87.7586 54.4629 89.1664 55.0394 90.9094 55.0394C91.982 55.0394 93.021 54.778 94.0266 54.2551C95.0322 53.7322 95.8567 52.9546 96.5003 51.9222C97.1572 50.8764 97.4857 49.5692 97.4857 48.0005Z" fill="#8CBAFF"/>
<path fill-rule="evenodd" clip-rule="evenodd" d="M34.8511 60.9895C49.2869 60.9895 60.9895 49.2869 60.9895 34.8511C60.9895 20.4153 49.2869 8.71278 34.8511 8.71278C20.4153 8.71278 8.71278 20.4153 8.71278 34.8511C8.71278 49.2869 20.4153 60.9895 34.8511 60.9895ZM34.8511 69.7022C54.0989 69.7022 69.7022 54.0989 69.7022 34.8511C69.7022 15.6034 54.0989 0 34.8511 0C15.6034 0 0 15.6034 0 34.8511C0 54.0989 15.6034 69.7022 34.8511 69.7022Z" fill="#8CBAFF"/>
<path d="M58.8195 56.6335L47.9285 63.1681L34.8594 34.8516L58.8195 56.6335Z" fill="#8CBAFF"/>
<path fill-rule="evenodd" clip-rule="evenodd" d="M58.8195 56.6335L34.8594 34.8516L47.9285 63.1681L58.8195 56.6335ZM51.5517 55.9139L47.8074 52.51L49.8497 56.935L51.5517 55.9139Z" fill="#8CBAFF"/>
<path d="M61.0276 63.2147L71.885 74.0594L54.4594 74.0594L52.8329 69.709L61.0276 63.2147Z" fill="#B3BE35"/>
</svg>
