<svg width="278" height="167" viewBox="0 0 278 167" fill="none" xmlns="http://www.w3.org/2000/svg">
<rect width="278" height="167" rx="5" fill="#022A50"/>
<rect width="278" height="167" rx="5" fill="#011C45"/>
<g clip-path="url(#clip0_438_1369)">
<g filter="url(#filter0_f_438_1369)">
<path d="M102 83.002C102 62.0151 119.013 45.002 140 45.002C160.987 45.002 178 62.0151 178 83.002C178 103.989 160.987 121.002 140 121.002C119.013 121.002 102 103.989 102 83.002Z" fill="url(#paint0_radial_438_1369)" fill-opacity="0.8"/>
</g>
<path d="M104.384 83.0301C104.384 63.1807 120.476 47.0895 140.325 47.0896C160.174 47.0896 176.266 63.1807 176.266 83.0301C176.266 102.88 160.174 118.971 140.325 118.971C120.476 118.971 104.384 102.88 104.384 83.0301Z" fill="url(#paint1_radial_438_1369)"/>
<path fill-rule="evenodd" clip-rule="evenodd" d="M152.066 117.003C149.538 135.973 144.939 148.679 139.705 148.67C131.805 148.656 125.453 119.669 125.517 83.9263C125.582 48.1837 132.039 19.2201 139.939 19.2344C144.991 19.2435 149.41 31.1017 151.923 48.9983C151.441 48.8341 150.955 48.6799 150.465 48.5359C148.072 34.2987 144.25 25.0926 139.928 25.0848C132.612 25.0716 126.634 51.4167 126.575 83.9283C126.516 116.44 132.399 142.806 139.715 142.82C144.232 142.828 148.239 132.79 150.658 117.458C151.131 117.316 151.601 117.164 152.066 117.003Z" fill="#94BD1C"/>
<path d="M144.109 19.5603C146.31 21.5935 146.446 25.0258 144.412 27.2264C142.379 29.427 138.947 29.5626 136.746 27.5293C134.546 25.496 134.41 22.0637 136.443 19.8631C138.477 17.6626 141.909 17.527 144.109 19.5603Z" fill="url(#paint2_radial_438_1369)"/>
<path fill-rule="evenodd" clip-rule="evenodd" d="M132.247 93.9285C101.458 75.7742 79.751 55.5405 83.7637 48.7351C86.4703 44.1449 100.187 46.8365 118.278 54.6461C117.887 54.9503 117.502 55.2623 117.124 55.582C102.233 49.5551 91.146 47.7334 88.8033 51.7065C85.0874 58.0086 104.778 76.504 132.784 93.0172C160.79 109.53 186.505 117.808 190.221 111.506C192.412 107.791 186.467 99.8374 175.48 90.5509C175.588 90.0429 175.685 89.531 175.772 89.0154C189.881 100.289 197.826 110.127 195.261 114.478C191.248 121.283 163.036 112.083 132.247 93.9285Z" fill="#94BD1C"/>
<path d="M192.682 117.236C189.814 118.104 186.786 116.483 185.918 113.615C185.049 110.747 186.67 107.719 189.538 106.851C192.406 105.983 195.434 107.604 196.302 110.472C197.17 113.339 195.549 116.368 192.682 117.236Z" fill="url(#paint3_radial_438_1369)"/>
<path fill-rule="evenodd" clip-rule="evenodd" d="M165.124 57.0118C182.96 50.1835 196.288 48.1596 198.779 52.7547C202.544 59.7003 180.121 79.1382 148.698 96.1704C117.274 113.203 88.7485 121.379 84.9838 114.434C82.5955 110.027 90.7471 100.593 105.05 89.9344C105.148 90.4352 105.256 90.9323 105.374 91.4255C94.2111 100.23 88.0865 107.881 90.1272 111.646C93.6134 118.078 119.611 110.733 148.194 95.2404C176.777 79.7479 197.122 61.9745 193.635 55.5426C191.485 51.575 180.769 52.8496 166.165 58.0449C165.825 57.6935 165.478 57.3491 165.124 57.0118Z" fill="#94BD1C"/>
<path d="M84.3988 111.052C85.1325 108.147 88.0822 106.387 90.9871 107.121C93.892 107.854 95.6521 110.804 94.9184 113.709C94.1846 116.614 91.2349 118.374 88.33 117.64C85.4251 116.906 83.665 113.957 84.3988 111.052Z" fill="url(#paint4_radial_438_1369)"/>
</g>
<path d="M240 110C240 111 236.826 110.972 236 112C234.9 113.369 235 116 234 116C233 116 233.099 113.227 232 112C231.05 110.938 228 111 228 110C228 109 231.174 109.028 232 108C233.1 106.631 233 104 234 104C235 104 234.9 106.631 236 108C236.826 109.028 240 109 240 110Z" fill="#3B4D5E"/>
<path d="M36.933 33.9496C37.608 34.4382 36.0383 36.5674 36.3288 37.6271C36.7157 39.0383 38.5406 40.2565 38.052 40.9316C37.5634 41.6067 35.7399 40.1855 34.3745 40.3274C33.1937 40.4502 31.7451 42.5392 31.07 42.0506C30.3949 41.562 31.9647 39.4328 31.6742 38.3731C31.2873 36.9619 29.4624 35.7437 29.951 35.0686C30.4396 34.3936 32.167 35.7463 33.6285 35.6728C34.7259 35.6176 36.2579 33.461 36.933 33.9496Z" fill="#1E3B57"/>
<path d="M234.791 24.903C234.974 25.3683 233.491 25.9357 233.295 26.565C233.034 27.4032 233.561 28.6094 233.096 28.7922C232.63 28.975 232.169 27.6667 231.434 27.2964C230.797 26.9761 229.389 27.5623 229.206 27.0969C229.024 26.6316 230.506 26.0642 230.702 25.4349C230.964 24.5967 230.436 23.3905 230.902 23.2077C231.367 23.0249 231.802 24.2675 232.564 24.7035C233.136 25.0309 234.608 24.4376 234.791 24.903Z" fill="#243C52"/>
<circle cx="57" cy="88" r="2" fill="#3B4D5E"/>
<circle cx="172" cy="158" r="2" fill="#1E3B57"/>
<circle cx="16" cy="156" r="4" fill="#243C52"/>
<defs>
<filter id="filter0_f_438_1369" x="96.1" y="39.102" width="87.8" height="87.8" filterUnits="userSpaceOnUse" color-interpolation-filters="sRGB">
<feFlood flood-opacity="0" result="BackgroundImageFix"/>
<feBlend mode="normal" in="SourceGraphic" in2="BackgroundImageFix" result="shape"/>
<feGaussianBlur stdDeviation="2.95" result="effect1_foregroundBlur_438_1369"/>
</filter>
<radialGradient id="paint0_radial_438_1369" cx="0" cy="0" r="1" gradientUnits="userSpaceOnUse" gradientTransform="translate(122.211 90.3733) rotate(-20.556) scale(49.6847 59.3006)">
<stop offset="0.03" stop-color="#BE11A4" stop-opacity="0.5"/>
<stop offset="0.636328" stop-color="#5B1AB0" stop-opacity="0.736035"/>
<stop offset="1" stop-color="#1E16A6"/>
</radialGradient>
<radialGradient id="paint1_radial_438_1369" cx="0" cy="0" r="1" gradientUnits="userSpaceOnUse" gradientTransform="translate(123.5 90.002) rotate(-20.556) scale(46.992 56.0868)">
<stop offset="0.03" stop-color="#BE11A4" stop-opacity="0.5"/>
<stop offset="0.636328" stop-color="#5B1AB0" stop-opacity="0.736035"/>
<stop offset="1" stop-color="#1D159E"/>
</radialGradient>
<radialGradient id="paint2_radial_438_1369" cx="0" cy="0" r="1" gradientUnits="userSpaceOnUse" gradientTransform="translate(137.504 26) rotate(-56.3099) scale(7.2111)">
<stop stop-color="#BF3FA3"/>
<stop offset="1" stop-color="#591D4C"/>
</radialGradient>
<radialGradient id="paint3_radial_438_1369" cx="0" cy="0" r="1" gradientUnits="userSpaceOnUse" gradientTransform="translate(190.004 113.502) rotate(-4.76364) scale(6.0208)">
<stop stop-color="#BF3FA3"/>
<stop offset="1" stop-color="#591D4C"/>
</radialGradient>
<radialGradient id="paint4_radial_438_1369" cx="0" cy="0" r="1" gradientUnits="userSpaceOnUse" gradientTransform="translate(88 113.5) rotate(-55.008) scale(6.10328)">
<stop offset="0.123446" stop-color="#BF3FA3"/>
<stop offset="1" stop-color="#591D4C"/>
</radialGradient>
<clipPath id="clip0_438_1369">
<rect width="155.582" height="155.902" fill="white" transform="translate(216.582 161.902) rotate(-180)"/>
</clipPath>
</defs>
</svg>
