<svg width="279" height="167" viewBox="0 0 279 167" fill="none" xmlns="http://www.w3.org/2000/svg">
<rect width="279" height="167" rx="5" fill="#022A50"/>
<rect width="279" height="167" rx="5" fill="#011C45"/>
<g filter="url(#filter0_f_438_1106)">
<path d="M143.061 87.6147C172.547 65.757 200.004 42.6914 221.377 42.6914C261.996 42.6914 271.48 126 221.377 126C197.638 126 170.03 107.297 143.061 87.6147C116.509 107.297 88.3108 126 61.4261 126C4.68537 126.001 19.5421 42.6919 61.7422 42.6914C83.9473 42.6912 113.111 65.7569 143.061 87.6147Z" fill="url(#paint0_radial_438_1106)" fill-opacity="0.2"/>
<path d="M62.7158 42.7061C63.3625 42.7253 64.0149 42.7638 64.6729 42.8203L63.8184 52.7832C64.2875 52.8235 64.7693 52.8775 65.2627 52.9453L66.6221 43.042C67.263 43.13 67.9088 43.2334 68.5596 43.3535L66.7451 53.1846C67.2396 53.2759 67.7443 53.3805 68.2598 53.498L70.4824 43.749C71.112 43.8926 71.7457 44.0507 72.3838 44.2217L69.7969 53.8789C70.3066 54.0155 70.8254 54.1646 71.3525 54.3252L74.2656 44.7617C74.8834 44.95 75.5057 45.1477 76.1309 45.3594L72.9248 54.8311C73.4462 55.0076 73.9748 55.1953 74.5107 55.3936L77.9805 46.0166C78.5885 46.2416 79.2 46.4764 79.8145 46.7217L76.1084 56.0078C76.6353 56.2181 77.1682 56.4384 77.707 56.668L81.626 47.4697C82.2205 47.723 82.8178 47.9852 83.418 48.2559L79.3076 57.3701C79.8381 57.6094 80.3736 57.857 80.9141 58.1133L85.1973 49.0801C85.7846 49.3586 86.3755 49.6428 86.9678 49.9365L82.5254 58.8955C83.0554 59.1584 83.5895 59.4292 84.1279 59.707L88.7129 50.8213C89.2886 51.1184 89.8671 51.4212 90.4473 51.7314L85.7324 60.5498C86.2646 60.8344 86.8004 61.1259 87.3398 61.4238L92.1729 52.6709C92.741 52.9847 93.3108 53.3046 93.8828 53.6299L88.9414 62.3213C89.4709 62.6224 90.0034 62.9295 90.5391 63.2422L95.5801 54.6064C96.1423 54.9347 96.7057 55.2691 97.2715 55.6074L92.1396 64.1885C92.6682 64.5046 93.1994 64.826 93.7334 65.1523L98.9482 56.6211C99.5022 56.9597 100.058 57.3021 100.615 57.6494L95.3242 66.1348C95.8531 66.4646 96.3853 66.7988 96.9189 67.1377L102.278 58.6963C102.826 59.0443 103.376 59.3963 103.927 59.752L98.5029 68.1533C99.0291 68.4931 99.5575 68.8368 100.088 69.1846L105.57 60.8223C106.116 61.1797 106.662 61.5402 107.21 61.9043L101.674 70.2314C102.198 70.5798 102.724 70.9318 103.252 71.2871L108.834 62.9941C109.375 63.3585 109.918 63.7245 110.462 64.0947L104.833 72.3584C105.357 72.7151 105.882 73.0747 106.409 73.4375L112.078 65.2031C112.614 65.5721 113.151 65.9434 113.689 66.3174L107.984 74.5273C108.509 74.8917 109.034 75.2592 109.562 75.6289L115.302 67.4404C115.834 67.814 116.367 68.1916 116.901 68.5693L111.132 76.7344C111.655 77.1042 112.18 77.4763 112.706 77.8506L118.504 69.7041C119.034 70.0817 119.565 70.4617 120.098 70.8428L114.277 78.9717C114.8 79.3459 115.324 79.7226 115.849 80.1006L121.69 71.9863C122.22 72.3677 122.751 72.7495 123.282 73.1338L117.422 81.2354C117.944 81.6133 118.468 81.9929 118.992 82.374L124.869 74.2852C125.397 74.6689 125.927 75.0534 126.456 75.4395H126.457L120.565 83.5195C121.088 83.9006 121.612 84.2834 122.137 84.667L128.037 76.5967C128.564 76.9821 129.092 77.3687 129.62 77.7559L123.711 85.8193C124.235 86.2033 124.76 86.5887 125.286 86.9746L131.202 78.9141C131.728 79.3003 132.255 79.6869 132.782 80.0742H132.783L128.426 86.0029L128.385 85.9463C127.855 86.3257 127.325 86.7037 126.795 87.0801L127.207 87.6611L126.862 88.1318C127.336 88.4796 127.81 88.8279 128.284 89.1768L132.583 95.2314C132.041 95.6164 131.498 95.9997 130.955 96.3818L125.202 88.2061C124.671 88.58 124.139 88.952 123.607 89.3223L129.322 97.5244C128.777 97.9044 128.232 98.2836 127.686 98.6602L122.012 90.4287C121.478 90.7964 120.944 91.162 120.411 91.5254L126.041 99.7861C125.491 100.161 124.94 100.533 124.39 100.903L118.809 92.6113C118.273 92.9716 117.738 93.3292 117.203 93.6846L122.736 102.014C122.182 102.382 121.627 102.748 121.071 103.111L115.593 94.7471C115.055 95.0995 114.517 95.4491 113.979 95.7959L119.4 104.197C118.842 104.558 118.283 104.916 117.724 105.271L112.363 96.8301C111.822 97.1737 111.282 97.5152 110.741 97.8525L116.035 106.333C115.471 106.685 114.906 107.035 114.341 107.382L109.115 98.8574C108.572 99.1903 108.029 99.5198 107.487 99.8457L112.639 108.416C112.067 108.759 111.496 109.099 110.924 109.436L105.852 100.819C105.305 101.141 104.759 101.459 104.213 101.773L109.202 110.438C108.625 110.771 108.049 111.099 107.472 111.424L102.571 102.708C102.021 103.018 101.47 103.324 100.921 103.625L105.728 112.392C105.143 112.712 104.559 113.028 103.975 113.34L99.2676 104.52C98.7147 104.815 98.1625 105.105 97.6113 105.391L102.213 114.268C101.621 114.575 101.028 114.876 100.436 115.174L95.9473 106.24C95.3903 106.52 94.8342 106.795 94.2793 107.064L98.6494 116.058C98.0505 116.349 97.4514 116.634 96.8525 116.915L92.6084 107.862C92.0486 108.125 91.49 108.382 90.9326 108.633L95.041 117.748C94.4329 118.022 93.8248 118.291 93.2168 118.554L89.251 109.376C88.6883 109.619 88.1262 109.856 87.5664 110.087L91.3818 119.328C90.7663 119.582 90.1514 119.832 89.5361 120.073L85.8809 110.767C85.3149 110.989 84.7502 111.205 84.1875 111.414L87.6719 120.784C87.0466 121.017 86.4218 121.243 85.7969 121.462L82.4932 112.025C81.9266 112.224 81.3617 112.415 80.7988 112.6L83.9111 122.1C83.2776 122.307 82.6447 122.509 82.0117 122.701L79.1025 113.136C78.5341 113.309 77.9676 113.474 77.4033 113.632L80.0967 123.26C79.4544 123.439 78.8125 123.611 78.1709 123.774L75.7051 114.086C75.1377 114.23 74.5725 114.367 74.0098 114.495L76.2354 124.241C75.5857 124.39 74.9368 124.531 74.2881 124.661L72.3154 114.859C71.7487 114.973 71.1839 115.079 70.6221 115.177L72.3271 125.026C71.6708 125.14 71.0156 125.247 70.3604 125.342L68.9346 115.444C68.3716 115.525 67.8107 115.598 67.2529 115.661L68.3838 125.594C67.7222 125.669 67.0616 125.736 66.4014 125.791L65.5791 115.826C65.0203 115.872 64.4638 115.91 63.9102 115.938L64.4121 125.921C63.7476 125.954 63.0839 125.977 62.4209 125.988L62.251 115.993C61.9754 115.998 61.7001 116 61.4258 116L60.5674 115.992L60.3857 125.989C59.6972 125.977 59.0195 125.952 58.3525 125.915L58.9102 115.932C58.3705 115.901 57.8432 115.861 57.3291 115.812L56.3838 125.768H56.3828C55.6895 125.702 55.0086 125.621 54.3398 125.528L55.7158 115.625C55.1912 115.552 54.681 115.469 54.1846 115.377L52.3652 125.209C51.6915 125.084 51.0312 124.945 50.3838 124.793L52.6758 115.061C52.1751 114.943 51.6894 114.815 51.2188 114.679L48.4326 124.282H48.4316C47.7792 124.093 47.1414 123.888 46.5176 123.67L49.8174 114.231C49.3494 114.068 48.8966 113.894 48.459 113.713L44.626 122.948C44 122.688 43.3899 122.413 42.7949 122.124L47.168 113.133C46.7389 112.924 46.3248 112.706 45.9248 112.479L41.002 121.183C40.4131 120.85 39.8407 120.502 39.2852 120.14L44.75 111.766C44.3631 111.513 43.9893 111.252 43.6289 110.981L37.6299 118.979C37.0887 118.574 36.5639 118.154 36.0576 117.72L42.5723 110.133C42.2278 109.837 41.895 109.531 41.5742 109.217L34.5723 116.354C34.0902 115.881 33.627 115.393 33.1807 114.894L40.6377 108.235C40.3349 107.896 40.0428 107.547 39.7617 107.188L31.8877 113.347C31.4727 112.816 31.0748 112.274 30.6953 111.72L38.9463 106.074C38.6849 105.692 38.4338 105.299 38.1934 104.896L29.6074 110.021C29.263 109.443 28.9358 108.856 28.626 108.258L37.5049 103.658C37.2859 103.236 37.0769 102.802 36.8789 102.359L27.751 106.438C27.4775 105.825 27.2207 105.204 26.9805 104.575L36.3203 101.01C36.1453 100.551 35.9807 100.083 35.8271 99.6064L26.3105 102.671C26.105 102.033 25.915 101.387 25.7412 100.735L35.4023 98.1602C35.2722 97.6721 35.1532 97.1756 35.0449 96.6719L25.2676 98.7734C25.1265 98.1172 25.0014 97.4554 24.8906 96.7891L34.7549 95.1494C34.6699 94.6385 34.5962 94.121 34.5332 93.5977L24.6064 94.792C24.5262 94.1253 24.4608 93.4548 24.4092 92.7812L34.3779 92.0186C34.3375 91.4912 34.3076 90.9591 34.2891 90.4229L24.2969 90.7676C24.2736 90.0964 24.2645 89.423 24.2686 88.748L34.2666 88.8076C34.2698 88.2697 34.2839 87.7288 34.3086 87.1855L24.3203 86.7324C24.3508 86.0608 24.3937 85.3884 24.4502 84.7158L34.4141 85.5527C34.4597 85.0099 34.5155 84.4657 34.582 83.9209L24.6572 82.709C24.7388 82.0412 24.8329 81.374 24.9395 80.708L34.8125 82.2871C34.8992 81.7448 34.9966 81.203 35.1035 80.6621L25.2939 78.7217C25.4244 78.0616 25.5671 77.4036 25.7217 76.748L35.4541 79.043C35.5808 78.5057 35.7172 77.9701 35.8633 77.4375L26.2197 74.792C26.3977 74.1433 26.5878 73.498 26.7891 72.8564L36.3301 75.8486C36.4954 75.3215 36.6706 74.7976 36.8545 74.2783L27.4277 70.9404C27.6524 70.306 27.8884 69.6762 28.1357 69.0518L37.4336 72.7344C37.6365 72.2221 37.8479 71.715 38.0684 71.2139L28.915 67.1865C29.1861 66.5705 29.4685 65.9606 29.7617 65.3574L38.7559 69.7285C38.9949 69.2367 39.2426 68.7518 39.498 68.2744L30.6816 63.5557C30.9994 62.9618 31.3284 62.3758 31.668 61.7979L40.2891 66.8633C40.5628 66.3973 40.844 65.9395 41.1328 65.4912L32.7275 60.0771C33.0927 59.5103 33.4689 58.953 33.8555 58.4053L42.0234 64.1719C42.3298 63.7378 42.643 63.3136 42.9629 62.9004L35.0566 56.7803C35.4695 56.2469 35.8931 55.7246 36.3271 55.2139L43.9453 61.6895C44.2816 61.2938 44.6237 60.9091 44.9717 60.5371L37.6709 53.7051C38.1316 53.2127 38.6014 52.7317 39.083 52.2656L39.084 52.2666L46.0381 59.4521C46.4009 59.101 46.7688 58.7626 47.1416 58.4375L40.5713 50.9014C41.0797 50.4581 41.599 50.0302 42.1279 49.6172L48.2812 57.4971C48.6668 57.196 49.0571 56.9082 49.4512 56.6348L43.751 48.4209C44.3047 48.0367 44.8686 47.6694 45.4424 47.3193L50.6504 55.8535C51.0546 55.6069 51.463 55.3745 51.875 55.1562L47.1953 46.3193C47.7893 46.0047 48.3927 45.7077 49.0059 45.4307L53.123 54.5439C53.5426 54.3544 53.9666 54.1787 54.3945 54.0176L50.8721 44.6611C51.4991 44.4251 52.1353 44.2094 52.7803 44.0137L55.6836 53.5801C56.1152 53.4491 56.5521 53.3323 56.9941 53.2295L54.7295 43.4922C55.3802 43.3409 56.0388 43.2089 56.7061 43.0996L58.3223 52.9668C58.7654 52.8942 59.2155 52.8353 59.6719 52.791L58.707 42.8379C59.3705 42.7735 60.0414 42.7298 60.7197 42.708L61.041 52.7031L61.7422 52.6914C61.9648 52.6914 62.1909 52.6944 62.4199 52.7012L62.7158 42.7061ZM255.244 82.3057C255.306 82.9716 255.356 83.6381 255.395 84.3047L245.412 84.8799C245.444 85.433 245.466 85.9853 245.479 86.5361L255.476 86.3115V86.3105C255.491 86.9791 255.493 87.647 255.484 88.3135L245.486 88.1836C245.479 88.7344 245.462 89.2831 245.435 89.8281L255.421 90.3223C255.388 90.9906 255.342 91.6568 255.284 92.3203L245.324 91.4541C245.277 91.997 245.22 92.5358 245.152 93.0693L255.071 94.3193C254.987 94.9841 254.89 95.645 254.78 96.3018L244.92 94.6572C244.832 95.1861 244.733 95.7087 244.625 96.2246L254.409 98.2764C254.272 98.9326 254.121 99.5835 253.956 100.229L244.27 97.7568C244.14 98.2649 244 98.7653 243.851 99.2568L253.418 102.162C253.223 102.804 253.014 103.439 252.791 104.066L243.371 100.714C243.2 101.194 243.019 101.665 242.829 102.125L252.071 105.939C251.815 106.56 251.544 107.171 251.258 107.773L242.227 103.484C242.015 103.929 241.795 104.363 241.565 104.785L250.349 109.559C250.028 110.148 249.693 110.728 249.341 111.295L240.845 106.026C240.595 106.429 240.337 106.82 240.069 107.198L248.237 112.966C247.851 113.513 247.447 114.047 247.028 114.567L239.236 108.304C238.95 108.66 238.655 109.004 238.352 109.335L245.722 116.088C245.27 116.58 244.804 117.059 244.319 117.521L237.414 110.292C237.094 110.598 236.765 110.892 236.426 111.175L242.825 118.856C242.313 119.283 241.785 119.692 241.24 120.086L235.385 111.982C235.033 112.237 234.67 112.481 234.296 112.714L239.579 121.2C239.014 121.552 238.433 121.886 237.836 122.203L233.147 113.375C232.763 113.579 232.366 113.774 231.957 113.957L236.045 123.082C235.437 123.354 234.814 123.609 234.176 123.846L230.697 114.472C230.28 114.626 229.85 114.771 229.405 114.905L232.293 124.479C231.655 124.671 231.003 124.845 230.337 125.003L228.037 115.273C227.589 115.379 227.127 115.475 226.65 115.56L228.396 125.404C227.742 125.52 227.075 125.62 226.395 125.703L225.187 115.777C224.709 115.836 224.217 115.883 223.711 115.919L224.419 125.893C223.76 125.939 223.089 125.971 222.407 125.987L222.176 115.991C221.913 115.997 221.647 116 221.377 116C221.117 116 220.856 115.997 220.593 115.991L220.374 125.987C219.707 125.973 219.038 125.942 218.365 125.899L219.004 115.923C218.473 115.889 217.937 115.844 217.394 115.787L216.36 125.73C215.697 125.662 215.031 125.58 214.362 125.485L215.765 115.587C215.223 115.51 214.674 115.422 214.12 115.324L212.375 125.17C211.72 125.054 211.062 124.924 210.402 124.785L212.467 115.003C211.917 114.887 211.362 114.761 210.802 114.625L208.442 124.34C207.796 124.183 207.146 124.017 206.495 123.84L209.128 114.193C208.572 114.042 208.012 113.881 207.447 113.711L204.562 123.282C203.923 123.09 203.283 122.889 202.641 122.678L205.762 113.18C205.203 112.996 204.641 112.804 204.074 112.604L200.736 122.028C200.109 121.806 199.481 121.575 198.851 121.337L202.388 111.985C201.829 111.774 201.266 111.555 200.7 111.328L196.977 120.607C196.358 120.359 195.738 120.103 195.116 119.84L199.012 110.632C198.452 110.395 197.888 110.151 197.322 109.899L193.267 119.04C192.658 118.77 192.049 118.492 191.438 118.209L195.642 109.138C195.084 108.879 194.523 108.615 193.961 108.344L189.62 117.353C189.019 117.063 188.417 116.765 187.813 116.464L192.281 107.52C191.725 107.242 191.166 106.958 190.604 106.668L186.018 115.553C185.426 115.247 184.833 114.936 184.239 114.62L188.936 105.793C188.382 105.498 187.826 105.199 187.269 104.894L182.469 113.665C181.882 113.344 181.295 113.019 180.707 112.688L185.603 103.97C185.051 103.66 184.498 103.346 183.943 103.027L178.959 111.695C178.38 111.363 177.8 111.027 177.221 110.687L182.289 102.065C181.739 101.742 181.188 101.414 180.636 101.083L175.49 109.657C174.917 109.313 174.344 108.965 173.77 108.614L178.986 100.085C178.44 99.7509 177.892 99.4128 177.344 99.0713L172.059 107.561C171.491 107.207 170.923 106.849 170.354 106.489L175.701 98.04C175.156 97.6952 174.61 97.3466 174.062 96.9951L168.658 105.408C168.096 105.047 167.535 104.68 166.973 104.313L172.43 95.9385C171.887 95.5846 171.343 95.2279 170.798 94.8682L165.289 103.211C164.73 102.842 164.171 102.471 163.611 102.098L169.168 93.7861C168.627 93.4246 168.085 93.06 167.543 92.6934L161.944 100.976C161.389 100.6 160.834 100.224 160.278 99.8447L165.919 91.5898C165.379 91.2211 164.839 90.8497 164.298 90.4766L158.62 98.707C158.069 98.327 157.519 97.944 156.968 97.5605L162.679 89.3555C162.14 88.9805 161.6 88.6033 161.061 88.2246L155.318 96.4092C154.77 96.0245 154.221 95.6385 153.673 95.251L158.308 88.6943C158.681 88.4131 159.055 88.1329 159.427 87.8525L159.156 87.4932L159.444 87.0869C159.019 86.7864 158.594 86.4841 158.168 86.1816L153.41 79.8643L153.409 79.8633C153.94 79.4635 154.471 79.0655 155 78.667L161.017 86.6543C161.546 86.2554 162.075 85.8577 162.602 85.4609L156.588 77.4717C157.119 77.0719 157.649 76.6733 158.179 76.2754L164.188 84.2676C164.717 83.8702 165.244 83.4736 165.77 83.0791L159.769 75.0811C160.3 74.6821 160.831 74.2841 161.36 73.8877L167.353 81.8936C167.881 81.4983 168.407 81.1046 168.933 80.7129L162.955 72.6963L164.549 71.5098L170.511 79.5381C171.039 79.1455 171.566 78.7554 172.092 78.3672L166.15 70.3252C166.685 69.9305 167.217 69.5372 167.749 69.1465L173.669 77.2051C174.197 76.817 174.724 76.4308 175.249 76.0479L169.355 67.9707C169.893 67.5782 170.43 67.1885 170.966 66.8008L176.829 74.8994C177.356 74.5176 177.883 74.1385 178.406 73.7627L172.574 65.6387C173.116 65.2495 173.659 64.865 174.198 64.4814L179.99 72.6299C180.52 72.2536 181.047 71.881 181.572 71.5117L175.821 63.333C176.365 62.9504 176.908 62.5704 177.449 62.1943L183.154 70.4062C183.686 70.037 184.215 69.6717 184.742 69.3105L179.089 61.0615C179.638 60.6852 180.186 60.313 180.731 59.9443L186.328 68.2314C186.86 67.8722 187.39 67.517 187.917 67.167L182.384 58.8379C182.94 58.4684 183.494 58.1018 184.047 57.7412L184.048 57.7422L189.511 66.1182C190.044 65.7703 190.575 65.428 191.103 65.0908L185.717 56.665C186.279 56.3058 186.839 55.9515 187.397 55.6025L192.697 64.082C193.234 63.7463 193.768 63.4162 194.299 63.0928L189.093 54.5557C189.663 54.2081 190.231 53.8669 190.797 53.5312L195.898 62.1309C196.435 61.8126 196.968 61.5016 197.497 61.1973L192.51 52.5293C193.091 52.1951 193.67 51.8683 194.246 51.5479L199.105 60.2871C199.645 59.987 200.18 59.6942 200.711 59.4102L195.993 50.5938C196.582 50.2787 197.168 49.972 197.752 49.6729L202.313 58.5703C202.853 58.2938 203.387 58.0268 203.916 57.7686L199.528 48.7822C200.131 48.4877 200.733 48.2046 201.33 47.9287L205.521 57.0059C206.061 56.7567 206.594 56.5173 207.121 56.2891L203.146 47.1133C203.76 46.8471 204.372 46.5932 204.979 46.3486L208.712 55.624C209.246 55.409 209.773 55.206 210.292 55.0146L206.833 45.6328C207.461 45.4012 208.085 45.1809 208.706 44.9746L211.859 54.4648C212.387 54.2894 212.906 54.1274 213.415 53.9785L210.608 44.3828C211.253 44.1942 211.894 44.0208 212.53 43.8623L214.947 53.5635C215.459 53.4359 215.96 53.3224 216.449 53.2236L214.471 43.4238C215.129 43.291 215.782 43.1755 216.43 43.0781L217.916 52.9648C218.404 52.8916 218.878 52.8334 219.34 52.79L218.403 42.834C219.07 42.7713 219.731 42.7284 220.387 42.707L220.388 42.708L220.713 52.7021L221.377 52.6914C221.604 52.6914 221.828 52.6955 222.049 52.7031L222.395 42.709C223.07 42.7324 223.735 42.7806 224.393 42.8496L223.349 52.793C223.782 52.8385 224.206 52.8993 224.622 52.9736L226.38 43.1318C227.041 43.2499 227.692 43.3912 228.333 43.5547L225.862 53.2422C226.276 53.3477 226.684 53.4672 227.085 53.6016L230.261 44.1201C230.896 44.3328 231.519 44.5697 232.133 44.8262L228.276 54.0498C228.672 54.2151 229.064 54.3957 229.45 54.5908L233.955 45.667C234.551 45.9681 235.137 46.2892 235.711 46.6309L230.598 55.2217C230.976 55.4469 231.351 55.6875 231.722 55.9434L237.399 47.7129C237.948 48.0914 238.484 48.4903 239.01 48.9053L232.817 56.7539C233.178 57.0383 233.534 57.3376 233.887 57.6523L240.549 50.1982C241.044 50.6408 241.529 51.098 242.002 51.5723L234.919 58.6309C235.257 58.9703 235.591 59.3242 235.919 59.6924L243.38 53.0371C243.822 53.5324 244.252 54.0421 244.671 54.5645L236.875 60.8223C237.187 61.2105 237.492 61.6124 237.792 62.0264L245.89 56.1631C246.279 56.7015 246.659 57.2512 247.026 57.8125L238.661 63.2891C238.942 63.7189 239.218 64.1603 239.485 64.6123L248.088 59.5156C248.427 60.0887 248.756 60.6716 249.073 61.2637L240.26 65.9863C240.509 66.4505 240.75 66.9246 240.983 67.4072L249.982 63.0508C250.273 63.6511 250.553 64.2593 250.821 64.875L241.657 68.8721C241.872 69.3644 242.079 69.8649 242.277 70.3721L251.587 66.7275C251.83 67.3493 252.063 67.9774 252.284 68.6113L242.846 71.9072C243.025 72.4216 243.196 72.9422 243.358 73.4678L252.91 70.5146C253.108 71.1533 253.294 71.7966 253.47 72.4443L243.819 75.0566C243.963 75.5879 244.098 76.124 244.224 76.6631L253.96 74.3877C254.112 75.0388 254.253 75.6933 254.383 76.3506L244.574 78.2881C244.681 78.8313 244.779 79.3772 244.868 79.9248L254.737 78.3242C254.844 78.9845 254.94 79.6468 255.024 80.3105L245.106 81.5723C245.176 82.1227 245.237 82.6741 245.288 83.2256L255.244 82.3057ZM154.265 90.9502L152.033 94.0879C151.876 93.9763 151.719 93.8647 151.562 93.7529C152.056 93.385 152.549 93.018 153.04 92.6504L151.786 90.9746L153.006 89.2715L154.265 90.9502ZM134.583 93.8027C134.457 93.8932 134.331 93.9839 134.205 94.0742L133.38 92.9209C133.78 93.2148 134.182 93.5087 134.583 93.8027ZM151.133 93.4473C150.887 93.2716 150.641 93.096 150.395 92.9199L150.563 92.6836L151.133 93.4473ZM135.824 92.9121C135.619 93.0601 135.414 93.2078 135.209 93.3555L135.68 92.7119L135.824 92.9121ZM134.47 91.0342L133.234 92.7178L132.029 91.0361L133.261 89.3604L134.47 91.0342ZM149.303 90.9932L148.761 91.7461C148.217 91.3547 147.673 90.9623 147.13 90.5693L148.044 89.3047L149.303 90.9932ZM139.048 90.5674C138.512 90.9597 137.975 91.3515 137.438 91.7422L136.916 91.0244L138.15 89.3398L139.048 90.5674ZM132.054 87.6875L130.827 89.3564L129.626 87.6797L130.849 86.0176L132.054 87.6875ZM136.934 87.6768L135.702 89.3545L134.49 87.6875L135.718 86.0156L136.934 87.6768ZM141.833 87.6309L140.602 89.3164L139.382 87.6592L140.612 85.9795L141.833 87.6309ZM146.786 87.6191L145.559 89.3086L144.303 87.6172L145.529 85.9336L146.786 87.6191ZM151.748 87.5947L150.527 89.292L149.27 87.6104L150.491 85.9189L151.748 87.5947ZM156.694 87.5352L155.481 89.2402L154.225 87.5684L155.44 85.8691L156.694 87.5352ZM134.503 84.3545L133.278 86.0205L132.069 84.3564L133.29 82.6963L134.503 84.3545ZM139.105 84.7158L139.104 84.7188L138.162 86.002L136.944 84.3467L137.524 83.5586V83.5576C138.051 83.9442 138.579 84.3292 139.105 84.7158ZM148.641 83.4512L149.235 84.2451L148.012 85.9297L147.05 84.6436L147.048 84.6416C147.579 84.2442 148.11 83.8475 148.64 83.4502L148.641 83.4512ZM154.188 84.2051L152.97 85.8975L151.715 84.2285L152.935 82.54L154.188 84.2051ZM135.943 82.3955V82.3965L135.727 82.6904L134.999 81.7021C135.314 81.9334 135.629 82.1641 135.943 82.3955ZM150.46 82.5586L150.232 82.2559L150.23 82.2539C150.562 82.0048 150.893 81.7557 151.224 81.5068L150.46 82.5586ZM151.821 81.0605L152.75 82.2949C152.313 81.9789 151.876 81.662 151.439 81.3447C151.566 81.2492 151.693 81.1541 151.82 81.0586L151.821 81.0605ZM134.614 81.4199C134.334 81.6257 134.054 81.8309 133.774 82.0361L134.363 81.2354C134.447 81.2969 134.531 81.3584 134.614 81.4199Z" stroke="url(#paint1_radial_438_1106)"/>
</g>
<path d="M100.212 85.1918C100.212 100.842 87.5251 113.528 71.8754 113.528C56.2257 113.528 43.5391 100.842 43.5391 85.1918C43.5391 69.5421 56.2257 56.8555 71.8754 56.8555C87.5251 56.8555 100.212 69.5421 100.212 85.1918Z" fill="#241E74"/>
<path d="M239.055 84.6324C239.055 68.9827 226.369 56.2961 210.719 56.2961C195.069 56.2961 182.383 68.9827 182.383 84.6324C182.383 100.282 195.069 112.969 210.719 112.969C226.369 112.969 239.055 100.282 239.055 84.6324Z" fill="#241E74"/>
<path fill-rule="evenodd" clip-rule="evenodd" d="M100.098 85.7544L99.5732 85.5413C99.6229 85.4189 99.645 85.3037 99.645 85.193C99.645 85.0822 99.6229 84.9671 99.5732 84.8446L100.098 84.6316C100.173 84.8165 100.212 85.0038 100.212 85.193C100.212 85.3822 100.173 85.5694 100.098 85.7544ZM99.4128 83.717L99.0322 84.1369C98.8111 83.9366 98.5296 83.732 98.185 83.5261L98.4758 83.0396C98.8442 83.2598 99.1577 83.4859 99.4128 83.717ZM97.4532 82.5067L97.2164 83.0215C96.9023 82.877 96.5603 82.7347 96.1914 82.5951L96.392 82.0651C96.7716 82.2087 97.1257 82.356 97.4532 82.5067ZM95.2988 81.6837L95.1249 82.223C94.7813 82.1123 94.4207 82.0038 94.0439 81.898L94.1971 81.3524C94.5803 81.46 94.9478 81.5705 95.2988 81.6837ZM93.0798 81.0576L92.9434 81.6076C92.5843 81.5186 92.2132 81.4317 91.8306 81.3472L91.9528 80.7938C92.3399 80.8793 92.7157 80.9673 93.0798 81.0576ZM90.8242 80.5578L90.7141 81.1137C90.3488 81.0414 89.9746 80.9711 89.5918 80.9029L89.6912 80.345C90.0773 80.4138 90.4552 80.4847 90.8242 80.5578ZM88.5537 80.1526L88.4639 80.7122C88.0934 80.6528 87.7159 80.5953 87.3317 80.5397L87.4127 79.9788C87.7998 80.0348 88.1802 80.0927 88.5537 80.1526ZM86.2691 79.822L86.1961 80.384C85.8221 80.3354 85.4425 80.2886 85.0576 80.2437L85.1232 79.6808C85.5106 79.726 85.8926 79.7731 86.2691 79.822ZM83.9753 79.5543L83.9166 80.118C83.5402 80.0788 83.1591 80.0414 82.7735 80.0058L82.8256 79.4415C83.2133 79.4773 83.5966 79.5149 83.9753 79.5543ZM81.6756 79.3419L81.6298 79.9068C81.2524 79.8762 80.8712 79.8473 80.4863 79.8202L80.5261 79.2548C80.913 79.2821 81.2962 79.3111 81.6756 79.3419ZM79.3753 79.1797L79.3413 79.7454C78.9623 79.7226 78.5801 79.7014 78.1948 79.682L78.2233 79.116C78.6104 79.1355 78.9945 79.1567 79.3753 79.1797ZM77.07 79.0635L77.047 79.6298C76.6666 79.6143 76.2835 79.6004 75.8979 79.5883L75.9157 79.0219C76.3031 79.034 76.6879 79.0479 77.07 79.0635ZM74.7605 78.9909C74.3785 78.9824 73.9943 78.9756 73.608 78.9704L73.6005 79.5371C73.9851 79.5422 74.3676 79.549 74.7478 79.5575L74.7605 78.9909ZM72.4546 78.9603L72.4521 79.527C72.2603 79.5261 72.0681 79.5257 71.8754 79.5257C71.6827 79.5257 71.4905 79.5261 71.2987 79.527L71.2962 78.9603C71.4888 78.9594 71.6819 78.959 71.8754 78.959C72.0689 78.959 72.262 78.9594 72.4546 78.9603ZM70.1428 78.9704L70.1503 79.5371C69.7657 79.5422 69.3832 79.549 69.0029 79.5575L68.9903 78.9909C69.3723 78.9824 69.7565 78.9756 70.1428 78.9704ZM67.8351 79.0219L67.8529 79.5883C67.4673 79.6004 67.0842 79.6143 66.7038 79.6298L66.6807 79.0635C67.0629 79.0479 67.4477 79.034 67.8351 79.0219ZM65.5275 79.116L65.556 79.682C65.1707 79.7014 64.7885 79.7226 64.4095 79.7454L64.3754 79.1797C64.7563 79.1567 65.1404 79.1355 65.5275 79.116ZM63.2247 79.2548L63.2645 79.8202C62.8796 79.8473 62.4984 79.8762 62.121 79.9068L62.0752 79.3419C62.4546 79.3111 62.8378 79.2821 63.2247 79.2548ZM60.9252 79.4415L60.9772 80.0058C60.5917 80.0414 60.2106 80.0788 59.8342 80.118L59.7755 79.5543C60.1542 79.5149 60.5375 79.4773 60.9252 79.4415ZM58.6276 79.6808L58.6932 80.2437C58.3083 80.2886 57.9287 80.3354 57.5547 80.384L57.4817 79.822C57.8582 79.7731 58.2402 79.726 58.6276 79.6808ZM56.338 79.9788L56.4191 80.5397C56.0349 80.5953 55.6574 80.6528 55.2869 80.7122L55.1971 80.1526C55.5706 80.0927 55.951 80.0348 56.338 79.9788ZM54.0596 80.345L54.159 80.9029C53.7762 80.9711 53.402 81.0414 53.0367 81.1137L52.9266 80.5578C53.2956 80.4847 53.6734 80.4138 54.0596 80.345ZM51.798 80.7938L51.9202 81.3472C51.5376 81.4317 51.1665 81.5186 50.8074 81.6076L50.671 81.0576C51.0351 80.9673 51.4109 80.8793 51.798 80.7938ZM49.5537 81.3524L49.7069 81.898C49.3301 82.0038 48.9695 82.1123 48.6259 82.223L48.452 81.6837C48.803 81.5705 49.1705 81.46 49.5537 81.3524ZM47.3588 82.0651L47.5594 82.5951C47.1905 82.7347 46.8485 82.877 46.5344 83.0215L46.2976 82.5067C46.6251 82.356 46.9792 82.2087 47.3588 82.0651ZM45.275 83.0396L45.5658 83.5261C45.2212 83.732 44.9396 83.9366 44.7186 84.1369L44.338 83.717C44.593 83.4859 44.9066 83.2598 45.275 83.0396ZM43.6524 84.6316C43.5774 84.8165 43.5391 85.0038 43.5391 85.193C43.5391 85.3822 43.5774 85.5694 43.6524 85.7544L44.1776 85.5413C44.1279 85.4189 44.1058 85.3037 44.1058 85.193C44.1058 85.0822 44.1279 84.9671 44.1776 84.8446L43.6524 84.6316ZM44.338 86.669L44.7186 86.249C44.9396 86.4494 45.2212 86.6539 45.5658 86.8599L45.275 87.3463C44.9066 87.1261 44.593 86.9001 44.338 86.669ZM46.2976 87.8793L46.5344 87.3644C46.8485 87.5089 47.1905 87.6512 47.5594 87.7909L47.3588 88.3209C46.9792 88.1772 46.6251 88.0299 46.2976 87.8793ZM48.452 88.7023L48.6259 88.1629C48.9695 88.2737 49.3301 88.3821 49.7069 88.488L49.5537 89.0336C49.1705 88.9259 48.803 88.8155 48.452 88.7023ZM50.671 89.3284L50.8074 88.7783C51.1665 88.8674 51.5376 88.9542 51.9202 89.0387L51.798 89.5921C51.4109 89.5066 51.0351 89.4187 50.671 89.3284ZM52.9266 89.8282L53.0367 89.2722C53.402 89.3446 53.7762 89.4149 54.159 89.483L54.0596 90.041C53.6734 89.9722 53.2956 89.9012 52.9266 89.8282ZM55.1971 90.2333L55.2869 89.6737C55.6574 89.7332 56.0349 89.7907 56.4191 89.8462L56.338 90.4071C55.951 90.3512 55.5706 90.2932 55.1971 90.2333ZM57.4817 90.564C57.8582 90.6129 58.2402 90.66 58.6276 90.7051L58.6932 90.1422C58.3083 90.0973 57.9287 90.0506 57.5547 90.002L57.4817 90.564ZM59.7755 90.8317L59.8342 90.268C60.2106 90.3072 60.5917 90.3445 60.9772 90.3801L60.9252 90.9444C60.5375 90.9087 60.1542 90.8711 59.7755 90.8317ZM62.0752 91.0441L62.121 90.4792C62.4984 90.5098 62.8796 90.5387 63.2645 90.5658L63.2247 91.1311C62.8378 91.1039 62.4546 91.0748 62.0752 91.0441ZM64.3754 91.2063L64.4095 90.6406C64.7885 90.6634 65.1707 90.6845 65.556 90.7039L65.5275 91.2699C65.1404 91.2505 64.7563 91.2292 64.3754 91.2063ZM66.6807 91.3225L66.7038 90.7562C67.0842 90.7717 67.4673 90.7855 67.8529 90.7976L67.8351 91.3641C67.4477 91.3519 67.0629 91.338 66.6807 91.3225ZM68.9903 91.3951L69.0029 90.8285C69.3832 90.8369 69.7657 90.8437 70.1503 90.8488L70.1428 91.4155C69.7565 91.4104 69.3723 91.4036 68.9903 91.3951ZM71.2962 91.4257L71.2987 90.859C71.4905 90.8598 71.6827 90.8602 71.8754 90.8602C72.0681 90.8602 72.2603 90.8598 72.4521 90.859L72.4546 91.4257C72.262 91.4265 72.0689 91.427 71.8754 91.427C71.6819 91.427 71.4888 91.4265 71.2962 91.4257ZM73.608 91.4155L73.6005 90.8488C73.9851 90.8437 74.3676 90.8369 74.7478 90.8285L74.7605 91.3951C74.3785 91.4036 73.9943 91.4104 73.608 91.4155ZM75.9157 91.3641L75.8979 90.7976C76.2835 90.7855 76.6666 90.7717 77.047 90.7562L77.07 91.3225C76.6879 91.338 76.3031 91.3519 75.9157 91.3641ZM78.2233 91.2699L78.1948 90.7039C78.5801 90.6845 78.9623 90.6634 79.3413 90.6406L79.3753 91.2063C78.9945 91.2292 78.6104 91.2505 78.2233 91.2699ZM80.5261 91.1311L80.4863 90.5658C80.8712 90.5387 81.2524 90.5098 81.6298 90.4792L81.6756 91.0441C81.2962 91.0748 80.913 91.1039 80.5261 91.1311ZM82.8256 90.9444L82.7735 90.3801C83.1591 90.3445 83.5402 90.3072 83.9166 90.268L83.9753 90.8317C83.5966 90.8711 83.2133 90.9087 82.8256 90.9444ZM85.1232 90.7051C85.5106 90.66 85.8926 90.6129 86.2691 90.564L86.1961 90.002C85.8221 90.0506 85.4425 90.0973 85.0576 90.1422L85.1232 90.7051ZM87.4128 90.4071L87.3317 89.8462C87.7159 89.7907 88.0934 89.7332 88.4639 89.6737L88.5537 90.2333C88.1802 90.2932 87.7998 90.3512 87.4128 90.4071ZM89.6912 90.041L89.5918 89.483C89.9746 89.4149 90.3488 89.3446 90.7141 89.2722L90.8242 89.8282C90.4552 89.9012 90.0774 89.9722 89.6912 90.041ZM91.9528 89.5921L91.8306 89.0387C92.2132 88.9542 92.5843 88.8674 92.9434 88.7783L93.0798 89.3284C92.7157 89.4187 92.3399 89.5066 91.9528 89.5921ZM94.1971 89.0336L94.0439 88.488C94.4207 88.3821 94.7813 88.2737 95.1249 88.1629L95.2988 88.7023C94.9478 88.8155 94.5803 88.9259 94.1971 89.0336ZM96.392 88.3209L96.1914 87.7909C96.5603 87.6512 96.9023 87.5089 97.2164 87.3644L97.4532 87.8793C97.1257 88.0299 96.7716 88.1772 96.392 88.3209ZM98.4758 87.3463L98.185 86.8599C98.5296 86.6539 98.8111 86.4494 99.0322 86.249L99.4128 86.669C99.1577 86.9001 98.8442 87.1261 98.4758 87.3463Z" fill="#627D3E"/>
<path fill-rule="evenodd" clip-rule="evenodd" d="M238.942 84.0718L238.417 84.2849C238.467 84.4073 238.489 84.5224 238.489 84.6332C238.489 84.744 238.467 84.8591 238.417 84.9815L238.942 85.1946C239.017 85.0097 239.055 84.8224 239.055 84.6332C239.055 84.444 239.017 84.2567 238.942 84.0718ZM238.257 86.1092L237.876 85.6893C237.655 85.8896 237.373 86.0941 237.029 86.3001L237.32 86.7865C237.688 86.5663 238.001 86.3403 238.257 86.1092ZM236.297 87.3195L236.06 86.8046C235.746 86.9491 235.404 87.0915 235.035 87.2311L235.236 87.7611C235.615 87.6175 235.969 87.4701 236.297 87.3195ZM234.143 88.1425L233.969 87.6031C233.625 87.7139 233.264 87.8223 232.888 87.9282L233.041 88.4738C233.424 88.3662 233.792 88.2557 234.143 88.1425ZM231.924 88.7686L231.787 88.2185C231.428 88.3076 231.057 88.3944 230.674 88.4789L230.797 89.0323C231.184 88.9468 231.559 88.8589 231.924 88.7686ZM229.668 89.2684L229.558 88.7125C229.193 88.7848 228.818 88.8551 228.436 88.9232L228.535 89.4812C228.921 89.4124 229.299 89.3415 229.668 89.2684ZM227.397 89.6735L227.308 89.114C226.937 89.1734 226.56 89.2309 226.175 89.2864L226.256 89.8473C226.644 89.7914 227.024 89.7334 227.397 89.6735ZM225.113 90.0042L225.04 89.4422C224.666 89.4908 224.286 89.5376 223.901 89.5824L223.967 90.1453C224.354 90.1002 224.736 90.0531 225.113 90.0042ZM222.819 90.2719L222.76 89.7082C222.384 89.7474 222.003 89.7848 221.617 89.8203L221.669 90.3847C222.057 90.3489 222.44 90.3113 222.819 90.2719ZM220.519 90.4843L220.474 89.9194C220.096 89.95 219.715 89.9789 219.33 90.006L219.37 90.5713C219.757 90.5441 220.14 90.5151 220.519 90.4843ZM218.219 90.6465L218.185 90.0808C217.806 90.1036 217.424 90.1248 217.039 90.1441L217.067 90.7102C217.454 90.6907 217.838 90.6694 218.219 90.6465ZM215.914 90.7627L215.891 90.1964C215.51 90.2119 215.127 90.2257 214.742 90.2379L214.759 90.8043C215.147 90.7921 215.532 90.7782 215.914 90.7627ZM213.604 90.8353C213.222 90.8438 212.838 90.8506 212.452 90.8557L212.444 90.289C212.829 90.2839 213.211 90.2771 213.592 90.2687L213.604 90.8353ZM211.298 90.8659L211.296 90.2992C211.104 90.3 210.912 90.3005 210.719 90.3005C210.526 90.3005 210.334 90.3 210.142 90.2992L210.14 90.8659C210.333 90.8668 210.526 90.8672 210.719 90.8672C210.913 90.8672 211.106 90.8668 211.298 90.8659ZM208.987 90.8557L208.994 90.289C208.609 90.2839 208.227 90.2771 207.847 90.2687L207.834 90.8353C208.216 90.8438 208.6 90.8506 208.987 90.8557ZM206.679 90.8043L206.697 90.2379C206.311 90.2257 205.928 90.2119 205.548 90.1964L205.524 90.7627C205.907 90.7782 206.291 90.7921 206.679 90.8043ZM204.371 90.7102L204.4 90.1441C204.014 90.1248 203.632 90.1036 203.253 90.0808L203.219 90.6465C203.6 90.6694 203.984 90.6907 204.371 90.7102ZM202.068 90.5713L202.108 90.006C201.723 89.9789 201.342 89.95 200.965 89.9194L200.919 90.4843C201.298 90.5151 201.682 90.5441 202.068 90.5713ZM199.769 90.3847L199.821 89.8203C199.435 89.7848 199.054 89.7474 198.678 89.7082L198.619 90.2719C198.998 90.3113 199.381 90.3489 199.769 90.3847ZM197.471 90.1453L197.537 89.5824C197.152 89.5376 196.772 89.4908 196.398 89.4422L196.325 90.0042C196.702 90.0531 197.084 90.1002 197.471 90.1453ZM195.182 89.8473L195.263 89.2864C194.879 89.2309 194.501 89.1734 194.131 89.114L194.041 89.6735C194.414 89.7334 194.795 89.7914 195.182 89.8473ZM192.903 89.4812L193.003 88.9232C192.62 88.8551 192.246 88.7848 191.88 88.7124L191.77 89.2684C192.139 89.3414 192.517 89.4124 192.903 89.4812ZM190.642 89.0323L190.764 88.4789C190.381 88.3944 190.01 88.3076 189.651 88.2185L189.515 88.7686C189.879 88.8589 190.255 88.9468 190.642 89.0323ZM188.397 88.4738L188.551 87.9282C188.174 87.8223 187.813 87.7139 187.47 87.6031L187.296 88.1425C187.647 88.2557 188.014 88.3662 188.397 88.4738ZM186.203 87.7611L186.403 87.2311C186.034 87.0915 185.692 86.9491 185.378 86.8046L185.141 87.3195C185.469 87.4701 185.823 87.6175 186.203 87.7611ZM184.119 86.7865L184.41 86.3001C184.065 86.0941 183.783 85.8896 183.562 85.6893L183.182 86.1092C183.437 86.3403 183.75 86.5663 184.119 86.7865ZM182.496 85.1946C182.421 85.0097 182.383 84.8224 182.383 84.6332C182.383 84.444 182.421 84.2567 182.496 84.0718L183.021 84.2849C182.972 84.4073 182.95 84.5224 182.95 84.6332C182.95 84.744 182.972 84.8591 183.021 84.9815L182.496 85.1946ZM183.182 83.1572L183.562 83.5771C183.783 83.3768 184.065 83.1722 184.41 82.9663L184.119 82.4798C183.75 82.7 183.437 82.9261 183.182 83.1572ZM185.141 81.9469L185.378 82.4618C185.692 82.3172 186.034 82.1749 186.403 82.0353L186.203 81.5053C185.823 81.6489 185.469 81.7962 185.141 81.9469ZM187.296 81.1239L187.47 81.6633C187.813 81.5525 188.174 81.444 188.551 81.3382L188.397 80.7926C188.014 80.9002 187.647 81.0107 187.296 81.1239ZM189.515 80.4978L189.651 81.0478C190.01 80.9588 190.381 80.8719 190.764 80.7874L190.642 80.2341C190.255 80.3195 189.879 80.4075 189.515 80.4978ZM191.77 79.998L191.88 80.5539C192.246 80.4816 192.62 80.4113 193.003 80.3431L192.903 79.7852C192.517 79.854 192.139 79.9249 191.77 79.998ZM194.041 79.5929L194.131 80.1524C194.501 80.093 194.879 80.0355 195.263 79.98L195.182 79.4191C194.795 79.475 194.414 79.5329 194.041 79.5929ZM196.325 79.2622C196.702 79.2133 197.084 79.1662 197.471 79.121L197.537 79.684C197.152 79.7288 196.772 79.7756 196.398 79.8242L196.325 79.2622ZM198.619 78.9945L198.678 79.5582C199.054 79.519 199.435 79.4816 199.821 79.4461L199.769 78.8817C199.381 78.9175 198.998 78.9551 198.619 78.9945ZM200.919 78.7821L200.965 79.347C201.342 79.3164 201.723 79.2875 202.108 79.2604L202.068 78.695C201.682 78.7223 201.298 78.7513 200.919 78.7821ZM203.219 78.6199L203.253 79.1856C203.632 79.1628 204.014 79.1416 204.4 79.1222L204.371 78.5562C203.984 78.5757 203.6 78.597 203.219 78.6199ZM205.524 78.5037L205.548 79.07C205.928 79.0545 206.311 79.0406 206.697 79.0285L206.679 78.4621C206.291 78.4743 205.907 78.4881 205.524 78.5037ZM207.834 78.4311L207.847 78.9977C208.227 78.9892 208.609 78.9824 208.994 78.9773L208.987 78.4107C208.6 78.4158 208.216 78.4226 207.834 78.4311ZM210.14 78.4005L210.142 78.9672C210.334 78.9664 210.526 78.9659 210.719 78.9659C210.912 78.9659 211.104 78.9664 211.296 78.9672L211.298 78.4005C211.106 78.3996 210.913 78.3992 210.719 78.3992C210.526 78.3992 210.333 78.3996 210.14 78.4005ZM212.452 78.4107L212.444 78.9773C212.829 78.9824 213.211 78.9892 213.592 78.9977L213.604 78.4311C213.222 78.4226 212.838 78.4158 212.452 78.4107ZM214.759 78.4621L214.742 79.0285C215.127 79.0406 215.51 79.0545 215.891 79.07L215.914 78.5037C215.532 78.4881 215.147 78.4743 214.759 78.4621ZM217.067 78.5562L217.039 79.1222C217.424 79.1416 217.806 79.1628 218.185 79.1856L218.219 78.6199C217.838 78.597 217.454 78.5757 217.067 78.5562ZM219.37 78.695L219.33 79.2604C219.715 79.2875 220.096 79.3164 220.474 79.347L220.519 78.7821C220.14 78.7513 219.757 78.7223 219.37 78.695ZM221.669 78.8817L221.617 79.4461C222.003 79.4816 222.384 79.519 222.76 79.5582L222.819 78.9945C222.44 78.9551 222.057 78.9175 221.669 78.8817ZM223.967 79.121C224.354 79.1662 224.736 79.2133 225.113 79.2622L225.04 79.8242C224.666 79.7756 224.286 79.7288 223.901 79.684L223.967 79.121ZM226.257 79.4191L226.175 79.98C226.56 80.0355 226.937 80.093 227.308 80.1524L227.397 79.5929C227.024 79.5329 226.644 79.475 226.257 79.4191ZM228.535 79.7852L228.436 80.3431C228.818 80.4113 229.193 80.4816 229.558 80.5539L229.668 79.998C229.299 79.9249 228.921 79.854 228.535 79.7852ZM230.797 80.2341L230.674 80.7874C231.057 80.8719 231.428 80.9588 231.787 81.0478L231.924 80.4978C231.559 80.4075 231.184 80.3195 230.797 80.2341ZM233.041 80.7926L232.888 81.3382C233.264 81.444 233.625 81.5525 233.969 81.6633L234.143 81.1239C233.792 81.0107 233.424 80.9002 233.041 80.7926ZM235.236 81.5053L235.035 82.0353C235.404 82.1749 235.746 82.3172 236.06 82.4618L236.297 81.9469C235.969 81.7962 235.615 81.6489 235.236 81.5053ZM237.32 82.4798L237.029 82.9663C237.373 83.1722 237.655 83.3768 237.876 83.5771L238.257 83.1572C238.001 82.9261 237.688 82.7 237.32 82.4798Z" fill="#627D3E"/>
<path fill-rule="evenodd" clip-rule="evenodd" d="M75.1406 107.294L71.8686 112.961L68.5966 107.294H71.3019V84.625H72.4354V107.294H75.1406Z" fill="#FF2BD8"/>
<path fill-rule="evenodd" clip-rule="evenodd" d="M213.988 62.5302L210.716 56.8629L207.444 62.5302H210.15V85.1992H211.283V62.5302H213.988Z" fill="#E8B40A"/>
<g filter="url(#filter1_f_438_1106)">
<path fill-rule="evenodd" clip-rule="evenodd" d="M71.8754 111.828C86.5861 111.828 98.5116 99.9025 98.5116 85.1918C98.5116 70.4811 86.5861 58.5556 71.8754 58.5556C57.1647 58.5556 45.2392 70.4811 45.2392 85.1918C45.2392 99.9025 57.1647 111.828 71.8754 111.828ZM71.8754 113.528C87.5251 113.528 100.212 100.842 100.212 85.1918C100.212 69.5421 87.5251 56.8555 71.8754 56.8555C56.2257 56.8555 43.5391 69.5421 43.5391 85.1918C43.5391 100.842 56.2257 113.528 71.8754 113.528Z" fill="#07C1FF" fill-opacity="0.7"/>
</g>
<g filter="url(#filter2_f_438_1106)">
<path fill-rule="evenodd" clip-rule="evenodd" d="M210.719 57.9963C225.43 57.9963 237.355 69.9217 237.355 84.6324C237.355 99.3432 225.43 111.269 210.719 111.269C196.008 111.269 184.083 99.3432 184.083 84.6324C184.083 69.9217 196.008 57.9963 210.719 57.9963ZM210.719 56.2961C226.369 56.2961 239.055 68.9827 239.055 84.6324C239.055 100.282 226.369 112.969 210.719 112.969C195.069 112.969 182.383 100.282 182.383 84.6324C182.383 68.9827 195.069 56.2961 210.719 56.2961Z" fill="#07C1FF" fill-opacity="0.7"/>
</g>
<path fill-rule="evenodd" clip-rule="evenodd" d="M71.8754 112.961C87.2121 112.961 99.645 100.529 99.645 85.1918C99.645 69.8551 87.2121 57.4222 71.8754 57.4222C56.5387 57.4222 44.1058 69.8551 44.1058 85.1918C44.1058 100.529 56.5387 112.961 71.8754 112.961ZM71.8754 113.528C87.5251 113.528 100.212 100.842 100.212 85.1918C100.212 69.5421 87.5251 56.8555 71.8754 56.8555C56.2257 56.8555 43.5391 69.5421 43.5391 85.1918C43.5391 100.842 56.2257 113.528 71.8754 113.528Z" fill="#07C1FF"/>
<path fill-rule="evenodd" clip-rule="evenodd" d="M210.719 56.8628C226.056 56.8628 238.489 69.2957 238.489 84.6324C238.489 99.9691 226.056 112.402 210.719 112.402C195.382 112.402 182.95 99.9691 182.95 84.6324C182.95 69.2957 195.382 56.8628 210.719 56.8628ZM210.719 56.2961C226.369 56.2961 239.055 68.9827 239.055 84.6324C239.055 100.282 226.369 112.969 210.719 112.969C195.069 112.969 182.383 100.282 182.383 84.6324C182.383 68.9827 195.069 56.2961 210.719 56.2961Z" fill="#07C1FF"/>
<path fill-rule="evenodd" clip-rule="evenodd" d="M141.555 80.043C141.366 79.8203 141.253 79.8092 141.191 79.8118C141.123 79.8147 140.99 79.8452 140.785 80.0996C140.573 80.3628 140.356 80.7822 140.141 81.367C139.713 82.5356 139.383 84.106 139.035 85.7602L139.032 85.779C138.695 87.385 138.34 89.0748 137.86 90.3575C137.619 91.0001 137.322 91.6107 136.931 92.0708C136.528 92.5454 135.964 92.9238 135.233 92.908C134.51 92.8924 133.961 92.4954 133.569 92.0179C133.186 91.5504 132.891 90.9367 132.65 90.2891C132.173 89.0048 131.816 87.3274 131.477 85.7337L131.467 85.6871C131.117 84.0376 130.783 82.4783 130.354 81.3239C130.139 80.7459 129.923 80.3354 129.714 80.0809C129.514 79.8365 129.389 79.8137 129.328 79.8124C129.269 79.8111 129.151 79.8256 128.954 80.0557C128.746 80.299 128.527 80.7002 128.307 81.2748C127.867 82.4215 127.521 83.9837 127.157 85.642L127.142 85.7091C126.792 87.305 126.422 88.986 125.935 90.2748C125.688 90.9274 125.388 91.545 125 92.0149C124.604 92.4942 124.051 92.8926 123.324 92.908C122.586 92.9236 122.022 92.54 121.622 92.0566C121.236 91.5899 120.949 90.972 120.719 90.3245C120.278 89.0797 119.959 87.4533 119.654 85.8962C119.641 85.8305 119.628 85.7649 119.615 85.6995C119.289 84.0383 118.972 82.4707 118.538 81.3171C118.321 80.7401 118.1 80.3353 117.883 80.0871C117.681 79.8555 117.534 79.8126 117.418 79.8126C117.299 79.8126 117.153 79.856 116.953 80.0849C116.738 80.3309 116.518 80.7325 116.303 81.306C115.875 82.4523 115.566 84.013 115.255 85.6674C115.233 85.7822 115.212 85.8974 115.19 86.013C114.908 87.5184 114.616 89.0756 114.22 90.2782C114.007 90.924 113.741 91.541 113.383 92.0109C113.016 92.4926 112.476 92.9082 111.743 92.9082C111.015 92.9082 110.472 92.4986 110.094 92.0263C109.723 91.5619 109.436 90.9497 109.2 90.3043C108.757 89.0967 108.408 87.5308 108.07 86.0167C108.046 85.9094 108.022 85.8025 107.999 85.6959C107.629 84.0419 107.264 82.4784 106.797 81.3286C106.564 80.7535 106.329 80.3463 106.102 80.0946C105.887 79.8563 105.734 79.8126 105.62 79.8126C105.505 79.8126 105.306 79.8688 105.014 80.16C104.722 80.4504 104.412 80.9032 104.098 81.51C103.473 82.7198 102.92 84.3627 102.459 86.032C102.001 87.6911 101.646 89.3312 101.404 90.5145C101.344 90.81 101.291 91.0765 101.245 91.3079C101.237 91.3469 101.23 91.385 101.222 91.4221C101.186 91.6041 101.155 91.763 101.128 91.8917C101.099 92.0375 101.07 92.1732 101.046 92.2615C101.04 92.284 101.03 92.3219 101.015 92.3629C101.008 92.3823 100.994 92.4206 100.971 92.4656L100.97 92.4676C100.96 92.4888 100.89 92.6327 100.739 92.7535C100.649 92.8257 100.444 92.9576 100.152 92.9388C99.8415 92.9188 99.6419 92.7442 99.5464 92.6272C99.4023 92.4506 99.3711 92.2621 99.3679 92.2428L99.3677 92.2414C99.3514 92.1549 99.3515 92.0792 99.3516 92.0601L99.3516 92.0581C99.3516 91.9283 99.3807 91.8054 99.4327 91.6953C99.4409 91.6568 99.4508 91.6093 99.4625 91.5517C99.4878 91.4279 99.5182 91.2746 99.5544 91.0926C99.5618 91.0551 99.5695 91.0164 99.5774 90.9766C99.6236 90.7442 99.6774 90.4743 99.7387 90.1744C99.9833 88.9761 100.347 87.293 100.82 85.5797C101.29 83.8766 101.88 82.0978 102.588 80.729C102.941 80.0465 103.346 79.4208 103.814 78.955C104.281 78.49 104.887 78.1124 105.62 78.1124C106.353 78.1124 106.933 78.4779 107.364 78.9558C107.783 79.4202 108.107 80.0361 108.373 80.6887C108.903 81.9944 109.295 83.7048 109.658 85.3247C109.679 85.4176 109.699 85.5101 109.72 85.6023C110.068 87.1614 110.394 88.6221 110.796 89.7195C111.01 90.3018 111.221 90.7127 111.422 90.9646C111.617 91.208 111.721 91.208 111.743 91.208L111.744 91.208C111.764 91.2082 111.856 91.209 112.031 90.9799C112.219 90.7337 112.413 90.3275 112.605 89.7457C112.964 88.6565 113.236 87.2083 113.527 85.6587C113.546 85.5573 113.565 85.4554 113.584 85.3532C113.889 83.7337 114.222 82.0205 114.711 80.7113C114.955 80.0571 115.262 79.4357 115.673 78.9655C116.099 78.4782 116.679 78.1124 117.418 78.1124C118.158 78.1124 118.737 78.4808 119.164 78.9688C119.575 79.4402 119.883 80.0632 120.13 80.7192C120.623 82.0316 120.965 83.7507 121.283 85.3718L121.307 85.4935C121.625 87.1144 121.924 88.6327 122.322 89.7564C122.526 90.3334 122.733 90.7328 122.932 90.973C123.117 91.1966 123.228 91.2095 123.288 91.2082C123.353 91.2069 123.483 91.1814 123.689 90.9319C123.903 90.673 124.124 90.2569 124.345 89.6734C124.785 88.5078 125.132 86.9354 125.496 85.2772L125.502 85.2501C125.855 83.6424 126.227 81.9508 126.719 80.6662C126.967 80.0215 127.269 79.4102 127.663 78.95C128.068 78.4767 128.633 78.0968 129.365 78.1126C130.088 78.1282 130.637 78.5252 131.029 79.0027C131.412 79.4702 131.707 80.0839 131.948 80.7315C132.425 82.0158 132.782 83.6932 133.121 85.2869L133.13 85.3335C133.481 86.983 133.815 88.5423 134.244 89.6967C134.459 90.2747 134.675 90.6852 134.883 90.9397C135.084 91.1841 135.209 91.2069 135.269 91.2082C135.329 91.2095 135.444 91.1956 135.636 90.9701C135.839 90.7301 136.053 90.3328 136.267 89.7612C136.695 88.6206 137.024 87.0654 137.372 85.4111L137.387 85.3352C137.721 83.746 138.072 82.0708 138.545 80.7814C138.785 80.127 139.079 79.5071 139.462 79.0326C139.851 78.5491 140.397 78.1434 141.12 78.1131C141.864 78.0819 142.439 78.4589 142.85 78.9408C143.246 79.4058 143.543 80.0259 143.783 80.6774C144.258 81.9705 144.603 83.6752 144.931 85.2922L144.941 85.3415C145.281 87.0176 145.603 88.599 146.029 89.7567C146.242 90.3371 146.456 90.738 146.66 90.9776C146.85 91.2003 146.962 91.2114 147.024 91.2088C147.097 91.2057 147.236 91.1715 147.449 90.9149C147.668 90.6508 147.893 90.2318 148.117 89.65C148.566 88.488 148.921 86.9231 149.284 85.2773C149.301 85.2025 149.317 85.1276 149.334 85.0526C149.673 83.5154 150.024 81.9225 150.468 80.7C150.7 80.0606 150.981 79.4545 151.342 78.9945C151.708 78.5291 152.242 78.1124 152.964 78.1124C153.687 78.1124 154.224 78.5317 154.594 78.9956C154.961 79.4569 155.251 80.0656 155.492 80.7107C155.977 82.0056 156.358 83.706 156.717 85.3264L156.752 85.4844C157.107 87.0845 157.442 88.5988 157.841 89.7294C158.047 90.316 158.249 90.7334 158.439 90.9897C158.544 91.1311 158.613 91.1834 158.646 91.2016C158.675 91.1818 158.73 91.1322 158.81 91.0155C158.981 90.7655 159.159 90.353 159.339 89.7637C159.618 88.8489 159.849 87.698 160.101 86.4431C160.173 86.0824 160.247 85.713 160.325 85.3382C160.662 83.7082 161.062 81.9822 161.666 80.6561C162.25 79.3751 163.194 78.1124 164.773 78.1124C166.383 78.1124 167.252 79.4171 167.748 80.7029C168.26 82.031 168.548 83.7613 168.798 85.3805C168.823 85.5456 168.848 85.7096 168.873 85.8721C169.101 87.3563 169.31 88.7231 169.63 89.762C169.807 90.3379 169.995 90.731 170.182 90.9664C170.349 91.177 170.467 91.208 170.568 91.208C170.681 91.208 170.83 91.1657 171.039 90.9305C171.261 90.6808 171.49 90.2753 171.716 89.7004C172.169 88.5511 172.514 86.9883 172.867 85.3333C172.886 85.2422 172.905 85.1508 172.925 85.0593C173.25 83.5303 173.587 81.9428 174.028 80.7204C174.261 80.0738 174.546 79.4592 174.921 78.9928C175.304 78.5158 175.852 78.1124 176.582 78.1124C177.292 78.1124 177.874 78.5041 178.314 78.9491C178.763 79.403 179.166 80.0136 179.527 80.6844C180.253 82.0311 180.901 83.7922 181.439 85.5084C181.98 87.2338 182.422 88.9544 182.729 90.2406C182.883 90.8846 183.003 91.4215 183.084 91.7982C183.125 91.9865 183.157 92.1349 183.178 92.2367C183.183 92.2606 183.187 92.2819 183.191 92.3006C183.195 92.3216 183.199 92.3393 183.202 92.3535L183.208 92.3841L183.21 92.3922L183.21 92.3944C183.21 92.3944 183.21 92.3954 182.377 92.5629L183.21 92.3944C183.303 92.8547 183.005 93.3038 182.545 93.3963C182.084 93.4888 181.636 93.1907 181.544 92.7304L181.542 92.722L181.536 92.6943C181.531 92.6696 181.524 92.6324 181.513 92.5837C181.493 92.4862 181.463 92.3424 181.423 92.1588C181.343 91.7917 181.226 91.2661 181.075 90.6351C180.774 89.3712 180.342 87.6917 179.816 86.017C179.288 84.3331 178.679 82.694 178.031 81.4907C177.705 80.8865 177.392 80.4345 177.106 80.1446C176.81 79.8458 176.638 79.8126 176.582 79.8126C176.546 79.8126 176.438 79.8184 176.246 80.0576C176.046 80.3073 175.837 80.7158 175.627 81.2969C175.228 82.4054 174.913 83.8867 174.576 85.4668L174.53 85.6873C174.185 87.3062 173.813 89.0173 173.298 90.3234C173.041 90.9762 172.724 91.5939 172.31 92.0603C171.882 92.5413 171.303 92.9082 170.568 92.9082C169.822 92.9082 169.253 92.53 168.851 92.0244C168.469 91.5437 168.205 90.9137 168.005 90.2618C167.646 89.0947 167.416 87.5948 167.195 86.1436C167.169 85.9749 167.143 85.8069 167.118 85.6401C166.862 83.9854 166.596 82.4417 166.162 81.3144C165.711 80.1448 165.24 79.8126 164.773 79.8126C164.274 79.8126 163.749 80.1869 163.213 81.3613C162.699 82.4906 162.33 84.0385 161.99 85.6824C161.919 86.0251 161.849 86.3728 161.78 86.7203C161.525 87.9904 161.271 89.257 160.965 90.2602C160.77 90.8985 160.532 91.5092 160.213 91.9753C159.894 92.4421 159.387 92.9082 158.65 92.9082C157.926 92.9082 157.409 92.4561 157.073 92.0012C156.732 91.5413 156.463 90.9356 156.237 90.2945C155.804 89.0638 155.448 87.4594 155.105 85.9093C155.089 85.8375 155.073 85.7658 155.058 85.6942C154.691 84.0406 154.334 82.4671 153.9 81.3066C153.682 80.7239 153.467 80.3096 153.264 80.0547C153.166 79.9312 153.088 79.8687 153.039 79.839C152.996 79.8135 152.976 79.8126 152.964 79.8126C152.964 79.8126 152.869 79.8034 152.679 80.045C152.483 80.2944 152.276 80.7021 152.066 81.2801C151.662 82.3943 151.332 83.8889 150.981 85.4797L150.944 85.6439C150.589 87.2554 150.207 88.9561 149.704 90.2619C149.452 90.9141 149.148 91.5295 148.758 91.9998C148.362 92.4774 147.814 92.8773 147.096 92.9075C146.352 92.9387 145.776 92.5617 145.366 92.0798C144.97 91.6148 144.672 90.9947 144.433 90.3432C143.958 89.0501 143.612 87.3454 143.285 85.7284L143.275 85.6791C142.935 84.003 142.612 82.4216 142.187 81.2639C141.973 80.6835 141.759 80.2826 141.555 80.043ZM158.622 91.2134C158.622 91.2134 158.626 91.2107 158.633 91.2094C158.626 91.2134 158.622 91.2134 158.622 91.2134ZM158.661 91.2087C158.666 91.2093 158.668 91.2105 158.668 91.2105C158.668 91.2105 158.666 91.2105 158.661 91.2087Z" fill="white"/>
<defs>
<filter id="filter0_f_438_1106" x="6.26562" y="24.6914" width="267.223" height="119.309" filterUnits="userSpaceOnUse" color-interpolation-filters="sRGB">
<feFlood flood-opacity="0" result="BackgroundImageFix"/>
<feBlend mode="normal" in="SourceGraphic" in2="BackgroundImageFix" result="shape"/>
<feGaussianBlur stdDeviation="9" result="effect1_foregroundBlur_438_1106"/>
</filter>
<filter id="filter1_f_438_1106" x="31.2391" y="44.5555" width="81.2719" height="81.2719" filterUnits="userSpaceOnUse" color-interpolation-filters="sRGB">
<feFlood flood-opacity="0" result="BackgroundImageFix"/>
<feBlend mode="normal" in="SourceGraphic" in2="BackgroundImageFix" result="shape"/>
<feGaussianBlur stdDeviation="6.15" result="effect1_foregroundBlur_438_1106"/>
</filter>
<filter id="filter2_f_438_1106" x="170.083" y="43.9969" width="81.2719" height="81.2719" filterUnits="userSpaceOnUse" color-interpolation-filters="sRGB">
<feFlood flood-opacity="0" result="BackgroundImageFix"/>
<feBlend mode="normal" in="SourceGraphic" in2="BackgroundImageFix" result="shape"/>
<feGaussianBlur stdDeviation="6.15" result="effect1_foregroundBlur_438_1106"/>
</filter>
<radialGradient id="paint0_radial_438_1106" cx="0" cy="0" r="1" gradientUnits="userSpaceOnUse" gradientTransform="translate(149 84) rotate(-2.15379) scale(96.3571 168.609)">
<stop stop-color="#FBA700"/>
<stop offset="1" stop-color="#38EAEA"/>
</radialGradient>
<radialGradient id="paint1_radial_438_1106" cx="0" cy="0" r="1" gradientUnits="userSpaceOnUse" gradientTransform="translate(36.2993 90.8261) rotate(-0.616061) scale(106.59 295.842)">
<stop offset="1" stop-color="#FFFB00"/>
</radialGradient>
</defs>
</svg>
