<svg width="278" height="167" viewBox="0 0 278 167" fill="none" xmlns="http://www.w3.org/2000/svg">
<rect width="278" height="167" rx="3" fill="#011C45"/>
<line x1="145" y1="66" x2="145" y2="120" stroke="#99BB36" stroke-width="2"/>
<line x1="68" y1="66" x2="222" y2="66" stroke="#99BB36" stroke-width="2"/>
<line x1="31" y1="111" x2="185" y2="111" stroke="#99BB36" stroke-width="2"/>
<line x1="13" y1="157.5" x2="263" y2="157.5" stroke="#99BB36" stroke-opacity="0.4"/>
<line x1="12.5" y1="148.002" x2="12.5" y2="7.00195" stroke="#99BB36" stroke-opacity="0.4"/>
<rect x="175.5" y="56.5" width="19" height="16" fill="#241E74"/>
<rect x="175.5" y="56.5" width="19" height="16" stroke="#ED36DB"/>
<path d="M183.378 69.608L183.308 70H179.472L179.542 69.608L180.326 69.51C180.485 69.4913 180.583 69.454 180.62 69.398C180.657 69.3327 180.704 69.1413 180.76 68.824L182.02 61.656C182.076 61.3387 182.095 61.152 182.076 61.096C182.057 61.0307 181.978 60.9887 181.838 60.97L181.082 60.872L181.152 60.48H184.988L184.918 60.872L184.134 60.97C183.985 60.9887 183.887 61.0307 183.84 61.096C183.803 61.152 183.756 61.3387 183.7 61.656L183.126 64.946H186.808L187.382 61.656C187.438 61.3387 187.457 61.152 187.438 61.096C187.419 61.0307 187.34 60.9887 187.2 60.97L186.444 60.872L186.514 60.48H190.35L190.28 60.872L189.496 60.97C189.347 60.9887 189.249 61.0307 189.202 61.096C189.165 61.152 189.118 61.3387 189.062 61.656L187.802 68.824C187.746 69.1413 187.727 69.3327 187.746 69.398C187.765 69.454 187.844 69.4913 187.984 69.51L188.74 69.608L188.67 70H184.834L184.904 69.608L185.688 69.51C185.847 69.4913 185.945 69.454 185.982 69.398C186.019 69.3327 186.066 69.1413 186.122 68.824L186.71 65.436H183.042L182.44 68.824C182.384 69.1413 182.365 69.3327 182.384 69.398C182.403 69.454 182.482 69.4913 182.622 69.51L183.378 69.608Z" fill="#ED36DB"/>
<rect x="77.5" y="102.5" width="19" height="16" fill="#241E74"/>
<rect x="77.5" y="102.5" width="19" height="16" stroke="#A12DB4"/>
<path d="M85.378 115.608L85.308 116H81.472L81.542 115.608L82.326 115.51C82.4847 115.491 82.5827 115.454 82.62 115.398C82.6573 115.333 82.704 115.141 82.76 114.824L84.02 107.656C84.076 107.339 84.0947 107.152 84.076 107.096C84.0573 107.031 83.978 106.989 83.838 106.97L83.082 106.872L83.152 106.48H86.988L86.918 106.872L86.134 106.97C85.9847 106.989 85.8867 107.031 85.84 107.096C85.8027 107.152 85.756 107.339 85.7 107.656L85.126 110.946H88.808L89.382 107.656C89.438 107.339 89.4567 107.152 89.438 107.096C89.4193 107.031 89.34 106.989 89.2 106.97L88.444 106.872L88.514 106.48H92.35L92.28 106.872L91.496 106.97C91.3467 106.989 91.2487 107.031 91.202 107.096C91.1647 107.152 91.118 107.339 91.062 107.656L89.802 114.824C89.746 115.141 89.7273 115.333 89.746 115.398C89.7647 115.454 89.844 115.491 89.984 115.51L90.74 115.608L90.67 116H86.834L86.904 115.608L87.688 115.51C87.8467 115.491 87.9447 115.454 87.982 115.398C88.0193 115.333 88.066 115.141 88.122 114.824L88.71 111.436H85.042L84.44 114.824C84.384 115.141 84.3653 115.333 84.384 115.398C84.4027 115.454 84.482 115.491 84.622 115.51L85.378 115.608Z" fill="#ED36DB"/>
<g clip-path="url(#clip0_438_1168)">
<rect width="23.5" height="17" transform="translate(26 102)" fill="#011C45"/>
<path d="M30.7841 102.537V119.281H29.7898V102.537H30.7841ZM37.1042 116.169C36.3187 116.166 35.6475 115.959 35.0907 115.548C34.5339 115.137 34.108 114.538 33.813 113.753C33.5181 112.967 33.3706 112.021 33.3706 110.914C33.3706 109.81 33.5181 108.867 33.813 108.085C34.1113 107.303 34.5389 106.706 35.0957 106.295C35.6558 105.884 36.3253 105.679 37.1042 105.679C37.8831 105.679 38.551 105.886 39.1078 106.3C39.6646 106.711 40.0905 107.308 40.3855 108.09C40.6838 108.869 40.8329 109.81 40.8329 110.914C40.8329 112.024 40.6854 112.972 40.3904 113.758C40.0955 114.54 39.6696 115.138 39.1127 115.553C38.5559 115.964 37.8864 116.169 37.1042 116.169ZM37.1042 114.842C37.7936 114.842 38.3322 114.505 38.72 113.832C39.1111 113.16 39.3066 112.187 39.3066 110.914C39.3066 110.069 39.2172 109.355 39.0382 108.771C38.8625 108.185 38.609 107.741 38.2775 107.439C37.9494 107.134 37.5583 106.982 37.1042 106.982C36.4181 106.982 35.8796 107.32 35.4885 107.996C35.0974 108.672 34.9002 109.645 34.8968 110.914C34.8968 111.763 34.9847 112.48 35.1603 113.067C35.3393 113.65 35.5929 114.093 35.921 114.394C36.2491 114.692 36.6435 114.842 37.1042 114.842Z" fill="#ED36DB"/>
<path d="M42 102.438L45.5 110.438L42 118.562" stroke="#ED36DB"/>
</g>
<rect x="170.5" y="96.5" width="32" height="24" fill="#241E74"/>
<rect x="170.5" y="96.5" width="32" height="24" stroke="#ED36DB"/>
<path d="M194.556 100L185.111 117M174 116C184.184 108.597 189.675 109.042 199 116" stroke="#ED36DB"/>
<rect x="220.5" y="53.5" width="32" height="24" fill="#241E74"/>
<rect x="220.5" y="53.5" width="32" height="24" stroke="#ED36DB"/>
<path d="M244.556 57L235.111 74M224 73C234.184 65.5967 239.675 66.0421 249 73" stroke="#ED36DB"/>
<circle cx="145.018" cy="66.0188" r="3.71246" transform="rotate(85.0863 145.018 66.0188)" fill="#366BBB"/>
<circle cx="145.097" cy="111.1" r="8.59843" transform="rotate(90 145.097 111.1)" stroke="#366BBB"/>
<rect x="50.5" y="60.5" width="11" height="11" stroke="#5E5E8D"/>
<path d="M56.8097 62.7273V70H55.929V63.6506H55.8864L54.1108 64.8295V63.9347L55.929 62.7273H56.8097Z" fill="#5E5E8D"/>
<rect x="81.5" y="87.5" width="11" height="11" stroke="#5E5E8D"/>
<path d="M84.2528 97V96.3608L86.6534 93.733C86.9351 93.4252 87.1671 93.1577 87.3494 92.9304C87.5317 92.7008 87.6667 92.4853 87.7543 92.2841C87.8442 92.0805 87.8892 91.8674 87.8892 91.6449C87.8892 91.3892 87.8277 91.1679 87.7045 90.9808C87.5838 90.7938 87.4181 90.6494 87.2074 90.5476C86.9967 90.4458 86.7599 90.3949 86.4972 90.3949C86.2178 90.3949 85.974 90.4529 85.7656 90.5689C85.5597 90.6825 85.3999 90.8423 85.2862 91.0483C85.175 91.2543 85.1193 91.4957 85.1193 91.7727H84.2812C84.2812 91.3466 84.3795 90.9725 84.576 90.6506C84.7725 90.3286 85.04 90.0777 85.3786 89.8977C85.7195 89.7178 86.1018 89.6278 86.5256 89.6278C86.9517 89.6278 87.3293 89.7178 87.6584 89.8977C87.9875 90.0777 88.2455 90.3203 88.4325 90.6257C88.6196 90.9311 88.7131 91.2708 88.7131 91.6449C88.7131 91.9124 88.6645 92.174 88.5675 92.4297C88.4728 92.683 88.3071 92.9659 88.0703 93.2784C87.8359 93.5885 87.5104 93.9673 87.0938 94.4148L85.4602 96.1619V96.2188H88.8409V97H84.2528Z" fill="#5E5E8D"/>
<rect x="179.5" y="38.5" width="11" height="11" stroke="#5E5E8D"/>
<path d="M184.71 48.0994C184.241 48.0994 183.824 48.0189 183.457 47.858C183.092 47.697 182.802 47.4732 182.587 47.1868C182.374 46.898 182.258 46.563 182.239 46.1818H183.134C183.152 46.4162 183.233 46.6186 183.375 46.7891C183.517 46.9571 183.703 47.0874 183.933 47.1797C184.162 47.272 184.417 47.3182 184.696 47.3182C185.009 47.3182 185.286 47.2637 185.527 47.1548C185.768 47.0459 185.958 46.8944 186.095 46.7003C186.232 46.5062 186.301 46.2812 186.301 46.0256C186.301 45.758 186.235 45.5225 186.102 45.3189C185.97 45.1129 185.776 44.9519 185.52 44.8359C185.264 44.7199 184.952 44.6619 184.582 44.6619H184V43.8807H184.582C184.871 43.8807 185.125 43.8286 185.342 43.7244C185.563 43.6203 185.734 43.4735 185.857 43.2841C185.983 43.0947 186.045 42.8722 186.045 42.6165C186.045 42.3703 185.991 42.156 185.882 41.9737C185.773 41.7914 185.619 41.6494 185.42 41.5476C185.224 41.4458 184.992 41.3949 184.724 41.3949C184.473 41.3949 184.237 41.4411 184.014 41.5334C183.794 41.6233 183.614 41.7547 183.474 41.9276C183.335 42.098 183.259 42.304 183.247 42.5455H182.395C182.409 42.1643 182.524 41.8305 182.739 41.544C182.955 41.2552 183.237 41.0303 183.585 40.8693C183.935 40.7083 184.32 40.6278 184.739 40.6278C185.188 40.6278 185.574 40.719 185.896 40.9013C186.218 41.0812 186.466 41.3191 186.638 41.6151C186.811 41.911 186.898 42.2306 186.898 42.5739C186.898 42.9834 186.79 43.3326 186.575 43.6214C186.362 43.9103 186.071 44.1103 185.705 44.2216V44.2784C186.164 44.3542 186.522 44.5495 186.781 44.8643C187.039 45.1768 187.168 45.5639 187.168 46.0256C187.168 46.4209 187.06 46.776 186.844 47.0909C186.631 47.4034 186.34 47.6496 185.971 47.8295C185.602 48.0095 185.181 48.0994 184.71 48.0994Z" fill="#5E5E8D"/>
<rect x="231.5" y="32.5" width="11" height="11" stroke="#5E5E8D"/>
<path d="M234.082 40.5085V39.7841L237.278 34.7273H237.804V35.8494H237.449L235.034 39.6705V39.7273H239.338V40.5085H234.082ZM237.506 42V40.2884V39.951V34.7273H238.344V42H237.506Z" fill="#5E5E8D"/>
<path d="M240.386 147.809V147.184H244.75V147.809H242.92V153.002H242.216V147.809H240.386ZM245.746 153.002V148.638H246.417V153.002H245.746ZM246.087 147.911C245.957 147.911 245.844 147.867 245.749 147.778C245.656 147.689 245.61 147.581 245.61 147.456C245.61 147.331 245.656 147.224 245.749 147.135C245.844 147.046 245.957 147.002 246.087 147.002C246.218 147.002 246.33 147.046 246.423 147.135C246.517 147.224 246.565 147.331 246.565 147.456C246.565 147.581 246.517 147.689 246.423 147.778C246.33 147.867 246.218 147.911 246.087 147.911ZM247.645 153.002V148.638H248.293V149.32H248.349C248.44 149.087 248.587 148.906 248.79 148.778C248.992 148.647 249.236 148.581 249.52 148.581C249.808 148.581 250.047 148.647 250.239 148.778C250.432 148.906 250.582 149.087 250.69 149.32H250.736C250.848 149.095 251.015 148.916 251.239 148.783C251.462 148.649 251.73 148.581 252.043 148.581C252.433 148.581 252.752 148.704 253 148.948C253.248 149.19 253.372 149.568 253.372 150.081V153.002H252.702V150.081C252.702 149.76 252.614 149.529 252.438 149.391C252.261 149.253 252.054 149.184 251.815 149.184C251.509 149.184 251.271 149.277 251.102 149.462C250.934 149.646 250.849 149.879 250.849 150.161V153.002H250.168V150.013C250.168 149.765 250.087 149.565 249.926 149.414C249.765 149.26 249.558 149.184 249.304 149.184C249.13 149.184 248.967 149.23 248.815 149.323C248.666 149.416 248.545 149.545 248.452 149.709C248.361 149.872 248.315 150.061 248.315 150.275V153.002H247.645ZM256.428 153.093C256.007 153.093 255.644 153 255.339 152.814C255.036 152.627 254.803 152.366 254.638 152.03C254.475 151.693 254.393 151.301 254.393 150.854C254.393 150.407 254.475 150.013 254.638 149.672C254.803 149.33 255.032 149.063 255.325 148.871C255.621 148.678 255.965 148.581 256.359 148.581C256.587 148.581 256.811 148.619 257.033 148.695C257.254 148.771 257.456 148.894 257.638 149.064C257.82 149.233 257.964 149.456 258.072 149.735C258.18 150.013 258.234 150.356 258.234 150.763V151.047H254.871V150.468H257.553C257.553 150.222 257.503 150.002 257.405 149.809C257.308 149.616 257.17 149.463 256.99 149.351C256.812 149.24 256.602 149.184 256.359 149.184C256.092 149.184 255.861 149.25 255.666 149.383C255.473 149.513 255.324 149.684 255.22 149.894C255.116 150.104 255.064 150.33 255.064 150.57V150.956C255.064 151.286 255.121 151.565 255.234 151.795C255.35 152.022 255.51 152.195 255.714 152.314C255.919 152.432 256.157 152.491 256.428 152.491C256.604 152.491 256.763 152.466 256.905 152.417C257.049 152.366 257.173 152.29 257.277 152.189C257.381 152.087 257.462 151.96 257.518 151.809L258.166 151.991C258.098 152.21 257.983 152.403 257.822 152.57C257.661 152.735 257.463 152.864 257.226 152.956C256.989 153.047 256.723 153.093 256.428 153.093Z" fill="#525274"/>
<path d="M19.8864 10.6383C19.8523 10.3504 19.714 10.127 19.4716 9.96786C19.2292 9.80877 18.9318 9.72923 18.5795 9.72923C18.322 9.72923 18.0966 9.77089 17.9034 9.85423C17.7121 9.93756 17.5625 10.0521 17.4545 10.198C17.3485 10.3438 17.2955 10.5095 17.2955 10.6951C17.2955 10.8504 17.3324 10.984 17.4062 11.0957C17.482 11.2056 17.5786 11.2974 17.696 11.3713C17.8134 11.4432 17.9366 11.5029 18.0653 11.5502C18.1941 11.5957 18.3125 11.6326 18.4205 11.661L19.0114 11.8201C19.1629 11.8599 19.3314 11.9148 19.517 11.9849C19.7045 12.055 19.8835 12.1506 20.054 12.2718C20.2263 12.3912 20.3684 12.5446 20.4801 12.7321C20.5919 12.9196 20.6477 13.1497 20.6477 13.4224C20.6477 13.7368 20.5653 14.0209 20.4006 14.2747C20.2377 14.5285 19.9991 14.7302 19.6847 14.8798C19.3722 15.0294 18.9924 15.1042 18.5455 15.1042C18.1288 15.1042 17.768 15.037 17.4631 14.9025C17.16 14.7681 16.9214 14.5806 16.7472 14.34C16.5748 14.0995 16.4773 13.8201 16.4545 13.502H17.1818C17.2008 13.7217 17.2746 13.9035 17.4034 14.0474C17.5341 14.1895 17.6989 14.2955 17.8977 14.3656C18.0985 14.4338 18.3144 14.4679 18.5455 14.4679C18.8144 14.4679 19.0559 14.4243 19.2699 14.3372C19.4839 14.2482 19.6534 14.1251 19.7784 13.9679C19.9034 13.8088 19.9659 13.6232 19.9659 13.411C19.9659 13.2179 19.9119 13.0607 19.804 12.9395C19.696 12.8182 19.554 12.7198 19.3778 12.644C19.2017 12.5682 19.0114 12.502 18.8068 12.4451L18.0909 12.2406C17.6364 12.1099 17.2765 11.9234 17.0114 11.6809C16.7462 11.4385 16.6136 11.1213 16.6136 10.7292C16.6136 10.4035 16.7017 10.1194 16.8778 9.87695C17.0559 9.63263 17.2945 9.44324 17.5938 9.30877C17.8949 9.17241 18.2311 9.10423 18.6023 9.10423C18.9773 9.10423 19.3106 9.17146 19.6023 9.30593C19.8939 9.43851 20.125 9.62032 20.2955 9.85138C20.4678 10.0824 20.5587 10.3448 20.5682 10.6383H19.8864ZM21.7152 16.6383V10.6383H22.3629V11.3315H22.4425C22.4917 11.2557 22.5599 11.1591 22.647 11.0417C22.736 10.9224 22.8629 10.8163 23.0277 10.7235C23.1944 10.6288 23.4197 10.5815 23.7038 10.5815C24.0713 10.5815 24.3951 10.6734 24.6754 10.8571C24.9557 11.0408 25.1745 11.3012 25.3317 11.6383C25.4889 11.9754 25.5675 12.3732 25.5675 12.8315C25.5675 13.2936 25.4889 13.6942 25.3317 14.0332C25.1745 14.3703 24.9567 14.6317 24.6783 14.8173C24.3999 15.001 24.0788 15.0929 23.7152 15.0929C23.4349 15.0929 23.2105 15.0465 23.0419 14.9537C22.8733 14.859 22.7436 14.752 22.6527 14.6326C22.5618 14.5114 22.4917 14.411 22.4425 14.3315H22.3857V16.6383H21.7152ZM22.3743 12.8201C22.3743 13.1497 22.4226 13.4404 22.5192 13.6923C22.6158 13.9423 22.7569 14.1383 22.9425 14.2804C23.1281 14.4205 23.3554 14.4906 23.6243 14.4906C23.9046 14.4906 24.1385 14.4167 24.326 14.269C24.5154 14.1194 24.6574 13.9186 24.7521 13.6667C24.8487 13.4129 24.897 13.1307 24.897 12.8201C24.897 12.5133 24.8497 12.2368 24.755 11.9906C24.6622 11.7425 24.5211 11.5465 24.3317 11.4025C24.1442 11.2567 23.9084 11.1838 23.6243 11.1838C23.3516 11.1838 23.1224 11.2529 22.9368 11.3912C22.7512 11.5275 22.611 11.7188 22.5163 11.965C22.4216 12.2093 22.3743 12.4944 22.3743 12.8201ZM27.8743 15.1042C27.5978 15.1042 27.3468 15.0521 27.1214 14.948C26.8961 14.8419 26.7171 14.6895 26.5845 14.4906C26.4519 14.2898 26.3857 14.0474 26.3857 13.7633C26.3857 13.5133 26.4349 13.3107 26.5334 13.1554C26.6319 12.9982 26.7635 12.8751 26.9283 12.786C27.093 12.697 27.2749 12.6307 27.4737 12.5872C27.6745 12.5417 27.8762 12.5057 28.0788 12.4792C28.344 12.4451 28.5589 12.4196 28.7237 12.4025C28.8904 12.3836 29.0116 12.3523 29.0874 12.3088C29.165 12.2652 29.2038 12.1895 29.2038 12.0815V12.0588C29.2038 11.7785 29.1271 11.5607 28.9737 11.4054C28.8222 11.2501 28.5921 11.1724 28.2834 11.1724C27.9633 11.1724 27.7124 11.2425 27.5305 11.3826C27.3487 11.5228 27.2209 11.6724 27.147 11.8315L26.5107 11.6042C26.6243 11.3391 26.7758 11.1326 26.9652 10.9849C27.1565 10.8353 27.3648 10.7311 27.5902 10.6724C27.8175 10.6118 28.041 10.5815 28.2607 10.5815C28.4008 10.5815 28.5618 10.5985 28.7436 10.6326C28.9273 10.6648 29.1044 10.7321 29.2749 10.8343C29.4472 10.9366 29.5902 11.091 29.7038 11.2974C29.8175 11.5038 29.8743 11.7804 29.8743 12.127V15.002H29.2038V14.411H29.1697C29.1243 14.5057 29.0485 14.6071 28.9425 14.715C28.8364 14.823 28.6953 14.9148 28.5192 14.9906C28.343 15.0663 28.1281 15.1042 27.8743 15.1042ZM27.9766 14.502C28.2417 14.502 28.4652 14.4499 28.647 14.3457C28.8307 14.2415 28.969 14.1071 29.0618 13.9423C29.1565 13.7775 29.2038 13.6042 29.2038 13.4224V12.8088C29.1754 12.8429 29.1129 12.8741 29.0163 12.9025C28.9216 12.929 28.8118 12.9527 28.6868 12.9735C28.5637 12.9925 28.4434 13.0095 28.326 13.0247C28.2105 13.0379 28.1167 13.0493 28.0447 13.0588C27.8705 13.0815 27.7076 13.1184 27.5561 13.1696C27.4065 13.2188 27.2853 13.2936 27.1925 13.394C27.1016 13.4925 27.0561 13.627 27.0561 13.7974C27.0561 14.0304 27.1423 14.2065 27.3146 14.3258C27.4889 14.4432 27.7095 14.502 27.9766 14.502ZM32.8707 15.0929C32.4616 15.0929 32.1094 14.9963 31.8139 14.8031C31.5185 14.6099 31.2912 14.3438 31.1321 14.0048C30.973 13.6658 30.8935 13.2785 30.8935 12.8429C30.8935 12.3997 30.9749 12.0086 31.1378 11.6696C31.3026 11.3287 31.5317 11.0626 31.8253 10.8713C32.1207 10.6781 32.4654 10.5815 32.8594 10.5815C33.1662 10.5815 33.4427 10.6383 33.6889 10.752C33.9351 10.8656 34.1368 11.0247 34.294 11.2292C34.4512 11.4338 34.5488 11.6724 34.5866 11.9451H33.9162C33.8651 11.7463 33.7514 11.5701 33.5753 11.4167C33.401 11.2614 33.1662 11.1838 32.8707 11.1838C32.6094 11.1838 32.3802 11.252 32.1832 11.3883C31.9882 11.5228 31.8357 11.7131 31.7259 11.9593C31.6179 12.2037 31.5639 12.4906 31.5639 12.8201C31.5639 13.1573 31.617 13.4508 31.723 13.7008C31.831 13.9508 31.9825 14.1449 32.1776 14.2832C32.3745 14.4215 32.6056 14.4906 32.8707 14.4906C33.045 14.4906 33.2031 14.4603 33.3452 14.3997C33.4872 14.3391 33.6075 14.252 33.706 14.1383C33.8045 14.0247 33.8745 13.8883 33.9162 13.7292H34.5866C34.5488 13.9868 34.455 14.2188 34.3054 14.4252C34.1577 14.6298 33.9616 14.7927 33.7173 14.9139C33.4749 15.0332 33.1927 15.0929 32.8707 15.0929ZM37.3963 15.0929C36.9759 15.0929 36.6132 15.0001 36.3082 14.8145C36.0052 14.627 35.7713 14.3656 35.6065 14.0304C35.4437 13.6932 35.3622 13.3012 35.3622 12.8542C35.3622 12.4073 35.4437 12.0133 35.6065 11.6724C35.7713 11.3296 36.0005 11.0626 36.294 10.8713C36.5895 10.6781 36.9342 10.5815 37.3281 10.5815C37.5554 10.5815 37.7798 10.6194 38.0014 10.6951C38.223 10.7709 38.4247 10.894 38.6065 11.0645C38.7884 11.233 38.9332 11.4565 39.0412 11.7349C39.1491 12.0133 39.2031 12.3561 39.2031 12.7633V13.0474H35.8395V12.4679H38.5213C38.5213 12.2216 38.4721 12.002 38.3736 11.8088C38.277 11.6156 38.1387 11.4631 37.9588 11.3514C37.7808 11.2396 37.5705 11.1838 37.3281 11.1838C37.0611 11.1838 36.83 11.2501 36.6349 11.3826C36.4418 11.5133 36.2931 11.6838 36.1889 11.894C36.0848 12.1042 36.0327 12.3296 36.0327 12.5701V12.9565C36.0327 13.286 36.0895 13.5654 36.2031 13.7946C36.3187 14.0218 36.4787 14.1951 36.6832 14.3145C36.8878 14.4319 37.1255 14.4906 37.3963 14.4906C37.5724 14.4906 37.7315 14.466 37.8736 14.4167C38.0175 14.3656 38.1416 14.2898 38.2457 14.1895C38.3499 14.0872 38.4304 13.9603 38.4872 13.8088L39.1349 13.9906C39.0668 14.2103 38.9522 14.4035 38.7912 14.5701C38.6302 14.7349 38.4313 14.8637 38.1946 14.9565C37.9579 15.0474 37.6918 15.0929 37.3963 15.0929Z" fill="#525274"/>
<defs>
<clipPath id="clip0_438_1168">
<rect width="23.5" height="17" fill="white" transform="translate(26 102)"/>
</clipPath>
</defs>
</svg>
