<svg fill="none" xmlns="http://www.w3.org/2000/svg" viewBox="0 0 71.92 74.07">
<path fill-rule="evenodd" clip-rule="evenodd" d="M34.8511 60.9895C49.2869 60.9895 60.9895 49.2869 60.9895 34.8511C60.9895 20.4153 49.2869 8.71278 34.8511 8.71278C20.4153 8.71278 8.71278 20.4153 8.71278 34.8511C8.71278 49.2869 20.4153 60.9895 34.8511 60.9895ZM34.8511 69.7022C54.0989 69.7022 69.7022 54.0989 69.7022 34.8511C69.7022 15.6034 54.0989 0 34.8511 0C15.6034 0 0 15.6034 0 34.8511C0 54.0989 15.6034 69.7022 34.8511 69.7022Z" fill="#8CBAFF" style="--darkreader-inline-fill: var(--darkreader-background-8cbaff, #003078);" data-darkreader-inline-fill=""/>
<path d="M58.8195 56.6335L47.9285 63.1681L34.8594 34.8516L58.8195 56.6335Z" fill="#8CBAFF" style="--darkreader-inline-fill: var(--darkreader-background-8cbaff, #003078);" data-darkreader-inline-fill=""/>
<path fill-rule="evenodd" clip-rule="evenodd" d="M58.8195 56.6335L34.8594 34.8516L47.9285 63.1681L58.8195 56.6335ZM51.5517 55.9139L47.8074 52.51L49.8497 56.935L51.5517 55.9139Z" fill="#8CBAFF" style="--darkreader-inline-fill: var(--darkreader-background-8cbaff, #003078);" data-darkreader-inline-fill=""/>
<path d="M61.0276 63.2147L71.885 74.0594L54.4594 74.0594L52.8329 69.709L61.0276 63.2147Z" fill="#B3BE35" style="--darkreader-inline-fill: var(--darkreader-text-b3be35, #c5cf52);" data-darkreader-inline-fill=""/>
</svg>